<svg version="1.1" id="Layer_1" xmlns="http://www.w3.org/2000/svg" xmlns:xlink="http://www.w3.org/1999/xlink" x="0px" y="0px"
	 width="100%" viewBox="0 0 1024 1024" enable-background="new 0 0 1024 1024" xml:space="preserve">
<path fill="#000000" opacity="1.000000" stroke="none" 
	d="
M748.892822,101.129669 
	C759.055054,113.574768 768.751526,125.873688 771.656982,141.964966 
	C774.738403,159.031036 771.088684,174.692795 763.608826,190.237122 
	C749.951355,218.619720 725.928162,236.752121 701.994202,255.132019 
	C684.825623,268.316498 666.131104,279.516022 650.123169,294.189331 
	C637.710754,305.566833 627.108948,318.722809 615.580994,330.974670 
	C614.084778,332.564850 613.914429,334.527283 613.939453,336.567871 
	C614.245483,361.576660 612.257629,386.501648 611.127258,411.456299 
	C610.404175,427.416962 609.332581,443.362152 608.372070,459.311554 
	C607.919800,466.821350 609.039307,474.262695 609.221191,481.731201 
	C609.619690,498.094543 605.407410,513.821838 600.559753,529.180481 
	C596.328369,542.586243 595.684265,556.294006 594.349060,569.992737 
	C593.639343,577.274414 593.605347,584.619690 593.153259,591.929199 
	C591.946594,611.440430 571.942322,622.639648 553.654297,615.315674 
	C531.782043,606.556335 523.719666,589.620544 522.908569,567.889343 
	C522.154114,547.675415 525.578491,527.755493 528.528198,507.849579 
	C529.167542,503.535065 528.977783,499.702820 527.118347,495.763153 
	C517.969421,476.380005 505.254425,459.633392 489.920929,444.763489 
	C487.584747,442.497894 485.313232,442.075806 482.256714,443.177155 
	C449.076904,455.132965 417.483276,470.501923 387.247833,488.513031 
	C373.361969,496.784760 362.041931,508.660339 349.744110,519.122986 
	C334.014984,532.504944 318.871338,546.578064 302.455933,559.148254 
	C300.208832,560.868958 298.075684,562.941345 295.538818,564.041687 
	C288.620026,567.042236 285.667572,572.490601 283.645844,579.453369 
	C278.541138,597.033875 272.810059,614.432983 267.281647,631.889526 
	C266.458984,634.487244 266.189850,637.056396 266.549377,639.759216 
	C267.879364,649.757935 267.150421,659.729797 265.667206,669.628784 
	C263.707275,682.710022 255.550613,690.635864 243.473434,694.821411 
	C227.607956,700.319885 212.710861,696.404480 203.730057,684.713074 
	C201.620529,681.966919 200.476364,679.080017 200.531784,675.524292 
	C200.679749,666.032349 200.642258,656.536072 200.558914,647.042480 
	C200.403885,629.382629 200.539886,611.708313 199.823059,594.069702 
	C199.369080,582.898926 200.660507,572.216064 204.221985,561.670654 
	C208.481888,549.057251 212.494888,536.360291 216.601120,523.695068 
	C218.339325,518.333740 221.275085,513.793152 225.590134,510.128937 
	C226.588959,509.280823 227.592926,508.281647 228.189453,507.140259 
	C238.546585,487.323151 253.584137,470.907990 267.109650,453.391449 
	C271.367310,447.877441 275.393036,442.184265 278.971954,436.096741 
	C256.007141,455.269073 236.381027,477.550568 217.907883,501.783661 
	C215.520737,496.892487 217.331024,492.652924 218.082855,488.746338 
	C223.097290,462.690735 230.640503,437.385315 240.335526,412.638031 
	C245.377319,399.768433 249.455826,386.681091 257.756744,375.262665 
	C269.066132,359.705933 281.802368,345.417450 295.076202,331.609314 
	C321.880463,303.726074 349.780670,276.997742 379.788635,252.518341 
	C396.895508,238.563232 415.159790,226.368484 434.522980,215.856506 
	C441.553467,212.039764 449.532257,210.053848 457.273315,208.504227 
	C490.311157,201.890625 513.299072,180.433151 534.839600,156.879654 
	C548.570984,141.865067 560.562866,125.406586 572.086182,108.652634 
	C582.833618,93.026794 598.514221,83.719109 614.261047,74.204155 
	C639.887695,58.719395 666.281433,61.951218 692.881592,70.234833 
	C702.559875,73.248810 711.905396,77.366646 721.317688,81.190422 
	C731.993774,85.527657 741.078674,92.173637 748.892822,101.129669 
z"/>
<path fill="#000000" opacity="1.000000" stroke="none" 
	d="
M324.520538,959.966187 
	C305.649170,958.757080 287.210388,957.630859 268.782318,956.350342 
	C246.541290,954.804871 224.311783,952.907471 202.067947,951.633545 
	C177.308563,950.215637 153.851807,943.884338 130.570587,936.222839 
	C122.145744,933.450439 114.175323,929.640808 106.735001,924.825073 
	C97.992035,919.166260 97.421844,911.790588 105.182228,904.754578 
	C113.467171,897.243103 123.857033,893.845520 134.305573,891.048340 
	C156.018890,885.235474 178.285843,882.167603 200.450439,878.662048 
	C225.246475,874.740234 250.066696,870.971802 274.869446,867.092163 
	C285.706726,865.397034 296.552399,863.732117 307.341888,861.766235 
	C311.638580,860.983337 316.186951,860.300720 319.510620,856.772461 
	C317.983521,853.469299 315.117767,852.314880 312.508423,850.988647 
	C302.265106,845.782593 291.930206,840.756348 281.699554,835.525940 
	C277.235474,833.243713 273.113434,830.374817 269.728119,826.618774 
	C264.417633,820.726929 264.492340,815.169434 269.988129,809.400269 
	C278.915466,800.028687 290.401611,795.503418 302.465271,791.653259 
	C330.113281,782.829346 358.356476,776.523621 386.857941,771.444824 
	C407.005646,767.854614 427.411438,766.164429 447.916077,765.654358 
	C474.243835,764.999390 500.503632,766.193604 526.743652,767.963928 
	C540.685303,768.904602 554.573181,770.209167 567.855957,775.342651 
	C576.219849,778.575134 582.375427,782.944885 583.466553,792.705811 
	C584.030396,797.750427 587.503662,801.744690 590.561890,805.716431 
	C591.802551,807.327698 593.470703,807.768494 595.416565,807.717773 
	C619.592712,807.087524 643.677429,808.999878 667.726501,810.902344 
	C714.683105,814.616943 761.665405,818.594238 807.734009,828.980103 
	C834.179749,834.942078 860.557678,841.221313 885.931641,851.324219 
	C897.113708,855.776367 909.512756,857.077515 920.724548,861.955688 
	C925.769531,864.150574 930.832764,866.331909 935.404724,869.417847 
	C946.333435,876.794556 948.971008,887.433899 942.498474,898.901367 
	C933.185425,915.401367 918.758057,924.597900 900.554688,929.318665 
	C879.106506,934.880859 857.394592,939.012939 835.704895,943.361633 
	C810.575623,948.399963 785.238037,952.103577 759.802551,955.028076 
	C734.358337,957.953552 708.888794,960.625244 683.308350,962.355164 
	C640.084106,965.278259 596.835449,966.333862 553.526855,966.423035 
	C524.223755,966.483337 494.922485,966.424438 465.631409,965.840759 
	C438.008270,965.290405 410.393646,964.166077 382.785980,963.034119 
	C363.500641,962.243286 344.233246,961.014099 324.520538,959.966187 
M769.770081,878.718750 
	C801.207153,885.194702 833.052246,889.899963 863.595032,900.260986 
	C872.548035,903.298157 880.252136,900.696594 883.053772,893.568848 
	C885.887390,886.359802 882.320740,879.104126 873.835022,875.027344 
	C868.560730,872.493408 862.965942,870.822693 857.328186,869.331421 
	C836.237915,863.752380 814.774719,859.853394 793.464722,855.267517 
	C785.351135,853.521423 777.334351,850.916016 768.907898,851.185486 
	C758.147949,851.529602 751.894165,862.297852 756.971619,871.539490 
	C759.552673,876.237488 763.979370,877.915161 769.770081,878.718750 
M231.469803,890.154175 
	C221.683792,891.070251 211.964417,892.474854 202.322006,894.359558 
	C190.558182,896.658813 178.797012,898.982300 167.078537,901.499329 
	C159.427826,903.142639 154.884247,907.656494 154.218170,913.676636 
	C153.003799,924.652344 161.669815,930.980103 173.826141,928.160522 
	C200.944229,921.870422 228.267303,916.921997 256.159973,915.680603 
	C265.225189,915.277161 271.794159,909.239929 271.623993,901.843323 
	C271.449646,894.266846 264.451416,888.232910 255.274414,888.434814 
	C247.631210,888.602844 240.003769,889.488831 231.469803,890.154175 
M333.311523,836.413818 
	C343.468475,839.920166 352.029602,836.248596 352.865662,827.093140 
	C353.382202,821.437012 356.335510,820.605774 360.612610,819.728943 
	C369.387390,817.929871 378.200989,818.981567 387.003693,818.867676 
	C393.136505,818.788269 397.647736,815.237793 399.306000,809.716736 
	C400.855255,804.558594 398.692017,798.479858 394.068085,795.157959 
	C390.879944,792.867615 387.277649,791.713196 383.378601,791.365356 
	C363.684998,789.609070 344.935394,794.337708 326.584015,800.443604 
	C314.688110,804.401672 312.070618,817.260559 320.358521,826.736755 
	C323.807770,830.680603 328.108002,833.517212 333.311523,836.413818 
z"/>
<path fill="#000000" opacity="1.000000" stroke="none" 
	d="
M642.403931,569.491394 
	C643.667114,562.704956 644.656311,556.291809 646.930786,550.173279 
	C648.441406,546.109924 651.050293,543.294556 655.549255,542.894165 
	C660.201477,542.480164 663.596558,544.627625 665.755005,548.665894 
	C668.219116,553.275879 668.879272,558.439392 669.938354,563.453796 
	C676.517090,594.602417 687.290283,624.516724 696.633545,654.856018 
	C701.374695,670.251221 706.131531,685.666870 708.647461,701.652832 
	C711.618896,720.533630 706.134949,735.778137 690.783325,747.861572 
	C665.249268,767.959778 639.466858,758.047058 622.395508,740.588745 
	C607.335571,725.187378 605.998413,706.548645 610.085754,686.663757 
	C613.615601,669.491272 620.605896,653.383179 625.218384,636.541748 
	C631.277039,614.419617 637.819702,592.426880 642.403931,569.491394 
M699.397644,712.613708 
	C699.864197,710.852478 700.636536,709.110535 700.748657,707.327087 
	C701.605103,693.694092 697.098145,681.736694 688.610168,671.315857 
	C683.960815,665.607788 676.904236,664.733215 671.093750,668.378052 
	C665.405823,671.945984 662.970154,679.299622 666.647827,685.985535 
	C670.652405,693.265808 673.220276,700.701294 674.433289,708.884827 
	C675.258850,714.454468 678.516052,718.775269 684.617981,719.784546 
	C690.790344,720.805420 695.799988,718.950806 699.397644,712.613708 
z"/>
<path fill="#000000" opacity="1.000000" stroke="none" 
	d="
M297.682495,581.904907 
	C298.620697,579.170349 300.492584,577.823792 302.546906,576.635559 
	C324.434143,563.975464 344.305878,548.678589 362.149597,530.778259 
	C364.858856,528.060425 366.679077,528.209473 368.918915,531.185669 
	C375.055481,539.339966 380.278351,547.991943 378.837158,558.623535 
	C376.272552,577.542542 357.511261,587.386841 340.182251,579.264832 
	C336.883942,577.718933 333.686951,575.957581 330.422943,574.336426 
	C330.201538,574.226440 329.808716,574.461609 329.394836,574.560242 
	C328.509949,576.774475 330.153015,578.276184 331.045197,579.949707 
	C335.577728,588.451294 340.940430,596.581848 342.640533,606.329590 
	C343.997986,614.112854 344.366211,621.890137 341.838562,629.503418 
	C335.977509,647.156494 316.069641,653.695068 300.854370,643.035767 
	C293.550476,637.918884 289.224121,630.324280 284.406006,623.153442 
	C283.281189,621.479370 283.749969,619.619934 284.507446,617.882996 
	C289.571503,606.271606 293.454102,594.227539 297.682495,581.904907 
z"/>
<path fill="#000000" opacity="1.000000" stroke="none" 
	d="
M645.858765,438.537292 
	C645.730896,422.866089 640.160645,409.157928 633.565430,395.860535 
	C631.730408,392.160889 631.144043,388.826569 631.861389,384.952759 
	C634.317566,371.688843 635.895386,358.323669 636.045288,344.821472 
	C636.082336,341.485748 637.018433,338.839966 639.526917,336.416168 
	C660.832642,315.830292 682.065857,295.169739 704.580139,275.885803 
	C706.906494,273.893219 709.033508,271.480377 713.336548,270.442322 
	C709.001831,280.050873 706.412964,289.394623 701.640930,297.955841 
	C680.748291,335.438568 666.980835,375.226959 663.259827,418.209625 
	C662.672668,424.992371 661.838318,431.755615 661.352844,438.544647 
	C660.974060,443.840973 658.781006,447.161438 654.713623,447.813690 
	C650.832092,448.436127 647.777771,445.790314 646.215820,440.437622 
	C646.076477,439.960052 646.006653,439.462158 645.858765,438.537292 
z"/>
</svg>