<?xml version="1.0" standalone="no"?>
<!DOCTYPE svg PUBLIC "-//W3C//DTD SVG 20010904//EN"
 "http://www.w3.org/TR/2001/REC-SVG-20010904/DTD/svg10.dtd">
<svg version="1.0" xmlns="http://www.w3.org/2000/svg"
 width="1024.000000pt" height="1024.000000pt" viewBox="0 0 1024.000000 1024.000000"
 preserveAspectRatio="xMidYMid meet">

<g transform="translate(0.000000,1024.000000) scale(0.100000,-0.100000)"
fill="#000000" stroke="none">
<path d="M4950 9189 c-734 -38 -1329 -276 -1606 -642 -56 -73 -116 -196 -140
-287 -23 -87 -23 -253 0 -340 42 -157 123 -287 260 -418 259 -249 674 -417
1206 -489 106 -14 201 -18 445 -18 244 0 339 4 445 18 532 72 947 240 1206
489 191 183 277 367 277 588 0 223 -90 411 -284 594 -104 98 -215 171 -380
250 -168 80 -265 114 -471 165 -300 74 -641 106 -958 90z m436 -610 c446 -43
819 -178 987 -357 53 -57 67 -87 67 -138 0 -51 -21 -84 -100 -157 -153 -142
-464 -261 -819 -314 -165 -25 -647 -25 -812 0 -355 53 -666 172 -819 314 -79
73 -100 106 -100 157 0 51 14 81 67 138 162 173 516 306 943 353 145 16 443
18 586 4z"/>
<path d="M1698 8516 c-185 -76 -407 -325 -557 -625 -93 -186 -145 -334 -217
-616 -23 -93 -61 -235 -84 -315 -193 -687 -246 -1698 -139 -2655 55 -492 174
-1042 324 -1490 71 -212 251 -575 352 -710 37 -49 112 -155 166 -235 141 -206
191 -270 315 -405 164 -182 288 -280 406 -323 70 -26 233 -46 319 -39 96 8
208 62 230 109 41 91 50 128 44 190 l-5 61 -95 88 c-373 348 -937 1203 -1160
1760 -111 274 -147 426 -147 610 l0 62 76 -149 c41 -82 87 -176 101 -209 41
-100 203 -433 269 -557 65 -120 97 -164 267 -371 207 -250 433 -458 612 -563
44 -26 123 -75 175 -110 172 -114 293 -157 440 -158 69 -1 95 4 138 23 161 73
164 236 7 456 -23 33 -124 144 -223 248 -268 278 -382 418 -712 877 -114 158
-147 214 -231 385 -101 208 -223 484 -216 491 2 3 45 -46 94 -108 188 -235
409 -459 673 -684 472 -402 877 -596 1105 -529 110 32 145 74 145 174 0 128
-89 272 -285 463 -71 69 -153 146 -181 170 -249 213 -444 395 -561 527 -88 99
-258 319 -251 326 2 2 33 -19 68 -47 251 -195 532 -362 800 -476 193 -81 378
-129 553 -143 118 -10 133 -9 197 10 39 12 70 26 70 32 0 23 -103 117 -239
218 -80 59 -276 192 -436 295 -495 321 -696 469 -938 690 -185 169 -454 475
-576 654 -133 196 -271 674 -316 1088 -28 265 -26 292 32 519 66 255 84 355
84 485 1 197 -42 310 -164 428 -41 40 -91 79 -111 87 -54 23 -151 19 -218 -9z"/>
<path d="M8311 8525 c-18 -8 -67 -48 -108 -87 -122 -118 -165 -231 -164 -428
0 -130 18 -230 84 -485 58 -227 60 -254 32 -519 -45 -414 -183 -892 -316
-1088 -122 -179 -391 -485 -576 -654 -242 -221 -443 -369 -938 -690 -159 -103
-356 -236 -436 -295 -136 -101 -239 -195 -239 -218 0 -6 31 -20 70 -32 64 -19
79 -20 197 -10 175 14 360 62 553 143 268 114 549 281 800 476 35 28 66 49 68
47 7 -7 -163 -227 -251 -326 -117 -132 -312 -314 -561 -527 -28 -24 -110 -101
-181 -170 -196 -191 -285 -335 -285 -463 0 -100 35 -142 145 -174 190 -56 503
69 880 349 318 237 656 562 898 864 49 62 92 111 94 108 7 -7 -115 -283 -216
-491 -84 -171 -117 -227 -231 -385 -330 -459 -444 -599 -712 -877 -99 -104
-200 -215 -223 -248 -122 -171 -149 -314 -75 -399 49 -55 120 -81 220 -80 147
1 268 44 440 158 52 35 131 84 175 110 179 105 405 313 612 563 170 207 202
251 267 371 66 124 228 457 269 557 14 33 60 127 101 209 l76 149 0 -62 c0
-184 -36 -336 -147 -610 -223 -557 -787 -1412 -1160 -1760 l-95 -88 -5 -61
c-6 -62 3 -99 44 -190 22 -47 134 -101 230 -109 86 -7 249 13 319 39 118 43
242 141 406 323 124 135 174 199 315 405 54 80 129 186 166 235 101 135 281
498 352 710 247 738 377 1579 378 2430 0 692 -64 1255 -193 1715 -23 80 -61
222 -84 315 -72 282 -124 430 -217 616 -150 300 -372 549 -557 625 -67 28
-168 31 -221 9z"/>
<path d="M2955 6536 c-37 -17 -80 -62 -94 -99 -22 -56 -13 -109 27 -178 21
-35 71 -119 111 -187 109 -184 208 -310 386 -487 238 -238 458 -393 790 -555
241 -117 490 -209 806 -295 l136 -37 181 51 c320 91 517 164 757 281 332 162
552 317 790 555 178 177 277 303 386 487 40 68 90 152 111 187 56 96 50 179
-18 243 -70 65 -128 64 -320 -6 -374 -136 -763 -233 -1164 -290 -261 -37 -415
-47 -725 -47 -310 0 -464 10 -725 47 -401 57 -790 154 -1164 290 -157 57 -214
65 -271 40z"/>
</g>
</svg>
