<svg version="1.1" id="Layer_1" xmlns="http://www.w3.org/2000/svg" xmlns:xlink="http://www.w3.org/1999/xlink" x="0px" y="0px"
	 width="100%" viewBox="0 0 1024 1024" enable-background="new 0 0 1024 1024" xml:space="preserve">
<path fill="#000000" opacity="1.000000" stroke="none" 
	d="
M1013.054443,560.690430 
	C1010.535645,581.113892 1007.742065,601.015259 1003.421570,620.696655 
	C990.944885,677.532349 969.191467,730.534241 938.373047,779.867920 
	C914.926697,817.400574 886.866150,851.128845 854.453369,881.180847 
	C803.825073,928.121643 745.900635,963.101318 680.813477,986.236023 
	C646.971191,998.264954 612.216125,1006.464600 576.650513,1011.093506 
	C551.206116,1014.405090 525.597534,1015.982910 499.926483,1015.080627 
	C407.923676,1011.847046 322.547485,986.587830 244.620514,937.266907 
	C166.323318,887.711548 106.443039,821.294922 64.476128,738.737183 
	C43.459343,697.392761 28.815224,653.781311 19.968086,608.315552 
	C15.304941,584.351501 12.718635,560.094849 11.387645,535.633606 
	C10.142344,512.747131 10.813630,489.954620 12.988142,467.304504 
	C19.867361,395.649353 40.539070,328.149536 76.209709,265.415955 
	C116.415085,194.707184 170.679398,137.137772 238.598038,92.568108 
	C289.658875,59.060902 345.191559,35.859455 404.902832,22.802248 
	C433.554291,16.536964 462.483521,12.622672 491.840820,11.596847 
	C621.050659,7.081896 735.732544,45.957714 835.156006,128.224289 
	C913.154602,192.763260 965.758484,274.647369 994.761536,371.593018 
	C1003.594421,401.117584 1009.359741,431.309601 1012.406006,462.018066 
	C1014.396790,482.087097 1015.651794,502.182251 1015.136597,522.338013 
	C1014.813477,534.978882 1013.807251,547.602295 1013.054443,560.690430 
M69.288902,598.519226 
	C74.107407,624.065247 81.134148,648.994934 90.461754,673.254211 
	C124.668282,762.218811 181.158569,833.795410 259.805786,887.423523 
	C328.638062,934.358948 405.156647,959.797363 488.326782,964.493164 
	C518.271240,966.183838 548.251892,964.971619 577.988037,960.507385 
	C617.008301,954.649231 654.726807,944.128174 691.005981,928.525574 
	C740.646484,907.176758 785.150574,877.996338 824.263489,840.730774 
	C873.014343,794.282532 909.690308,739.627747 934.336548,676.963318 
	C951.890747,632.330933 961.780945,585.933960 964.491760,538.124817 
	C965.574219,519.033752 965.212830,499.853241 963.904968,480.693451 
	C962.052124,453.551514 957.721863,426.859406 950.991455,400.552765 
	C937.261108,346.886261 914.250061,297.458313 882.328430,252.215759 
	C846.394592,201.286591 801.731750,159.590652 748.553467,127.116249 
	C683.628662,87.468605 612.983093,65.768143 537.132996,61.530289 
	C501.146881,59.519695 465.247803,61.734482 429.779114,68.594986 
	C379.008636,78.415222 331.112457,95.959129 286.343994,122.038368 
	C231.132675,154.200943 184.668762,195.966293 147.146942,247.666489 
	C123.133995,280.753235 103.896484,316.415955 89.658501,354.763733 
	C72.081436,402.104767 62.127041,450.924347 61.349205,501.484955 
	C61.065113,519.951660 61.152393,538.411316 63.202976,556.833374 
	C64.726875,570.523865 66.446114,584.161133 69.288902,598.519226 
z"/>
<path fill="#000000" opacity="1.000000" stroke="none" 
	d="
M853.715088,726.671387 
	C817.417480,784.190430 769.957520,829.552734 711.161438,862.964661 
	C668.306335,887.317749 622.434998,903.045349 573.672852,910.463623 
	C549.081299,914.204773 524.378906,916.193665 499.552643,915.091614 
	C419.006317,911.516174 345.415192,887.123169 279.532471,840.345520 
	C216.918518,795.888672 171.264877,737.787231 141.603882,667.120728 
	C127.966118,634.629089 118.951744,600.827332 114.486244,565.790466 
	C111.872498,545.282654 110.227615,524.760620 110.909157,504.106354 
	C113.214317,434.248474 131.116669,368.832825 166.779114,308.467590 
	C197.458328,256.537354 237.843170,213.682907 287.692230,179.907166 
	C332.769135,149.364822 382.177734,128.965088 435.709045,118.539070 
	C463.587402,113.109344 491.700500,110.119690 520.038147,110.984612 
	C621.547607,114.082932 710.435486,148.968613 785.656372,217.688156 
	C829.168030,257.439056 861.910889,304.781464 884.469543,359.108185 
	C897.985413,391.657623 907.172668,425.430878 911.528748,460.521545 
	C913.870422,479.385590 915.561218,498.253723 915.228943,517.241333 
	C913.980225,588.611145 895.781738,655.301514 859.590027,716.956177 
	C857.735657,720.115112 855.809998,723.232300 853.715088,726.671387 
M173.342651,605.334290 
	C173.874832,607.254333 174.375107,609.183838 174.943832,611.092957 
	C195.744507,680.919556 233.812515,739.518616 290.431580,785.402100 
	C369.298309,849.314941 459.594055,874.244873 560.227234,861.798828 
	C597.383057,857.203552 632.817017,846.399780 666.348999,829.876892 
	C741.078369,793.054016 796.364685,736.850403 832.112305,661.581055 
	C851.180725,621.430847 861.849731,578.970581 864.461609,534.695801 
	C866.149780,506.077942 864.895569,477.441711 859.431213,449.154724 
	C843.946289,368.994537 806.149353,301.220795 744.407654,247.844986 
	C670.352112,183.823807 583.856995,155.460266 486.011169,162.163452 
	C456.797272,164.164825 428.393158,170.030334 400.694855,179.390228 
	C354.957123,194.846069 313.999939,218.638885 278.077423,250.857880 
	C241.379456,283.772369 212.806488,322.766174 192.343765,367.661316 
	C177.460968,400.314148 167.930298,434.512695 163.473663,470.058380 
	C160.547836,493.394531 160.460770,516.846680 162.189987,540.335266 
	C163.793228,562.112549 167.527847,583.470459 173.342651,605.334290 
z"/>
<path fill="#000000" opacity="1.000000" stroke="none" 
	d="
M723.491943,305.509949 
	C837.794250,421.908356 836.907349,609.128418 721.553711,722.894287 
	C604.360046,838.474731 418.686951,836.482849 304.505890,722.749023 
	C186.476212,605.181519 189.953156,415.687378 306.410583,301.368103 
	C421.524536,188.367630 608.604736,189.739594 723.491943,305.509949 
M273.063873,564.682129 
	C273.318756,565.987854 273.524567,567.305359 273.835571,568.597534 
	C287.038269,623.450256 315.215302,669.104492 359.338348,704.224609 
	C418.315918,751.168274 485.628906,767.850403 559.532654,754.085266 
	C620.034180,742.816406 669.663818,712.002502 707.183044,663.071411 
	C750.547974,606.516602 766.646423,542.466614 755.247986,472.146667 
	C747.108887,421.933838 725.170044,377.973511 689.098328,341.945831 
	C627.254150,280.177094 552.477844,256.492157 466.644867,271.913635 
	C406.868103,282.653656 357.835693,313.304291 320.027710,361.054108 
	C290.436127,398.426941 273.471130,441.154938 268.450745,488.509308 
	C265.767700,513.816589 267.527802,538.977905 273.063873,564.682129 
z"/>
<path fill="#000000" opacity="1.000000" stroke="none" 
	d="
M699.524231,556.410828 
	C680.870239,628.323181 636.125366,675.021240 565.831055,697.165649 
	C543.701111,704.137024 520.693420,706.547485 497.721008,704.109436 
	C423.905701,696.275879 370.425201,658.835815 338.366455,591.681030 
	C324.292938,562.200684 319.358704,530.688232 321.860870,498.345978 
	C328.491180,412.645050 389.266602,345.311646 468.287415,326.954865 
	C528.383850,312.994263 583.553650,325.096741 632.098145,363.149780 
	C671.799805,394.271057 695.131287,435.553009 702.438599,485.636536 
	C705.884705,509.255829 705.239075,532.736328 699.524231,556.410828 
z"/>
</svg>