<?xml version="1.0" standalone="no"?>
<!DOCTYPE svg PUBLIC "-//W3C//DTD SVG 20010904//EN"
 "http://www.w3.org/TR/2001/REC-SVG-20010904/DTD/svg10.dtd">
<svg version="1.0" xmlns="http://www.w3.org/2000/svg"
 width="1024.000000pt" height="1024.000000pt" viewBox="0 0 1024.000000 1024.000000"
 preserveAspectRatio="xMidYMid meet">

<g transform="translate(0.000000,1024.000000) scale(0.100000,-0.100000)"
fill="#000000" stroke="none">
<path d="M4850 9784 c-343 -30 -521 -56 -718 -105 -569 -141 -1018 -428 -1338
-856 -119 -158 -195 -299 -388 -718 -192 -417 -213 -477 -202 -572 11 -97 43
-162 115 -234 88 -87 150 -113 277 -114 84 0 95 2 166 38 134 66 140 76 377
591 204 443 267 543 444 712 263 252 597 390 1087 451 210 26 767 26 925 0
237 -39 429 -103 568 -191 40 -24 178 -124 307 -221 153 -114 254 -183 290
-196 195 -75 412 11 496 196 68 149 42 311 -69 432 -43 48 -466 371 -585 447
-250 161 -572 269 -966 322 -106 15 -674 27 -786 18z"/>
<path d="M8058 8601 c-80 -26 -142 -64 -223 -140 -97 -90 -4229 -4196 -5621
-5586 -612 -611 -654 -654 -687 -722 -85 -174 -66 -370 51 -526 82 -108 200
-170 349 -184 119 -11 257 34 358 117 28 23 381 371 785 774 404 402 1469
1460 2365 2351 2813 2794 3135 3116 3176 3179 97 147 106 335 24 495 -57 113
-183 214 -309 247 -72 19 -199 17 -268 -5z"/>
<path d="M4895 8214 c-400 -56 -647 -174 -905 -433 -152 -152 -201 -224 -416
-597 -181 -317 -201 -366 -191 -484 8 -98 50 -182 127 -253 80 -74 147 -100
260 -100 115 0 181 26 264 103 53 50 81 93 200 302 187 327 236 400 321 484
88 87 216 155 337 179 131 26 234 20 629 -37 332 -47 373 -51 430 -42 171 30
296 152 329 321 32 165 -59 342 -215 414 -72 34 -103 40 -505 99 -233 35 -317
43 -460 45 -96 2 -188 1 -205 -1z"/>
<path d="M7655 6320 c-128 -32 -227 -125 -267 -252 -15 -50 -18 -94 -18 -261
0 -111 -5 -233 -10 -271 -29 -198 -173 -508 -410 -881 -35 -55 -162 -242 -284
-415 -526 -752 -861 -1339 -1146 -2010 -178 -417 -298 -620 -469 -791 -119
-118 -194 -163 -332 -198 -241 -61 -438 -31 -954 148 -351 121 -365 125 -464
119 -137 -8 -247 -81 -308 -206 -25 -51 -28 -68 -28 -157 0 -87 3 -107 27
-157 32 -70 99 -138 169 -173 70 -36 591 -216 749 -260 276 -76 508 -104 713
-86 230 21 402 68 587 161 141 71 231 139 371 279 247 248 418 530 639 1056
231 547 582 1165 997 1755 465 662 653 982 785 1340 100 267 125 454 110 800
-9 198 -18 235 -79 323 -74 107 -247 170 -378 137z"/>
</g>
</svg>
