<svg version="1.1" id="Layer_1" xmlns="http://www.w3.org/2000/svg" xmlns:xlink="http://www.w3.org/1999/xlink" x="0px" y="0px"
	 width="100%" viewBox="0 0 1024 1024" enable-background="new 0 0 1024 1024" xml:space="preserve">
<path fill="#000000" opacity="1.000000" stroke="none" 
	d="
M769.091431,694.030640 
	C783.847412,741.466980 798.500977,788.516663 813.146362,835.568848 
	C813.938293,838.113098 814.262939,840.891846 815.492920,843.193848 
	C818.961487,849.685181 816.395264,853.533325 811.075562,857.690674 
	C790.196350,874.007751 769.089722,889.999512 747.463013,905.315552 
	C743.819580,907.895813 741.137817,907.579102 737.672852,905.062622 
	C678.629089,862.181396 619.522156,819.387085 560.412415,776.596802 
	C546.648682,766.633057 532.745605,756.859497 519.082642,746.760254 
	C515.892151,744.401978 513.768982,745.363586 511.157104,747.295227 
	C489.726715,763.143616 468.280060,778.970154 446.795288,794.744751 
	C413.763367,818.997681 380.680542,843.181335 347.652649,867.439819 
	C331.541290,879.273254 315.515137,891.222595 299.430725,903.092834 
	C292.553162,908.168518 292.409210,908.042542 285.659363,903.099731 
	C263.599213,886.945557 242.737442,869.276550 221.270142,852.373779 
	C218.219833,849.972046 217.488312,847.594299 218.667847,843.771790 
	C230.890747,804.160034 242.966751,764.502930 255.010849,724.836243 
	C267.007721,685.325134 278.918427,645.787903 290.874878,606.264526 
	C292.753723,600.053772 294.362091,593.735840 296.680389,587.691833 
	C298.373352,583.278076 296.759583,581.001831 293.317627,578.629639 
	C272.329742,564.164734 251.421280,549.584412 230.512115,535.005615 
	C180.495911,500.131989 130.481354,465.255951 80.496071,430.338043 
	C69.260880,422.489594 69.300316,422.403748 73.117615,409.485199 
	C80.006859,386.170563 86.914444,362.861359 93.823471,339.552551 
	C96.124275,331.790405 96.137131,331.764008 104.483376,331.804138 
	C170.301575,332.120514 236.119629,332.473175 301.937958,332.761810 
	C325.768951,332.866333 349.601257,332.739899 373.431213,332.935364 
	C377.613434,332.969666 379.609894,331.656799 380.884644,327.562195 
	C394.048920,285.277222 407.399017,243.050110 420.710663,200.811050 
	C434.673004,156.507324 448.688385,112.220238 462.550323,67.885155 
	C463.711761,64.170616 465.773041,62.842388 469.413147,62.841976 
	C499.409576,62.838577 529.406250,62.822491 559.402100,62.670155 
	C563.181335,62.650963 564.212830,64.980713 565.123718,67.755302 
	C569.849487,82.149536 574.558167,96.549385 579.263000,110.950470 
	C592.033020,150.037979 604.838074,189.114090 617.552734,228.219589 
	C628.155884,260.830933 638.746033,293.447388 649.078552,326.144806 
	C650.434998,330.437286 652.354858,331.842407 656.749573,331.864319 
	C712.403992,332.142151 768.062073,332.286072 823.709656,333.106873 
	C858.367554,333.618073 893.020874,334.022400 927.678528,333.773102 
	C932.218445,333.740417 933.835388,335.923187 934.953491,339.606506 
	C940.658020,358.398560 946.369202,377.188965 952.199280,395.942261 
	C954.521729,403.412598 956.934204,410.871216 959.738647,418.168854 
	C961.220276,422.024292 960.359497,424.220398 957.064087,426.502472 
	C932.410522,443.575592 907.869080,460.810425 883.267273,477.958374 
	C855.798523,497.104645 828.294189,516.199768 800.822388,535.341614 
	C779.908508,549.914062 759.046753,564.561462 738.092102,579.074768 
	C735.262939,581.034241 734.077332,582.913818 735.210815,586.503174 
	C746.086060,620.942810 756.811768,655.429565 767.593262,689.898865 
	C767.990417,691.168518 768.519653,692.396912 769.091431,694.030640 
M496.273865,177.696945 
	C487.237122,206.266891 478.201996,234.837341 469.163269,263.406647 
	C455.705414,305.943817 442.798889,348.654449 428.810913,391.026825 
	C426.945923,396.676147 424.398682,398.361267 418.617554,398.304657 
	C362.131500,397.751648 305.640869,398.439209 249.151962,397.485077 
	C217.663101,396.953217 186.160049,397.252411 154.663345,397.214905 
	C153.091476,397.213043 151.320663,396.603607 149.963654,398.120605 
	C150.294250,400.298004 152.238831,400.896667 153.660263,401.891724 
	C173.311996,415.648346 193.003799,429.347687 212.667526,443.087219 
	C240.115463,462.265869 267.494843,481.543091 295.002930,500.634949 
	C320.046051,518.015991 345.307343,535.081543 370.024994,552.932434 
	C372.925201,555.026917 373.905487,556.944946 372.753021,560.396973 
	C371.069336,565.440369 369.918396,570.658752 368.377930,575.753418 
	C356.283417,615.752258 344.184814,655.749939 332.019226,695.727173 
	C319.566437,736.648254 307.022522,777.541504 294.580597,818.465881 
	C293.956360,820.519165 292.480530,822.664490 293.873566,824.936584 
	C295.876801,825.119690 296.812836,823.750244 297.972321,822.901550 
	C313.162323,811.782715 328.331573,800.635498 343.497650,789.484192 
	C369.263123,770.539307 395.008636,751.567383 420.788300,732.641968 
	C450.332214,710.953003 479.975159,689.397705 509.385834,667.529785 
	C513.685486,664.332886 516.575562,664.624390 520.675354,667.608398 
	C549.497070,688.586060 578.503601,709.309631 607.388306,730.201233 
	C650.853271,761.638428 694.264404,793.149963 737.718628,824.601929 
	C738.690918,825.305603 739.584595,826.623840 741.170776,825.835999 
	C741.616577,824.222900 740.787598,822.872559 740.356384,821.486511 
	C730.859619,790.960693 721.354126,760.437561 711.806580,729.927612 
	C700.571838,694.025879 689.262329,658.147583 678.050415,622.238770 
	C671.699951,601.899902 665.471008,581.523071 659.212463,561.155579 
	C658.326782,558.273438 657.606934,555.835205 661.051453,553.438782 
	C694.966980,529.843079 728.689453,505.970245 762.560913,482.310852 
	C800.120789,456.075012 837.784363,429.987793 875.374573,403.795349 
	C876.925476,402.714752 878.896667,401.952209 879.612549,399.886017 
	C878.426575,398.733704 877.026672,399.144531 875.762329,399.130402 
	C860.436279,398.959229 845.113037,398.787933 829.786560,398.459991 
	C792.472412,397.661682 755.142090,398.494904 717.819946,397.415222 
	C681.515930,396.365021 645.175598,397.906616 608.866150,396.290161 
	C605.123230,396.123566 603.187378,395.032928 602.068481,391.368469 
	C599.590332,383.252686 596.607971,375.292572 593.982300,367.219879 
	C580.440063,325.584625 566.935730,283.937042 553.437439,242.287506 
	C541.475586,205.378418 529.553711,168.456329 517.557373,131.558472 
	C516.776917,129.157944 516.454224,126.362267 513.032104,124.200600 
	C507.400085,142.118988 501.930603,159.520248 496.273865,177.696945 
z"/>
<path fill="#000000" opacity="1.000000" stroke="none" 
	d="
M777.941956,217.913254 
	C764.073792,234.982513 750.416870,251.766861 736.836975,268.613312 
	C734.929077,270.980042 732.867798,272.343628 729.675537,272.301849 
	C719.517822,272.168884 709.355896,272.162170 699.198547,272.310059 
	C696.226624,272.353302 694.636902,271.338135 693.728027,268.498322 
	C690.942200,259.793945 688.046265,251.122849 685.043579,242.490814 
	C683.954834,239.360855 685.063660,237.131653 686.979492,234.781204 
	C709.492004,207.161194 731.949036,179.495941 754.421021,151.842896 
	C759.986816,144.993866 765.552734,138.144867 771.120972,131.297729 
	C776.267578,124.969009 782.172241,119.700546 790.454102,117.950562 
	C802.790588,115.343819 812.989929,119.379662 820.512573,129.080414 
	C827.968140,138.694611 829.104614,149.551529 823.339966,160.488998 
	C818.492676,169.685654 810.947266,176.950012 804.574890,185.046677 
	C795.927856,196.033463 786.990479,206.791779 777.941956,217.913254 
z"/>
<path fill="#000000" opacity="1.000000" stroke="none" 
	d="
M265.852112,129.140198 
	C278.010620,144.189682 288.580627,159.969940 299.784790,175.283127 
	C314.235687,195.033752 328.414154,214.983566 342.835693,234.755875 
	C344.810822,237.463791 345.235870,239.799118 344.142426,243.004410 
	C341.193268,251.649475 338.495850,260.387024 335.965302,269.164764 
	C335.069305,272.272705 333.559296,273.404907 330.337494,273.340759 
	C321.015930,273.155060 311.684692,273.096069 302.365417,273.322388 
	C298.444855,273.417603 295.887146,272.102325 293.605255,268.918243 
	C275.178864,243.206406 256.607666,217.598389 238.102646,191.942856 
	C231.870193,183.302124 225.252899,174.897217 219.596695,165.891388 
	C208.057068,147.518021 217.141006,125.587746 238.209747,120.498329 
	C248.825638,117.933929 257.852142,121.575775 265.852112,129.140198 
z"/>
<path fill="#000000" opacity="1.000000" stroke="none" 
	d="
M219.588501,635.364441 
	C218.362396,642.359863 214.373978,645.591370 208.003036,647.802979 
	C174.061615,659.585144 140.270630,671.802612 106.467743,683.980835 
	C97.303436,687.282532 88.160698,689.279724 78.845612,684.959534 
	C67.304993,679.607178 61.075615,670.178223 61.034286,657.717468 
	C60.994385,645.683594 66.627350,635.808838 78.016624,631.099365 
	C93.373901,624.749146 109.162468,619.433960 124.806564,613.787109 
	C147.965134,605.427673 171.187103,597.242981 194.311996,588.792114 
	C198.340652,587.319946 201.427811,587.610535 204.892944,590.250916 
	C211.238373,595.085876 217.854568,599.582031 224.521408,603.971069 
	C227.434174,605.888611 227.836700,607.870850 226.793884,611.078979 
	C224.225693,618.979614 222.048264,627.007263 219.588501,635.364441 
z"/>
<path fill="#000000" opacity="1.000000" stroke="none" 
	d="
M962.078125,636.103882 
	C968.409607,648.399109 967.157288,659.809082 958.590393,669.911987 
	C949.786072,680.294739 938.270386,682.763062 925.524902,678.528503 
	C890.154663,666.776794 854.852600,654.820129 819.504089,643.002686 
	C816.755615,642.083862 815.020020,640.637329 814.144897,637.742249 
	C811.404480,628.676819 808.545471,619.642822 805.490051,610.679321 
	C804.399292,607.479187 804.872681,605.461121 807.795288,603.548706 
	C815.873779,598.262573 823.821777,592.773804 831.746094,587.257141 
	C834.180298,585.562561 836.467163,585.427856 839.246643,586.373291 
	C874.226196,598.270386 909.235657,610.079773 944.236572,621.914124 
	C951.753662,624.455750 957.906616,628.740601 962.078125,636.103882 
z"/>
<path fill="#000000" opacity="1.000000" stroke="none" 
	d="
M486.179474,942.248901 
	C485.935730,930.171387 485.736511,918.516235 485.701569,906.860535 
	C485.640594,886.535339 485.771881,866.208984 485.596497,845.885132 
	C485.564056,842.125916 486.790100,839.681458 489.767212,837.521667 
	C497.040466,832.244873 504.174713,826.773376 511.287842,821.280457 
	C513.978455,819.202759 516.110291,818.929504 519.240234,821.032776 
	C527.267273,826.426941 534.869385,832.378540 542.714417,838.005310 
	C544.688293,839.420898 545.358398,841.175415 545.354980,843.538025 
	C545.309082,875.356995 545.481750,907.177246 545.240601,938.994446 
	C545.143127,951.847351 534.053467,963.841187 521.220154,966.033386 
	C506.796783,968.497192 492.729279,960.686279 487.784454,947.436829 
	C487.203461,945.880066 486.789398,944.261108 486.179474,942.248901 
z"/>
</svg>