<svg version="1.1" id="Layer_1" xmlns="http://www.w3.org/2000/svg" xmlns:xlink="http://www.w3.org/1999/xlink" x="0px" y="0px"
	 width="100%" viewBox="0 0 1024 1024" enable-background="new 0 0 1024 1024" xml:space="preserve">
<path fill="#000000" opacity="1.000000" stroke="none" 
	d="
M238.707245,329.906799 
	C234.027420,330.725159 229.738968,331.307526 225.512863,332.188904 
	C221.345230,333.058105 219.919907,331.472351 219.634262,327.336212 
	C218.129532,305.549500 228.224991,290.340790 246.469467,279.891205 
	C249.956299,277.894073 251.659119,275.564789 252.867294,271.779602 
	C257.579834,257.015411 264.785736,243.254593 270.819611,229.017151 
	C272.506927,225.035828 274.393097,221.137970 276.043732,217.142197 
	C277.233429,214.262192 278.772400,213.308731 281.777802,214.964417 
	C290.379669,219.703232 299.168335,224.092331 308.286469,227.756104 
	C311.722137,229.136612 311.655731,231.030594 310.315094,233.995102 
	C303.803741,248.393265 297.465332,262.869568 291.042725,277.307983 
	C290.160980,279.290131 289.324005,281.225739 289.267029,283.477753 
	C289.016144,293.394958 284.441345,300.968414 276.284943,306.361847 
	C272.687317,308.740723 268.781067,310.648621 265.055328,312.838989 
	C260.900269,315.281769 257.382111,318.242340 257.283752,323.614807 
	C257.235840,326.233002 255.484238,326.878815 253.361084,327.247467 
	C248.611404,328.072296 243.870438,328.947296 238.707245,329.906799 
z"/>
<path fill="#000000" opacity="1.000000" stroke="none" 
	d="
M796.220459,367.130615 
	C793.778076,376.033997 791.462891,384.549988 789.133301,393.062042 
	C787.571899,398.767365 786.958557,399.134613 781.576904,396.966492 
	C773.360718,393.656281 764.971741,390.810699 756.199585,389.642578 
	C751.601929,389.030365 751.217834,387.244263 752.324219,383.354919 
	C757.653198,364.622650 762.586731,345.775482 768.116821,327.104248 
	C769.740295,321.622803 768.617920,318.494812 763.678101,315.810211 
	C757.981262,312.714081 752.590149,309.041656 747.149109,305.492432 
	C742.273010,302.311737 738.884094,297.947571 737.108459,292.554108 
	C738.570435,290.193878 740.799866,290.315430 742.646057,290.002014 
	C751.940369,288.424164 760.757141,285.465881 768.953247,280.862518 
	C772.740906,278.735168 776.005249,278.608063 779.571350,281.212006 
	C783.872620,284.352722 788.462769,287.097565 792.766846,290.234680 
	C806.020264,299.894806 810.071716,313.032776 806.373779,328.600983 
	C803.336487,341.387390 799.708008,354.033386 796.220459,367.130615 
z"/>
<path fill="#000000" opacity="1.000000" stroke="none" 
	d="
M297.465515,516.498962 
	C275.625153,509.760925 263.159943,494.892426 256.781219,473.746643 
	C251.108765,454.942200 245.468262,436.140137 240.274200,417.196320 
	C238.980759,412.478821 240.616852,411.249268 244.743317,410.844299 
	C253.350082,409.999573 261.953766,409.092987 270.532410,408.004517 
	C275.139862,407.419983 277.420471,408.908234 278.620087,413.676025 
	C283.046143,431.267151 288.293915,448.628021 294.181244,465.797852 
	C296.836639,473.542053 301.027954,479.079590 309.969635,479.311646 
	C310.783661,479.332764 311.596405,479.652557 312.397675,479.876740 
	C323.112732,482.874207 324.032013,485.383942 317.527985,493.925903 
	C312.384308,500.681305 307.242310,507.438202 302.055756,514.160583 
	C301.002655,515.525513 300.255066,517.595215 297.465515,516.498962 
z"/>
<path fill="#000000" opacity="1.000000" stroke="none" 
	d="
M837.803833,763.996094 
	C855.851501,771.476379 873.540466,778.799011 891.223206,786.136719 
	C896.788818,788.446289 896.899231,788.834839 893.858032,794.016785 
	C892.762573,795.883301 891.471252,797.678528 890.671509,799.667969 
	C883.581055,817.304993 869.522095,828.638855 854.898499,839.491455 
	C851.557373,841.971008 848.310730,844.578064 845.020691,847.126587 
	C843.430969,848.357971 841.735168,849.175110 840.326416,847.044800 
	C834.701660,838.539368 827.221985,831.539307 821.203796,823.342957 
	C818.912659,820.222595 819.636108,818.542725 822.478638,816.481689 
	C827.173401,813.077576 831.616516,809.326294 837.112976,804.970581 
	C831.653687,802.592529 827.085083,800.432495 822.384277,798.614075 
	C819.208801,797.385620 818.425232,796.007690 820.011902,792.669128 
	C824.008972,784.258240 826.519165,775.220398 830.635803,766.823792 
	C832.230225,763.571655 833.850769,761.841064 837.803833,763.996094 
z"/>
<path fill="#000000" opacity="1.000000" stroke="none" 
	d="
M303.548035,905.640747 
	C305.630341,900.679260 307.689026,896.119324 309.477112,891.455627 
	C310.600586,888.525391 312.059082,888.108215 314.788849,889.570312 
	C339.939575,903.041382 365.623230,915.314453 392.998077,923.687256 
	C395.996429,924.604309 396.998871,926.161133 395.896576,929.252502 
	C392.596313,938.508301 389.368134,947.791565 386.264343,957.114929 
	C384.878235,961.278564 382.178589,960.044128 379.444580,959.161804 
	C354.486267,951.107361 330.536133,940.655945 307.228302,928.695557 
	C296.167664,923.019836 296.197906,922.964539 301.085175,911.526123 
	C301.870544,909.688049 302.635529,907.841248 303.548035,905.640747 
z"/>
<path fill="#000000" opacity="1.000000" stroke="none" 
	d="
M660.201477,732.843628 
	C648.415466,730.956299 642.136902,723.592834 638.732666,713.218811 
	C635.071838,702.063171 634.348145,690.401611 632.985046,678.850037 
	C631.894775,669.611206 631.209656,660.322083 629.296692,651.184692 
	C627.521057,642.703979 629.215942,634.679260 632.871460,626.948181 
	C633.977356,624.609375 635.285706,624.245483 637.595703,625.439758 
	C646.312622,629.945923 655.112488,634.291443 663.875183,638.709229 
	C665.659790,639.609009 667.335510,640.393250 667.318481,643.004822 
	C667.254395,652.849487 669.847412,662.417358 670.577209,672.192139 
	C670.997864,677.825562 671.552734,683.459351 672.348022,689.050232 
	C672.781067,692.094543 672.712036,695.390381 675.299500,697.829102 
	C676.740356,699.187195 675.955688,700.947327 675.519348,702.536621 
	C673.186401,711.033936 670.641968,719.479492 668.570862,728.039856 
	C667.444153,732.697021 665.353821,734.724609 660.201477,732.843628 
z"/>
<path fill="#000000" opacity="1.000000" stroke="none" 
	d="
M611.281616,61.612991 
	C633.637756,71.238106 653.554382,84.113396 672.348511,98.861267 
	C675.636536,101.441406 676.167603,103.404526 673.396240,106.954285 
	C667.772339,114.157578 662.561462,121.699257 657.473694,129.297867 
	C655.204773,132.686646 653.492004,132.737717 650.429443,130.197830 
	C629.901794,113.173386 607.537537,99.295181 581.906677,91.234222 
	C578.652954,90.210915 577.835327,88.729889 578.986511,85.378067 
	C582.063477,76.419479 584.909302,67.374939 587.572388,58.284100 
	C588.596863,54.787075 590.170227,53.572006 593.667236,54.947498 
	C599.390137,57.198505 605.168640,59.308395 611.281616,61.612991 
z"/>
<path fill="#000000" opacity="1.000000" stroke="none" 
	d="
M612.610474,966.687317 
	C601.331421,969.402588 603.261780,970.261353 599.392273,959.442627 
	C596.718018,951.965637 595.604614,944.331055 595.552979,936.433167 
	C595.531860,933.197632 596.746155,931.588440 599.848938,930.826294 
	C624.616699,924.743103 648.823792,916.940674 672.211365,906.723145 
	C675.513489,905.280457 677.463013,906.040771 679.118347,909.081726 
	C683.676514,917.455139 686.899048,926.359253 689.980347,935.339966 
	C691.161438,938.782410 689.933228,940.504272 686.750366,941.832031 
	C662.754700,951.842041 638.230591,960.252258 612.610474,966.687317 
z"/>
<path fill="#000000" opacity="1.000000" stroke="none" 
	d="
M540.905518,973.428284 
	C541.931946,977.593018 540.203857,978.914978 536.616455,979.165833 
	C508.780884,981.111450 481.064484,980.037537 453.411865,976.381592 
	C449.573700,975.874084 448.262878,974.463074 448.650452,970.623413 
	C449.619171,961.026611 450.323303,951.402649 451.087555,941.785889 
	C451.353638,938.437378 453.139893,937.750549 456.202911,938.226929 
	C478.813232,941.743469 501.581329,942.384338 524.410950,941.765869 
	C533.662292,941.515259 533.513794,941.547485 535.437744,950.681458 
	C537.015015,958.169495 539.000977,965.571411 540.905518,973.428284 
z"/>
<path fill="#000000" opacity="1.000000" stroke="none" 
	d="
M519.391113,45.799465 
	C521.858887,46.709850 521.627258,48.423347 521.470398,50.104218 
	C520.557678,59.885654 519.320435,69.646324 519.308044,79.489403 
	C519.304077,82.633446 517.563660,83.336655 514.870300,83.518730 
	C498.759460,84.607903 482.675446,85.946304 466.803650,89.122749 
	C459.613312,90.561768 452.451508,92.131096 445.493866,94.445038 
	C442.114594,95.568901 440.307922,94.856712 439.095520,91.341423 
	C436.053040,82.519569 432.573608,73.841637 428.196442,65.592499 
	C426.048950,61.545464 427.475861,60.057396 431.317810,58.869759 
	C449.368134,53.289909 467.818481,49.789345 486.577362,47.767159 
	C497.341797,46.606766 508.111420,45.576046 519.391113,45.799465 
z"/>
<path fill="#000000" opacity="1.000000" stroke="none" 
	d="
M717.764648,213.218353 
	C712.473938,201.264069 706.478027,190.129456 698.631958,180.118973 
	C696.074219,176.855637 696.397461,174.950089 699.672302,172.461746 
	C706.987732,166.903336 712.920959,159.852814 719.239319,153.235596 
	C721.953552,150.392914 723.873718,150.459946 726.376099,153.724762 
	C741.626953,173.622040 753.210266,195.365189 760.169617,219.504440 
	C761.972168,225.756790 761.638184,226.388962 755.158447,228.060471 
	C746.779419,230.221909 738.323608,232.113159 730.023254,234.539566 
	C726.234192,235.647202 724.879272,234.305649 724.056824,230.971603 
	C722.578247,224.978119 720.250183,219.268280 717.764648,213.218353 
z"/>
<path fill="#000000" opacity="1.000000" stroke="none" 
	d="
M193.899811,830.933472 
	C197.194656,826.294067 200.336060,821.983826 203.366608,817.596985 
	C205.897079,813.934021 208.574783,813.411804 212.019257,816.521606 
	C227.126389,830.161255 243.187531,842.617188 259.687347,854.510437 
	C262.123016,856.266052 262.950562,857.832397 261.178772,860.668762 
	C255.968857,869.009216 251.170334,877.597656 247.068649,886.542847 
	C245.497955,889.968262 243.716141,889.972046 240.933044,887.905884 
	C223.000092,874.592224 205.279602,861.019287 188.380219,846.392883 
	C185.580841,843.970093 185.495041,842.002380 187.785141,839.286499 
	C189.927734,836.745422 191.740448,833.926208 193.899811,830.933472 
z"/>
<path fill="#000000" opacity="1.000000" stroke="none" 
	d="
M365.431732,140.436584 
	C356.300079,150.433029 348.707336,161.139313 341.947632,172.424728 
	C339.760986,176.075363 337.893066,176.443985 334.644653,173.606430 
	C327.368195,167.250259 319.678558,161.409805 310.712555,157.549866 
	C307.869995,156.326141 308.078430,154.718307 309.492523,152.473846 
	C321.961365,132.682693 336.110687,114.316704 353.849670,98.859734 
	C357.560150,95.626602 359.688965,95.983360 362.488312,99.885010 
	C367.815430,107.309738 373.499390,114.485657 379.217682,121.618546 
	C381.208618,124.101974 381.142487,125.717133 378.713593,127.851463 
	C374.223297,131.797211 370.007629,136.055496 365.431732,140.436584 
z"/>
<path fill="#000000" opacity="1.000000" stroke="none" 
	d="
M730.928223,877.880066 
	C746.357605,868.942749 761.316650,859.929504 775.825989,850.206116 
	C779.110840,848.004761 781.169250,848.124084 783.765198,851.213440 
	C789.652039,858.219177 795.558838,865.167480 800.623474,872.832214 
	C802.726501,876.014893 802.798157,877.824890 799.461731,880.068787 
	C781.646301,892.050415 763.397766,903.300232 744.569214,913.625122 
	C741.337402,915.397217 739.932617,914.599426 738.573547,911.450684 
	C735.082520,903.362610 731.423157,895.343384 727.653564,887.380615 
	C724.769470,881.288391 724.648926,881.345459 730.928223,877.880066 
z"/>
<path fill="#000000" opacity="1.000000" stroke="none" 
	d="
M714.231323,474.879639 
	C724.086365,475.141022 728.536072,470.174072 730.024780,461.187317 
	C730.831848,456.314697 732.988159,451.677002 734.350586,446.880707 
	C735.161072,444.027679 736.358337,442.872345 739.312744,444.486725 
	C747.668823,449.052795 756.608826,452.258575 765.591309,455.299408 
	C769.276367,456.546875 770.696777,458.246948 769.286377,462.265228 
	C766.478821,470.263458 764.174927,478.437225 761.435669,486.460846 
	C756.772461,500.119720 746.518982,507.157898 732.895752,510.050751 
	C730.057495,510.653473 727.722412,509.622681 725.467407,507.983948 
	C716.961609,501.802673 709.263123,494.693939 701.600891,487.529572 
	C699.302368,485.380432 699.682007,483.615601 701.715515,481.661743 
	C705.164856,478.347412 709.324341,476.351776 714.231323,474.879639 
z"/>
<path fill="#000000" opacity="1.000000" stroke="none" 
	d="
M356.018341,554.078613 
	C363.156586,570.061462 370.134644,585.700439 377.150543,601.322449 
	C379.617157,606.814819 379.507935,607.212952 373.869843,609.042908 
	C365.329865,611.814636 356.735962,614.426270 348.241913,617.330750 
	C344.939270,618.460022 342.972992,617.873108 341.528076,614.568970 
	C334.133331,597.658875 326.650848,580.786804 319.113770,563.939636 
	C317.923248,561.278503 318.333099,559.636230 321.041351,558.357117 
	C330.062317,554.096619 339.045746,549.755432 348.005554,545.367554 
	C350.540131,544.126282 352.087158,544.816956 353.110077,547.314880 
	C353.992065,549.468567 354.949158,551.591553 356.018341,554.078613 
z"/>
<path fill="#000000" opacity="1.000000" stroke="none" 
	d="
M729.353455,759.735840 
	C724.368713,757.714478 719.759216,755.783081 715.095032,753.994263 
	C712.234009,752.897034 711.138123,751.257385 712.449036,748.233826 
	C716.423767,739.066467 720.329041,729.868774 724.225708,720.667847 
	C725.195862,718.376953 726.642456,717.776917 728.975769,718.746216 
	C746.047119,725.838318 763.135132,732.890259 780.228455,739.929260 
	C782.929993,741.041687 783.584473,742.709595 782.421021,745.452942 
	C778.694031,754.240906 776.581543,763.478027 775.017578,772.866638 
	C774.164429,777.988098 773.354553,778.318665 768.366577,776.209778 
	C755.482239,770.762329 742.592957,765.326477 729.353455,759.735840 
z"/>
<path fill="#000000" opacity="1.000000" stroke="none" 
	d="
M394.234192,710.994995 
	C393.147034,720.800110 388.819733,728.059204 380.612610,732.961304 
	C377.644135,734.734375 375.802399,734.288391 374.325256,731.105103 
	C370.176849,722.165283 365.178802,713.695984 359.384033,705.731873 
	C356.821686,702.210205 357.571106,698.374023 357.810822,694.643799 
	C358.419281,685.175781 359.525085,675.737488 360.033722,666.265930 
	C360.317871,660.974915 362.764404,658.904358 367.831787,658.928589 
	C376.495605,658.970032 385.163055,658.920410 393.823456,658.695251 
	C397.661896,658.595459 398.782349,660.192139 398.439453,663.825684 
	C396.970154,679.395935 395.641724,694.979492 394.234192,710.994995 
z"/>
<path fill="#000000" opacity="1.000000" stroke="none" 
	d="
M322.112061,757.168518 
	C306.173981,763.573730 290.555511,769.737183 275.043732,776.158264 
	C270.981140,777.840027 268.842682,777.425537 267.143707,772.962891 
	C263.952576,764.580872 260.253113,756.383789 256.528839,748.217529 
	C254.975464,744.811523 255.160919,742.994141 259.092438,741.481750 
	C276.002777,734.976807 292.825623,728.239624 309.602448,721.396179 
	C313.156860,719.946289 314.647461,720.781067 315.720978,724.337769 
	C318.457977,733.405823 321.438538,742.401855 324.433014,751.389648 
	C325.274200,753.914490 325.456757,755.952454 322.112061,757.168518 
z"/>
<path fill="#000000" opacity="1.000000" stroke="none" 
	d="
M145.208710,789.862549 
	C145.559586,788.986755 145.835358,788.250793 146.348877,787.998352 
	C165.326828,778.666870 184.668243,770.177063 204.580170,763.021423 
	C206.274399,762.412598 208.352921,761.240601 209.088684,763.976501 
	C212.035522,774.934021 216.874344,785.180908 220.790451,795.772461 
	C220.838974,795.903687 220.728516,796.093750 220.632050,796.526550 
	C217.242920,798.835510 212.902145,798.799255 209.038071,800.186462 
	C195.578812,805.018250 181.984726,809.476196 168.546951,814.365051 
	C164.134445,815.970337 161.237946,815.607605 158.481689,811.364441 
	C153.950439,804.388611 148.911087,797.744629 145.208710,789.862549 
z"/>
<path fill="#000000" opacity="1.000000" stroke="none" 
	d="
M699.176636,573.089355 
	C696.914246,577.958557 694.834839,582.500183 692.671448,587.001404 
	C691.795898,588.823120 690.780701,590.935669 688.205505,589.545959 
	C679.528809,584.863403 669.682861,583.025940 661.050659,578.203796 
	C657.428345,576.180359 656.676270,574.197510 658.573120,570.247070 
	C666.138794,554.490845 673.411133,538.591675 680.616089,522.665710 
	C682.285278,518.976074 683.831848,517.698059 687.580994,520.451843 
	C695.491577,526.262390 703.597412,531.811279 711.712036,537.337158 
	C714.496582,539.233398 714.022705,541.255737 712.829712,543.775146 
	C708.270447,553.404480 703.818115,563.084534 699.176636,573.089355 
z"/>
</svg>