<?xml version="1.0" standalone="no"?>
<!DOCTYPE svg PUBLIC "-//W3C//DTD SVG 20010904//EN"
 "http://www.w3.org/TR/2001/REC-SVG-20010904/DTD/svg10.dtd">
<svg version="1.0" xmlns="http://www.w3.org/2000/svg"
 width="1024.000000pt" height="1024.000000pt" viewBox="0 0 1024.000000 1024.000000"
 preserveAspectRatio="xMidYMid meet">

<g transform="translate(0.000000,1024.000000) scale(0.100000,-0.100000)"
fill="#000000" stroke="none">
<path d="M5600 9750 c-311 -54 -565 -123 -820 -223 -1014 -397 -1633 -1199
-1824 -2365 -53 -323 -61 -435 -61 -902 0 -508 17 -745 91 -1245 25 -166 89
-533 100 -567 10 -32 -21 -20 -105 40 -282 202 -510 482 -695 853 -212 426
-296 795 -296 1310 0 156 13 382 26 458 3 20 1 32 -5 30 -30 -11 -260 -327
-364 -499 -320 -533 -498 -1056 -574 -1690 -24 -202 -24 -656 1 -865 37 -322
89 -556 191 -860 300 -903 917 -1680 1726 -2172 273 -167 536 -289 834 -388
458 -153 805 -209 1295 -209 491 0 845 57 1310 213 879 294 1648 903 2142
1695 99 157 267 488 327 641 136 346 220 686 268 1075 25 203 25 677 0 880
-47 382 -131 722 -263 1063 -53 138 -212 454 -303 606 -225 372 -526 724 -863
1006 -56 46 -103 83 -105 81 -2 -2 2 -59 8 -127 14 -153 6 -499 -16 -659 -43
-314 -152 -653 -274 -847 -14 -24 -31 -43 -37 -43 -6 0 -19 -9 -30 -21 -26
-29 -68 -49 -102 -49 -152 0 -430 108 -633 246 -481 326 -741 735 -846 1329
-25 145 -26 678 0 848 41 273 138 488 343 762 108 145 257 307 393 429 61 54
111 102 111 105 0 3 -78 24 -173 46 -170 39 -175 40 -392 42 -204 2 -232 0
-385 -27z m-520 -1081 c-78 -237 -137 -511 -159 -743 -16 -166 -14 -544 4
-683 18 -134 28 -178 119 -543 112 -443 209 -715 376 -1055 282 -572 592 -872
1095 -1060 268 -100 573 -132 770 -80 99 26 217 91 290 158 194 177 392 613
395 867 1 67 41 271 54 271 23 1 168 -394 212 -581 70 -292 104 -667 86 -933
-23 -334 -73 -591 -167 -865 -132 -383 -301 -692 -544 -995 -182 -226 -342
-381 -581 -562 -463 -351 -1020 -568 -1615 -631 -192 -20 -563 -15 -745 10
-464 64 -941 236 -1305 470 -562 362 -989 862 -1245 1460 -136 316 -214 618
-251 971 -14 136 -15 517 -1 585 l9 45 30 -65 c75 -163 216 -384 343 -538 220
-268 510 -501 833 -667 284 -146 589 -210 1065 -222 l232 -6 -27 69 c-60 155
-245 719 -302 922 -342 1222 -387 2150 -140 2907 164 501 601 1110 1096 1526
54 45 99 77 100 72 2 -5 -10 -52 -27 -104z"/>
</g>
</svg>
