<svg version="1.1" id="Layer_1" xmlns="http://www.w3.org/2000/svg" xmlns:xlink="http://www.w3.org/1999/xlink" x="0px" y="0px"
	 width="100%" viewBox="0 0 1024 1024" enable-background="new 0 0 1024 1024" xml:space="preserve">
<path fill="#000000" opacity="1.000000" stroke="none" 
	d="
M694.691528,790.400757 
	C695.640686,801.016296 698.715271,810.744080 700.790588,820.671631 
	C701.785583,825.431641 704.484985,829.149658 708.239563,832.185059 
	C730.464600,850.153015 751.298828,869.458679 767.466003,893.314697 
	C770.864990,898.330200 775.901062,900.126465 781.875854,899.180786 
	C783.324280,898.951538 784.736938,898.309692 787.889099,899.351379 
	C755.532288,919.972168 723.226013,937.999634 688.402283,951.234558 
	C653.473938,964.509155 617.597229,974.104370 580.084351,978.828186 
	C580.041382,973.910034 582.507935,970.812500 584.324890,967.603271 
	C588.098206,960.938721 592.052368,954.357483 596.287659,947.978149 
	C602.168457,939.120483 611.315918,933.948914 619.838440,928.168152 
	C625.633789,924.237244 631.906372,921.109375 638.422485,918.476929 
	C640.406616,917.675171 642.352783,916.589294 644.039673,915.277649 
	C649.096130,911.346436 650.641724,905.078491 648.116394,899.625977 
	C645.750366,894.517334 639.946655,891.406616 633.954041,892.659729 
	C624.007019,894.739868 615.459473,900.056396 606.903564,905.215698 
	C602.357483,907.957092 597.996399,911.005371 593.781555,913.764709 
	C592.526184,913.553467 591.967590,912.988770 591.551636,912.218811 
	C575.718384,882.913208 554.295837,857.902466 531.520447,833.909241 
	C517.858337,819.516663 503.569153,805.773560 488.831207,792.506531 
	C485.324432,789.349670 484.300049,786.584106 485.406403,781.765808 
	C489.547607,763.731445 490.994629,745.280640 492.711823,726.891541 
	C493.175995,721.920532 493.659546,716.935181 493.753448,711.949219 
	C493.920074,703.101501 489.202271,697.386963 481.766174,696.992188 
	C474.123352,696.586426 468.356049,701.919739 467.462463,710.575623 
	C466.574127,719.181274 466.118103,727.832031 465.202209,736.434204 
	C463.757233,750.005798 462.511932,763.609497 459.456818,776.963196 
	C458.794403,779.858459 457.417847,781.723389 454.599457,782.700012 
	C429.265747,791.478882 404.104736,800.776550 378.276520,808.064209 
	C376.036469,808.696228 373.663086,808.889343 371.462585,809.620422 
	C367.047302,811.087158 364.013062,809.578857 360.936279,806.246948 
	C344.954895,788.940796 327.568237,773.175781 308.242523,759.640076 
	C301.003662,754.570068 293.449951,750.001404 285.447845,746.202393 
	C284.140564,745.581787 282.554199,745.249878 281.884460,743.607544 
	C282.369049,741.479309 284.386078,741.608521 285.826141,741.227905 
	C311.157806,734.532593 335.722961,725.617859 360.094299,716.074158 
	C364.829010,714.220093 367.117828,711.784546 368.043030,706.613403 
	C372.116638,683.844727 376.936279,661.209290 378.566406,638.060486 
	C378.936737,632.801819 378.509613,628.120728 375.715179,623.278564 
	C352.270874,582.654297 332.792053,540.119995 315.431885,496.587952 
	C315.185089,495.969086 314.860779,495.378784 314.644928,494.750305 
	C311.716339,486.224670 308.210754,479.042480 297.416992,477.546539 
	C290.710693,476.617065 285.789673,470.995697 281.324677,465.559082 
	C270.697479,452.619385 265.069611,437.488831 260.449432,421.690613 
	C250.961533,389.247894 240.441833,357.081787 234.438248,323.729462 
	C232.808136,314.673462 232.666855,305.472321 235.339539,296.494263 
	C239.100677,283.859833 247.420486,275.533569 259.994446,271.845673 
	C264.100616,270.641357 265.429382,268.627838 265.822296,264.552277 
	C269.830688,222.973602 283.232758,184.767502 306.876312,150.170059 
	C326.663361,121.215820 351.688934,97.909645 381.497681,79.633179 
	C395.184784,71.241295 409.895721,64.984444 424.819458,59.170044 
	C429.145630,57.484531 430.541718,60.329559 432.034210,63.159447 
	C439.266388,76.872330 445.644958,90.993469 451.761353,105.226753 
	C457.481689,118.538460 462.783569,132.031631 468.617798,145.291748 
	C470.307892,149.132996 469.560120,151.752426 467.172760,154.797379 
	C458.176544,166.271561 447.583618,176.186920 436.583313,185.602875 
	C430.010162,191.229309 426.641663,197.285751 426.874634,206.235794 
	C427.141296,216.480057 428.237030,226.480621 430.712952,236.363556 
	C431.404114,239.122284 431.068787,241.116882 428.479675,242.753418 
	C411.152191,253.705658 396.819733,268.144836 382.444824,282.524902 
	C377.127563,287.843994 377.147614,287.861206 372.488770,282.296539 
	C368.852051,277.952728 365.371124,273.464966 361.536255,269.303558 
	C354.826569,262.022644 345.595215,261.992310 339.379913,269.606415 
	C316.275299,297.910950 296.399353,328.159271 284.703583,363.139709 
	C282.009216,371.198212 279.703674,379.401184 279.011536,387.922974 
	C278.555908,393.532837 279.784851,398.592804 285.032166,401.779694 
	C292.845123,406.524841 302.035309,402.191071 304.470490,392.259186 
	C306.571899,383.688599 308.463043,375.085602 311.470490,366.759796 
	C320.278015,342.377045 333.772247,320.644775 349.065430,299.919861 
	C349.438080,299.414886 350.051605,299.087616 350.520081,298.704193 
	C353.043976,299.237823 354.039093,301.335663 355.424469,302.911743 
	C357.953461,305.788727 360.229828,308.893250 362.826508,311.704285 
	C371.014221,320.568024 382.436646,320.513672 390.821320,311.856323 
	C403.917267,298.334412 416.732727,284.512238 431.544891,272.775696 
	C432.589600,271.947906 433.696808,271.188812 434.675720,270.289734 
	C444.008850,261.717987 453.716339,260.423553 466.163086,264.773010 
	C495.388184,274.985535 525.075745,283.929871 555.720764,289.229980 
	C563.465881,290.569550 569.208252,288.606903 574.276062,282.639404 
	C583.683594,271.561859 594.205444,261.612518 606.109497,253.180557 
	C613.636475,247.849014 621.099854,246.291718 630.429871,249.543533 
	C657.503723,258.979675 684.796387,267.843781 709.978455,281.791016 
	C726.895264,291.160492 724.229431,287.540039 721.326660,304.931580 
	C718.390137,322.525543 713.476074,339.668854 709.107605,356.933075 
	C708.488831,359.378601 708.056091,361.806519 708.100281,364.326141 
	C708.218323,371.051758 711.584106,375.448120 717.876831,377.065369 
	C723.215454,378.437439 729.168213,375.702942 731.893616,370.046265 
	C736.043213,361.433899 737.522217,351.961304 739.982910,342.815735 
	C744.440979,326.247345 747.848755,309.464417 750.005005,292.424744 
	C752.084717,275.989716 751.552368,275.449280 737.116638,266.745514 
	C702.410889,245.820343 664.336914,233.149139 626.157166,220.652130 
	C617.858826,217.935928 610.724854,221.654526 603.631165,224.631149 
	C591.002014,229.930527 580.851685,238.933807 570.859436,248.048569 
	C569.752075,249.058701 568.710144,250.140762 567.642517,251.194199 
	C555.664368,263.013397 555.654297,263.054749 539.296875,258.942322 
	C513.120728,252.361404 487.467285,243.989304 461.635712,236.226471 
	C458.601654,235.314682 456.746826,233.677322 456.209229,230.482208 
	C455.215485,224.575943 453.965973,218.710190 453.082214,212.788864 
	C452.478729,208.745056 453.942932,205.475876 457.112549,202.624222 
	C468.514038,192.366577 479.631836,181.807648 488.991699,169.570450 
	C491.325165,166.519608 493.416779,163.320007 495.007141,159.803772 
	C497.816803,153.591766 498.251953,147.485794 495.470581,140.994751 
	C483.270294,112.522530 472.120544,83.591125 457.987732,55.969276 
	C455.356476,50.826630 455.559418,50.491978 461.490143,49.461704 
	C502.627502,42.315430 543.519592,43.043190 583.625427,55.209614 
	C636.714294,71.314522 679.701538,101.916824 711.987671,147.263016 
	C737.442627,183.014648 751.395752,222.924850 755.190857,266.498901 
	C755.458984,269.578064 756.870544,270.856079 759.597412,271.592346 
	C780.049255,277.114349 789.169189,294.485840 787.523621,314.467102 
	C785.459290,339.533264 777.287598,363.283203 770.577881,387.311829 
	C765.562866,405.271881 760.402954,423.198944 754.151733,440.791931 
	C750.451294,451.206268 743.925598,459.853485 737.208496,468.318542 
	C732.397888,474.380890 725.581055,477.836121 718.007690,479.168823 
	C713.885437,479.894226 711.760559,481.758118 710.204041,485.613556 
	C693.484985,527.024597 675.628967,567.923706 654.391418,607.264038 
	C653.319153,609.250366 652.769653,611.698914 649.812866,612.930664 
	C645.802002,609.009277 642.840942,603.913391 638.548035,600.031677 
	C637.262817,598.869629 638.424500,597.182739 638.929993,595.811279 
	C644.578186,580.488464 649.135437,564.821045 653.784973,549.179321 
	C656.078979,541.461853 655.122498,535.206360 649.613342,528.480957 
	C640.402039,517.235962 631.179565,506.133026 620.175232,496.598602 
	C618.289673,494.964874 617.924316,493.340271 619.191162,490.929749 
	C628.927673,472.402832 632.174072,452.240356 633.762573,431.694702 
	C634.198792,426.053131 634.636963,420.398407 634.696594,414.745728 
	C634.736572,410.953217 636.463684,409.803070 639.925903,409.889740 
	C648.610657,410.107239 657.219360,409.285370 665.771729,407.763672 
	C669.894897,407.030060 673.858032,405.857941 677.714355,404.218872 
	C690.354187,398.846497 692.800720,388.351715 691.309937,376.612518 
	C690.554565,370.664795 685.537292,367.565399 680.098145,365.586548 
	C659.239685,357.997864 638.056030,357.738037 616.641663,362.764435 
	C599.795288,366.718689 584.123901,373.570740 569.185974,382.182129 
	C564.634033,384.806244 562.047058,388.825256 562.507751,394.138763 
	C562.975525,399.535431 565.862732,403.402893 571.075867,405.420715 
	C576.820557,407.644226 582.938904,406.782562 588.847351,407.692841 
	C593.768921,408.451019 598.793518,408.581940 603.779663,408.863922 
	C606.677246,409.027771 608.555969,409.894562 608.434753,413.278564 
	C607.681091,434.319458 605.978027,455.173553 597.479553,474.845581 
	C595.811829,478.705963 593.373596,482.079681 591.324585,485.697113 
	C586.162109,494.811005 587.297363,502.428253 595.072510,509.439026 
	C604.355896,517.809814 613.629578,526.155396 621.707031,535.767334 
	C626.050354,540.935730 627.521362,546.068359 625.211731,552.740601 
	C620.096191,567.518921 616.168884,582.682861 609.468506,596.936462 
	C604.613525,607.264343 606.050110,612.436829 614.242371,620.598694 
	C617.799438,624.142578 621.632080,627.328125 625.873901,630.014648 
	C633.520325,634.857239 640.002563,634.246948 646.659912,628.090637 
	C647.255371,627.540100 647.929382,627.074524 648.427795,626.679688 
	C650.480713,626.980225 650.536804,628.560608 650.763672,629.753540 
	C656.080505,657.714783 662.871216,685.390442 667.100647,713.556702 
	C667.573242,716.704285 668.766296,718.294128 671.656067,719.201599 
	C677.853760,721.148010 683.917603,723.565247 690.184814,725.231079 
	C694.666565,726.422363 695.863647,728.692444 695.348877,733.131531 
	C693.928833,745.376587 693.036133,757.682251 693.375732,770.022461 
	C693.558777,776.673767 694.178040,783.312988 694.691528,790.400757 
M333.810181,373.571991 
	C329.980408,387.233337 334.474976,400.257751 347.865112,405.043976 
	C353.721954,407.137421 359.749207,408.264374 365.888275,408.882324 
	C390.044861,411.313934 414.134735,409.411713 438.200714,407.459869 
	C443.125732,407.060455 448.224182,407.431488 452.981873,405.429199 
	C458.042816,403.299316 461.240906,399.614777 461.588501,394.159912 
	C461.922150,388.923950 459.416595,384.934021 454.793488,382.262054 
	C445.110596,376.665741 435.106293,371.749664 424.573029,367.979126 
	C398.311279,358.578369 371.810760,355.689087 344.860077,365.169281 
	C340.484406,366.708496 336.697540,368.893219 333.810181,373.571991 
M446.483978,608.484985 
	C454.187408,609.846863 461.735321,607.894836 469.323883,607.263550 
	C494.258057,605.189148 519.173950,604.684265 544.077087,607.436584 
	C552.499451,608.367371 560.848816,609.975952 569.276062,610.841125 
	C575.950623,611.526489 580.233215,608.783203 582.020691,603.570862 
	C583.535889,599.152344 581.512878,594.406006 576.579041,590.739197 
	C574.843750,589.449524 572.760254,588.407776 571.488525,586.751526 
	C564.645935,577.840454 554.656311,575.423828 544.511658,573.147705 
	C521.773621,568.046082 498.881561,568.537231 476.002563,571.606201 
	C469.872620,572.428467 462.872528,571.873352 458.046539,576.634277 
	C453.294556,581.322205 448.149567,585.485352 443.178802,589.886536 
	C436.516235,595.785522 437.810394,603.913635 446.483978,608.484985 
z"/>
<path fill="#000000" opacity="1.000000" stroke="none" 
	d="
M293.580719,932.499817 
	C242.350708,906.980164 197.291611,873.659546 157.936417,832.679260 
	C149.412567,823.803528 141.804443,814.053345 133.638809,804.826050 
	C130.449524,801.222107 131.625214,799.204529 135.363098,797.169617 
	C147.544327,790.538086 160.410736,785.462769 173.290497,780.465027 
	C192.072128,773.177246 211.006409,766.283569 229.841721,759.132629 
	C233.180588,757.865051 236.112305,757.598083 239.216934,759.867676 
	C243.483154,762.986267 248.773956,762.322876 253.644943,763.193787 
	C272.997681,766.653931 288.701904,777.255005 303.737366,789.027405 
	C319.119232,801.070923 333.492798,814.316711 346.228363,829.086731 
	C353.911682,837.997437 362.644043,838.371338 372.818756,836.243469 
	C396.865540,831.214722 419.864655,822.801208 443.014038,814.862549 
	C449.314728,812.701904 455.569550,810.405090 461.819763,808.101257 
	C464.003387,807.296326 465.853210,807.143799 467.774811,808.921265 
	C502.920746,841.432556 537.430603,874.513672 562.913208,915.623291 
	C566.063843,920.706055 568.541809,926.202576 571.417297,931.460510 
	C572.766357,933.927368 572.566711,936.083313 571.061829,938.457642 
	C563.024536,951.138489 555.433655,964.058044 550.899597,978.505493 
	C550.254700,980.560425 548.906555,981.354797 546.790405,981.349243 
	C518.301270,981.274597 489.709473,982.741882 461.348511,980.810486 
	C425.069794,978.339905 389.718658,969.731750 355.161743,958.216492 
	C334.113739,951.202820 313.677185,942.748779 293.580719,932.499817 
z"/>
<path fill="#000000" opacity="1.000000" stroke="none" 
	d="
M740.563965,743.366943 
	C791.036621,764.912476 843.433411,779.836609 894.473755,796.479187 
	C895.326904,799.728210 893.763733,800.773376 892.771484,802.015503 
	C875.790466,823.273132 857.448669,843.234985 836.727783,860.943054 
	C834.111206,863.179077 831.449585,864.909668 827.863037,864.930176 
	C814.451782,865.006958 801.380859,867.563599 788.412231,870.657654 
	C785.536316,871.343811 783.812378,870.693115 782.025452,868.386536 
	C767.368774,849.466614 750.148071,833.014038 732.133362,817.386536 
	C727.897949,813.712280 725.123169,809.612122 723.823792,804.204712 
	C718.771057,783.177734 719.170166,761.929443 720.940735,740.605103 
	C721.211731,737.341614 722.832886,736.742249 725.682373,737.841858 
	C730.498352,739.700378 735.362366,741.434448 740.563965,743.366943 
z"/>
</svg>