<?xml version="1.0" encoding="UTF-8"?>
<svg version="1.1" viewBox="0 0 1024 1024" width="1280" height="1280" xmlns="http://www.w3.org/2000/svg">
<path transform="translate(506)" d="m0 0h14l10 2 12 5 8 6 7 7 6 10 11 25 10 26 16 34 14 32 13 28 10 21 10 22 8 16 24 49 8 16 13 27 10 19 24 48 10 19 11 22 12 22 15 29 5 10 11 17 9 16 12 25 8 19 9 27 5 21 3 19 2 19v61l-4 33-6 26-11 32-9 20-13 27-18 27-9 12-9 11-11 12-23 23-11 9-19 14-18 12-23 12-26 12-31 11-24 6-19 3-19 2h-63l-33-4-25-6-27-9-21-9-31-15-14-9-17-12-12-9-10-9-8-7-6-6v-2l-4-2-13-13-9-11-9-12-10-14-12-19-15-31-10-25-8-25-5-23-3-24-1-16v-44l2-25 3-23 7-26 9-26 14-31 4-12 13-25 11-19 18-36 12-21 9-17 8-16 20-38 8-16 13-24 8-16 9-17 65-130 15-33 16-33 10-27 8-21 6-11 14-14 14-7 6-2z"/>
<path transform="translate(495,431)" d="m0 0h35l27 4 21 6 15 6 19 9 17 11 11 9 10 9 11 11 10 13 11 18 9 19 6 20 4 23v30l-4 23-6 20-11 23-12 18-12 14-11 11-11 9-7 6-4 15-10 40-10 29-9 22-16 8-10 4-23 4-21 2h-13l-28-4-26-6-20-7-5-8-8-17-5-10-7-20-9-24-6-28-5-5-13-11-17-17-11-15-12-21-8-20-6-25-2-22 1-20 3-18 6-21 7-16 9-16 10-14 11-12 14-14 13-10 18-11 23-11 18-6 17-4z" fill="#FEFEFE"/>
<path transform="translate(506)" d="m0 0h14l10 2 12 5 8 6 7 7 6 10 11 25 10 26 16 34 14 32 13 28 10 21 10 22 8 16 24 49 8 16 13 27 10 19 24 48 10 19 11 22 12 22 15 29 5 10 11 17 9 16 12 25 8 19 9 27 5 21 3 19 2 19v61l-4 33-6 26-11 32-9 20-13 27-18 27-9 12-9 11-11 12-23 23-11 9-19 14-18 12-23 12-26 12-31 11-24 6-19 3-19 2h-63l-33-4-25-6-27-9-21-9-31-15-14-9-17-12-12-9-10-9-8-7-6-6v-2l-4-2-13-13-9-11-9-12-10-14-12-19-15-31-10-25-8-25-5-23-3-24-1-16v-44l2-25 3-23 7-26 9-26 14-31 4-12 13-25 11-19 18-36 12-21 9-17 8-16 20-38 8-16 13-24 8-16 9-17 65-130 15-33 16-33 10-27 8-21 6-11 14-14 14-7 6-2zm2 41-7 5-4 6-9 25-19 43-13 28-16 33-14 29-33 66-10 19-10 20-10 19-18 35-12 23-10 19-15 28-14 27-12 22-14 27-12 22-6 15-11 23-12 36-5 22-4 28-1 13v29l3 29 5 26 7 24 9 24 10 21 10 17 10 15 9 12 11 13 12 13 8 8 8 7 16 13 21 14 21 12 21 10 25 9 27 7 24 4 21 2h34l27-3 26-5 27-8 25-10 25-13 19-12 19-14 12-11 8-7 11-11 7-8 13-16 14-21 12-21 9-19 9-25 6-21 4-19 3-23 1-13v-30l-3-28-5-27-8-27-10-25-14-27-12-19-17-32-15-29-24-46-23-45-46-92-11-23-13-27-13-28-19-41-18-40-30-70-5-5-3-1z" fill="#FEFEFE"/>
<path transform="translate(407,616)" d="m0 0 10 1 15 4 6 4 12 11 12 12 7 10 7 15 5 19v10l-7 8-12 5h-26l-12-3-10-5-5-4-7-10-8-13-4-10-1-5v-31l2-9 8-6z"/>
<path transform="translate(603,620)" d="m0 0h19l6 3 6 7 2 5v27l-3 17-5 15-6 12-12 6-9 3-6 1h-15l-12-2-14-7-4-5v-15l5-16 3-10 9-13 23-23 9-4z"/>
<path transform="translate(497,738)" d="m0 0h7l1 2v9l-3 14-4 19-2 20-4 4-5 2h-16l-9-2-5-5-1-2v-9l6-17 4-6 26-26z"/>
<path transform="translate(527,737)" d="m0 0 5 1 10 9 12 13 7 11 4 13 1 6v10l-3 6-4 3h-24l-4-4-2-7-3-30-4-18v-7z"/>
</svg>
