<?xml version="1.0" standalone="no"?>
<!DOCTYPE svg PUBLIC "-//W3C//DTD SVG 20010904//EN"
 "http://www.w3.org/TR/2001/REC-SVG-20010904/DTD/svg10.dtd">
<svg version="1.0" xmlns="http://www.w3.org/2000/svg"
 width="1024.000000pt" height="1024.000000pt" viewBox="0 0 1024.000000 1024.000000"
 preserveAspectRatio="xMidYMid meet">

<g transform="translate(0.000000,1024.000000) scale(0.100000,-0.100000)"
fill="#000000" stroke="none">
<path d="M5273 9768 c-6 -7 -46 -87 -90 -178 -44 -91 -111 -219 -150 -285 -39
-66 -78 -141 -86 -166 -27 -78 -68 -138 -97 -139 -38 0 -259 28 -270 35 -19
12 -267 5 -332 -9 -161 -35 -323 -132 -490 -294 -164 -160 -211 -268 -211
-489 l1 -112 -42 -16 c-109 -44 -270 -181 -360 -308 -83 -117 -148 -267 -177
-412 -14 -72 -17 -240 -6 -350 l8 -80 -113 -57 c-99 -50 -124 -68 -200 -145
-76 -77 -97 -106 -163 -231 -42 -78 -106 -211 -141 -294 -77 -179 -122 -270
-217 -438 -195 -345 -445 -718 -648 -965 -52 -63 -58 -78 -73 -150 -25 -128 4
-268 79 -380 77 -115 205 -174 418 -193 101 -10 122 -7 249 26 148 40 215 92
313 242 34 52 140 208 237 345 312 446 428 625 663 1025 172 292 264 430 313
464 20 14 61 46 90 70 113 92 285 166 638 276 l228 70 195 -66 c213 -72 234
-81 226 -94 -10 -17 -224 -81 -470 -140 -355 -87 -490 -126 -569 -168 -65 -34
-77 -46 -163 -162 -51 -69 -98 -141 -104 -160 -19 -60 -171 -348 -274 -520
-195 -324 -379 -581 -625 -875 -175 -209 -212 -276 -218 -400 -4 -73 -1 -89
23 -143 62 -137 282 -293 502 -353 105 -29 265 -29 377 0 99 26 240 94 331
158 137 98 313 280 474 492 64 84 64 84 82 63 22 -28 71 -156 95 -250 l19 -73
-377 -375 -376 -376 -53 7 c-182 23 -311 58 -577 156 -39 15 -83 20 -180 22
-119 2 -130 0 -184 -25 -31 -14 -76 -46 -100 -70 -64 -64 -89 -124 -101 -249
-26 -258 68 -483 260 -628 78 -58 192 -120 290 -157 37 -14 106 -48 153 -74
136 -78 278 -117 560 -155 69 -9 134 -20 145 -24 19 -8 73 -116 62 -127 -5 -5
-383 51 -617 91 -157 28 -343 74 -430 108 -104 40 -175 15 -220 -78 -72 -148
72 -458 266 -571 77 -45 346 -121 529 -149 55 -8 163 -28 240 -44 78 -16 217
-39 310 -51 94 -12 184 -23 201 -26 28 -4 36 -13 68 -80 20 -41 36 -78 36 -81
0 -8 -192 5 -330 23 -212 27 -407 68 -574 120 -112 35 -184 16 -219 -59 -36
-75 -15 -162 56 -236 49 -51 223 -183 278 -212 57 -28 370 -81 954 -158 l301
-40 94 20 c117 24 238 57 398 108 103 33 131 46 180 87 258 217 1198 1218
1492 1588 30 38 76 90 103 115 27 25 60 67 73 93 44 87 194 730 284 1213 17
94 33 177 36 185 2 8 25 28 51 45 27 16 86 62 133 101 204 169 361 389 434
609 22 64 56 221 56 255 0 4 19 12 43 18 114 29 321 221 459 426 108 162 170
310 204 491 22 120 15 366 -14 470 -57 207 -78 260 -149 378 -41 69 -47 58
103 195 108 97 273 271 288 302 16 34 -184 411 -350 661 -92 139 -262 370
-342 466 -142 170 -585 524 -1047 835 -217 147 -439 288 -452 288 -5 0 -42
-57 -83 -127 -81 -141 -248 -401 -288 -448 -13 -16 -58 -65 -99 -108 l-75 -79
-131 47 c-73 26 -135 50 -139 54 -3 3 23 42 59 86 132 164 471 694 458 716 -7
11 -196 84 -339 131 -313 103 -542 138 -897 138 -129 0 -179 -3 -186 -12z
m-568 -1247 c756 -96 1357 -260 1890 -515 720 -346 1273 -835 1692 -1496 215
-339 247 -585 114 -855 -43 -86 -165 -249 -183 -243 -6 2 -36 62 -67 133 -229
523 -496 922 -865 1291 -303 302 -613 526 -1011 729 -562 286 -1268 472 -2043
538 -166 14 -163 13 -184 80 -10 32 -9 43 4 65 9 15 23 53 32 84 14 49 24 63
74 102 31 26 89 62 127 82 68 34 73 35 160 31 50 -2 167 -14 260 -26z m-765
-891 c1158 -64 2024 -349 2732 -900 120 -94 431 -407 530 -535 201 -260 376
-561 508 -870 l43 -100 4 -175 c3 -138 1 -191 -12 -245 -17 -75 -52 -161 -61
-152 -3 3 -28 59 -54 125 -281 699 -790 1287 -1489 1721 -557 345 -1222 600
-2040 781 -316 69 -374 67 -466 -23 -37 -36 -68 -55 -117 -72 l-66 -23 -6 21
c-8 32 11 148 35 211 26 71 88 163 139 210 47 42 38 41 320 26z"/>
<path d="M1477 4019 c-89 -21 -172 -110 -204 -218 -24 -82 -13 -268 21 -386
38 -128 106 -262 166 -328 64 -70 320 -242 460 -309 58 -28 132 -64 164 -79
67 -33 110 -36 164 -14 80 34 117 94 133 217 27 199 -35 471 -154 675 -68 117
-71 119 -186 195 -116 77 -166 104 -286 155 -44 19 -100 47 -125 62 -52 33
-100 43 -153 30z"/>
<path d="M1575 2626 c-54 -24 -77 -59 -91 -141 -20 -113 -6 -212 39 -278 19
-29 44 -68 55 -88 56 -93 335 -256 586 -342 104 -35 133 -41 206 -42 72 0 90
3 116 22 57 41 67 79 61 227 -9 225 -28 260 -177 314 -135 49 -546 237 -614
281 -97 63 -127 71 -181 47z"/>
<path d="M1935 1700 c-38 -25 -65 -75 -65 -120 1 -50 76 -189 118 -217 18 -12
83 -38 145 -59 62 -20 180 -64 262 -96 171 -68 240 -81 298 -53 45 21 65 51
78 118 16 81 13 133 -10 169 -27 44 -41 52 -162 87 -146 43 -413 134 -484 165
-73 31 -138 34 -180 6z"/>
</g>
</svg>
