<svg version="1.1" id="Layer_1" xmlns="http://www.w3.org/2000/svg" xmlns:xlink="http://www.w3.org/1999/xlink" x="0px" y="0px"
	 width="100%" viewBox="0 0 1024 1024" enable-background="new 0 0 1024 1024" xml:space="preserve">
<path fill="#000000" opacity="1.000000" stroke="none" 
	d="
M355.951630,913.137817 
	C332.742188,897.949768 313.343262,879.232300 295.446167,858.550049 
	C276.431976,836.576965 264.149109,811.154114 253.974548,784.449219 
	C251.322113,777.487305 249.297028,770.157715 248.046219,762.816040 
	C245.001999,744.947571 233.923752,732.058167 222.579758,719.099609 
	C212.805161,707.933838 199.297791,701.348694 189.032608,690.784058 
	C170.321625,671.527283 159.503738,648.932739 157.587265,621.946106 
	C155.106323,587.011169 166.146332,557.035034 191.491653,533.317810 
	C209.016312,516.918823 230.392273,507.236908 255.066315,506.779175 
	C265.385590,506.587769 275.728333,506.325500 285.767548,509.502319 
	C286.637299,509.777527 287.669647,509.538788 288.773895,509.538788 
	C288.773895,505.067413 288.775421,500.947327 288.773682,496.827209 
	C288.746216,431.831909 288.743347,366.836609 288.664703,301.841370 
	C288.652222,291.528717 287.646545,281.250244 287.688995,270.914001 
	C287.887238,222.672699 321.879517,181.112869 369.162964,171.987686 
	C380.339905,169.830658 391.731995,170.264450 403.022430,171.268555 
	C409.478668,171.842712 409.779724,171.899216 409.780396,165.229263 
	C409.783356,135.401550 419.318604,109.519142 440.873749,88.317307 
	C469.415009,60.243942 517.275696,52.524235 553.161438,70.191612 
	C583.267822,85.013626 601.918152,108.618935 608.867920,141.407684 
	C610.738525,150.233429 610.808472,159.264450 610.844055,168.246490 
	C610.861145,172.562469 611.905579,173.954437 616.720886,173.207169 
	C649.669434,168.094162 678.659485,176.357773 703.189941,199.421921 
	C720.789673,215.969727 730.612671,236.354858 733.930664,260.075012 
	C734.229126,262.208282 734.228760,264.394287 734.232971,266.556091 
	C734.277283,289.554413 733.791809,312.566467 734.419067,335.548370 
	C735.933105,391.020874 734.886536,446.496979 735.275452,501.969269 
	C735.317932,508.032471 735.309265,507.819153 741.596069,506.887421 
	C776.064880,501.778900 806.304077,510.635010 831.580383,534.899841 
	C853.304871,555.755127 862.854004,581.644897 863.394775,611.537842 
	C863.854431,636.944641 855.838379,659.347900 841.141235,679.516479 
	C833.013428,690.670105 822.410278,699.512756 810.269775,706.011169 
	C800.219238,711.390808 793.374573,719.369568 788.263062,729.106934 
	C781.760010,741.495117 776.426086,754.231140 773.496765,768.137329 
	C769.074646,789.130005 760.196655,808.566956 749.582092,827.163452 
	C733.523865,855.296936 712.436829,879.276550 687.029602,899.106201 
	C661.940063,918.687927 634.050476,933.342529 603.614380,943.341614 
	C577.937134,951.777283 551.854675,956.291077 524.878418,957.481628 
	C467.635773,960.007935 414.326324,947.189636 364.748657,918.596008 
	C361.865387,916.933105 359.088379,915.085938 355.951630,913.137817 
M603.461182,235.962326 
	C601.216736,237.707626 599.255920,239.713120 597.456360,241.930466 
	C589.051758,252.286453 586.188965,264.376373 586.206848,277.380463 
	C586.276733,328.203339 586.172729,379.025909 586.936584,429.847046 
	C587.329834,456.006226 587.186035,482.173706 587.250854,508.337494 
	C587.264709,513.929932 586.873901,514.155334 581.584351,513.025574 
	C575.561279,511.739136 569.533081,510.463074 563.474060,509.364685 
	C560.794922,508.879028 559.257141,507.867767 559.313660,504.860382 
	C559.391724,500.707367 559.137817,496.549347 559.113159,492.392975 
	C558.616943,408.741943 559.359192,325.086792 558.140625,241.437271 
	C557.747437,214.445190 558.405579,187.432007 557.686401,160.452393 
	C557.175171,141.274063 548.078430,126.482910 530.235779,118.520752 
	C511.991333,110.379272 494.571777,113.010666 479.322601,125.908592 
	C467.331512,136.050812 463.013550,149.837952 463.039276,165.216782 
	C463.115601,210.878632 463.148590,256.540558 463.231598,302.202423 
	C463.299744,339.692627 463.364807,377.182953 463.525848,414.672852 
	C463.652557,444.164795 463.798309,473.657990 464.244934,503.145966 
	C464.326324,508.519348 462.343903,510.548645 457.317230,511.181885 
	C452.712677,511.761993 448.182281,513.007751 443.655487,514.109314 
	C438.079315,515.466309 437.728180,515.270081 437.688354,509.342896 
	C437.421875,469.686707 437.285309,430.029327 436.885559,390.374512 
	C436.474091,349.558258 437.883606,308.722198 435.813782,267.926117 
	C434.081940,233.791458 397.606049,212.790726 367.247681,228.470474 
	C349.494232,237.639923 341.264252,253.061752 341.218231,272.510529 
	C341.114532,316.332886 341.168732,360.155548 341.731873,403.981171 
	C342.397736,455.801788 342.119110,507.634460 342.306488,559.461670 
	C342.316925,562.356567 341.497864,564.596619 339.217529,566.428772 
	C331.921783,572.290710 325.416931,579.003845 319.172913,585.929871 
	C316.456696,588.942810 314.602234,588.647705 311.751678,586.265991 
	C305.362488,580.927429 298.873108,575.680542 292.140961,570.786377 
	C277.549164,560.178467 261.619293,555.813354 244.115067,562.490845 
	C213.382278,574.214722 200.969009,612.921021 218.199432,642.045959 
	C223.540253,651.073669 231.577194,657.134216 239.506317,663.527771 
	C269.273407,687.530518 292.636444,715.246887 300.694763,754.592529 
	C307.996368,790.243347 327.211365,820.485596 354.139221,844.824402 
	C407.697510,893.232971 471.129364,911.926819 542.468689,903.301453 
	C577.986816,899.007080 610.976257,886.973877 640.938599,866.992859 
	C678.708435,841.805359 705.440979,808.192932 719.677002,764.934143 
	C723.577759,753.080933 725.049438,740.567078 729.620728,728.850403 
	C740.916931,699.896912 756.958252,675.183533 784.872742,659.027039 
	C808.341003,645.443970 815.479309,617.365601 806.697815,592.426697 
	C797.362488,565.915039 769.783630,552.528564 743.763306,561.576050 
	C732.149475,565.614380 722.217896,572.795044 712.517517,580.148315 
	C709.310242,582.579590 707.303284,582.459473 704.595276,579.517578 
	C699.404541,573.878296 693.841980,568.544373 687.661804,564.002319 
	C684.048096,561.346375 682.805908,558.312256 682.784851,553.870483 
	C682.564880,507.384369 682.877502,460.898529 682.224060,414.410461 
	C681.589417,369.255829 681.849060,324.088684 681.702515,278.927094 
	C681.676941,271.056824 680.982239,263.221680 678.202026,255.823746 
	C666.669983,225.137466 630.267212,215.220779 603.461182,235.962326 
z"/>
<path fill="#000000" opacity="1.000000" stroke="none" 
	d="
M601.510986,662.483765 
	C594.064209,654.714966 586.930542,647.122375 578.250671,640.721802 
	C576.700989,643.830017 577.842712,646.185730 578.029785,648.585083 
	C580.047974,674.473755 572.684448,696.913574 551.941650,713.348999 
	C520.093933,738.583496 475.085999,728.643433 456.020172,692.701843 
	C448.569824,678.656982 445.208832,663.840576 447.539032,647.926636 
	C447.795624,646.174316 447.573700,644.351990 447.573700,641.830933 
	C440.092560,645.909973 434.818390,651.721863 429.119171,656.897278 
	C420.606964,664.627136 412.999237,673.263123 405.401917,681.897644 
	C398.471832,689.773743 389.718048,693.318726 379.389954,690.500793 
	C369.132660,687.702148 363.069977,680.524841 361.189026,670.065491 
	C359.970032,663.286926 361.775330,656.920898 366.048584,651.761475 
	C393.458344,618.667664 424.492767,589.929626 465.246429,574.039124 
	C509.103912,556.938354 550.858521,562.934753 590.282776,587.702087 
	C615.131958,603.312988 635.483154,623.857239 653.409424,646.861938 
	C659.868469,655.150818 661.015442,664.433838 655.882324,674.002380 
	C650.976990,683.146240 643.036255,687.364685 632.917480,687.109009 
	C626.000610,686.934326 620.020691,683.951233 615.397949,678.679993 
	C610.786438,673.421631 606.297791,668.055603 601.510986,662.483765 
z"/>
</svg>