<svg version="1.1" id="Layer_1" xmlns="http://www.w3.org/2000/svg" xmlns:xlink="http://www.w3.org/1999/xlink" x="0px" y="0px"
	 width="100%" viewBox="0 0 1024 1024" enable-background="new 0 0 1024 1024" xml:space="preserve">
<path fill="#000000" opacity="1.000000" stroke="none" 
	d="
M309.595764,488.428192 
	C343.082062,502.364532 381.532898,490.739746 397.307434,456.407684 
	C399.000092,452.723724 400.932434,451.407623 404.885468,451.916138 
	C441.056152,456.568604 477.126892,461.826691 512.858765,469.208862 
	C528.659119,472.473175 544.437988,475.844238 560.260559,478.996185 
	C564.131165,479.767212 566.217102,481.494202 567.081299,485.532349 
	C570.545776,501.722534 580.024109,514.101746 592.414429,524.589905 
	C599.208679,530.341125 606.199585,535.847900 615.075012,537.777893 
	C632.239380,541.510254 649.108887,541.535095 664.799133,532.074829 
	C672.212036,527.605286 679.656799,523.172424 686.869568,518.394592 
	C690.052185,516.286438 692.364441,516.649963 695.436035,518.600891 
	C704.004211,524.043030 711.417236,531.110962 720.624878,535.689209 
	C730.578430,540.638367 741.127380,542.467285 751.982788,542.620422 
	C758.808044,542.716736 764.995850,544.190857 771.267578,546.860596 
	C793.205505,556.199158 814.594482,566.669250 835.847107,577.431763 
	C839.187561,579.123291 841.266602,578.648315 843.371216,575.585144 
	C862.378418,547.921265 877.979248,518.528198 886.160034,485.838379 
	C892.848816,459.110809 893.889465,432.182892 883.815918,405.750366 
	C877.913513,390.262543 867.878418,377.716156 855.766296,366.778748 
	C852.220886,363.577148 850.462036,360.399567 850.740295,355.604584 
	C852.498413,325.317352 827.149109,298.160645 798.201782,295.238312 
	C791.443115,294.556061 784.747070,293.265198 778.012634,292.322784 
	C776.268982,292.078796 774.646912,291.718018 774.035767,289.861176 
	C771.292480,281.527161 768.604187,273.175049 765.971252,265.061035 
	C767.068298,263.580841 768.301575,263.736603 769.409668,263.920929 
	C806.344727,270.065063 841.801025,280.326050 873.798889,300.624908 
	C916.908569,327.972931 943.877380,366.214417 952.912048,416.718048 
	C956.860596,438.790375 955.869995,460.824158 952.259277,482.831604 
	C947.330872,512.870483 936.764038,541.004333 923.077454,568.010498 
	C915.920471,582.132568 907.527649,595.584839 898.682312,608.717468 
	C896.341309,612.193298 896.414307,614.136047 899.991089,616.782349 
	C918.898987,630.771301 937.371216,645.324341 952.390198,663.645935 
	C965.367432,679.476807 976.573730,696.267273 980.635498,716.919434 
	C986.986694,749.212158 976.453186,775.552795 951.715515,796.081726 
	C929.622742,814.415771 903.246887,824.279236 875.645325,831.157837 
	C847.601562,838.146667 819.102783,841.499268 790.304443,843.543884 
	C758.152710,845.826599 726.042419,845.387329 693.930542,844.037659 
	C670.998596,843.073792 648.078918,841.413330 625.301270,838.319702 
	C620.749939,837.701599 616.527832,838.372375 612.253052,840.431091 
	C560.259583,865.471558 505.950165,883.991455 449.730225,896.739136 
	C400.597534,907.879883 350.742737,912.668945 300.380920,910.067627 
	C261.342651,908.051270 223.406357,900.400024 187.609558,884.112671 
	C149.193375,866.633545 118.051247,840.814880 98.394371,802.872742 
	C82.757637,772.690369 77.446411,740.371094 80.363190,706.484192 
	C82.015938,687.282654 85.621101,668.592590 91.908546,650.424255 
	C93.205322,646.677124 91.721542,644.530457 89.292938,642.159607 
	C74.767014,627.979309 61.958855,612.430664 53.377129,593.893066 
	C38.887089,562.592957 41.507362,529.035889 66.403511,502.583801 
	C75.451881,492.969940 86.162437,485.828888 97.364998,479.180023 
	C100.256020,477.464172 102.466286,477.884399 105.111481,479.716309 
	C110.291840,483.303955 115.080750,487.565033 121.258957,489.556671 
	C143.385773,496.689423 164.554749,496.290161 184.838776,483.179474 
	C203.424942,471.166229 223.319244,461.268066 241.682449,448.851013 
	C244.402069,447.012024 246.649261,447.555328 249.386566,449.402924 
	C269.108398,462.714752 288.448517,476.625488 309.595764,488.428192 
M234.019623,674.448914 
	C295.412567,704.544983 359.589844,727.221619 425.336395,745.528381 
	C475.579376,759.518188 526.714722,769.571045 578.057190,778.615295 
	C586.317444,780.070435 593.632935,779.394714 600.943481,774.966553 
	C609.195129,769.968323 617.975403,765.850098 626.457581,761.224060 
	C691.433350,725.787598 750.371094,682.427307 800.986267,628.149841 
	C805.343567,623.477295 805.341248,622.289307 799.660095,619.433167 
	C789.689819,614.420593 779.679321,609.470398 769.532166,604.829773 
	C708.596130,576.961853 645.169861,556.174316 580.452820,539.267517 
	C515.128540,522.202209 448.814117,510.252014 381.631042,503.528625 
	C348.652344,500.228241 315.522583,498.900360 282.355011,499.003967 
	C279.305573,499.013489 276.967468,499.960297 274.780426,502.066467 
	C266.499847,510.040802 257.953674,517.743286 249.776566,525.820435 
	C218.187836,557.023010 190.619385,591.297363 169.713531,630.692383 
	C167.447464,634.962585 168.181625,636.878784 172.074112,639.368652 
	C191.889328,652.044006 212.368256,663.516357 234.019623,674.448914 
M254.540298,838.939148 
	C260.071381,840.144653 265.566040,841.561768 271.139526,842.520935 
	C305.027832,848.353149 339.117584,848.125671 373.118896,844.416443 
	C411.412628,840.239136 449.005127,832.218506 485.819336,820.757324 
	C487.948639,820.094421 490.407776,819.961426 492.026398,817.952881 
	C490.995911,815.902466 488.962616,815.904602 487.300659,815.557068 
	C458.453705,809.524780 429.936432,802.144897 401.568787,794.221741 
	C358.888947,782.301086 316.885620,768.291321 275.818298,751.617188 
	C233.799179,734.556641 192.802902,715.373596 154.177551,691.417114 
	C148.906067,688.147644 147.403000,688.852783 146.410492,695.138306 
	C144.307861,708.454285 142.596405,721.771606 144.164856,735.351196 
	C147.653137,765.552551 161.180557,790.183777 185.251953,808.597290 
	C205.544662,824.120361 228.837448,833.390869 254.540298,838.939148 
M717.205139,781.751770 
	C713.177002,784.407166 709.148865,787.062622 705.120667,789.718079 
	C705.271667,790.303101 705.422668,790.888123 705.573669,791.473145 
	C717.352783,791.473145 729.132446,791.543640 740.911011,791.458435 
	C765.040649,791.283875 789.134399,790.413269 813.134033,787.668091 
	C838.820251,784.729919 864.266663,780.543579 888.370789,770.818481 
	C901.632996,765.467651 914.757812,759.516785 923.913940,747.646484 
	C928.136841,742.171936 929.486023,736.250366 928.276794,729.362976 
	C926.352905,718.404480 920.335693,709.639893 913.677551,701.329041 
	C900.558411,684.953369 884.280823,671.976501 867.525024,659.545227 
	C863.514893,656.570251 861.000122,657.415100 857.918396,660.989929 
	C846.501892,674.233337 834.475525,686.932373 821.800415,698.977600 
	C789.619568,729.559082 754.875244,756.927307 717.205139,781.751770 
M138.562241,558.099609 
	C150.224060,541.658691 162.509674,525.685486 176.413742,509.382416 
	C168.603592,509.656158 162.827148,511.834167 156.943222,513.372620 
	C140.210724,517.747437 124.359985,524.199341 110.535042,534.790100 
	C97.387665,544.861877 94.682083,558.387939 102.761490,572.839661 
	C105.759880,578.202881 109.275421,583.292603 112.773880,588.355835 
	C115.720345,592.620361 117.002670,592.452515 119.854889,587.903076 
	C125.957298,578.169434 132.050476,568.430054 138.562241,558.099609 
z"/>
<path fill="#000000" opacity="1.000000" stroke="none" 
	d="
M217.839310,132.885590 
	C222.365097,125.467743 226.406555,118.157669 231.081024,111.277702 
	C243.664093,92.757729 267.614990,92.769676 279.530243,111.726273 
	C289.627777,127.790947 298.650055,144.532379 308.116760,160.992355 
	C314.094635,171.386215 320.132812,181.748596 325.894012,192.262054 
	C327.788330,195.718979 330.369843,197.143295 334.112183,197.730164 
	C355.803741,201.131897 377.635559,203.786621 399.085449,208.533463 
	C415.793823,212.231033 423.610809,228.171417 418.248352,244.508148 
	C414.742035,255.190323 408.001007,263.415344 401.003448,271.683960 
	C384.973572,290.625610 369.034729,309.644623 352.928375,328.520844 
	C350.552979,331.304749 349.649902,334.111877 350.089478,337.649231 
	C351.957458,352.680542 354.756653,367.554779 357.389923,382.461212 
	C359.789490,396.044830 362.169159,409.644257 364.011017,423.310364 
	C365.510773,434.437988 361.709869,443.790131 352.090942,450.051697 
	C342.856415,456.063110 333.226715,455.971954 323.760742,450.449036 
	C301.580902,437.508209 280.815369,422.410004 259.580475,408.035980 
	C246.952408,399.488007 247.144440,399.302429 234.042999,407.184509 
	C210.638535,421.265045 187.176376,435.249695 163.771179,449.329041 
	C154.437790,454.943542 144.808670,456.492889 134.794983,451.477234 
	C123.256882,445.697998 117.854355,433.045685 120.446861,419.802643 
	C126.775421,387.475006 132.838806,355.095459 139.118652,322.758118 
	C139.659210,319.974670 138.139801,318.323883 136.824646,316.482697 
	C119.782852,292.624451 102.790649,268.729950 85.594727,244.983047 
	C79.093819,236.005524 76.000244,226.525146 78.618286,215.437881 
	C81.091194,204.965240 89.424576,196.603806 100.086174,194.963562 
	C112.412224,193.067276 124.785194,191.467789 137.151398,189.842957 
	C152.317108,187.850281 167.485779,185.868774 182.679184,184.106842 
	C186.083908,183.711990 187.933212,182.094193 189.604446,179.309769 
	C198.863342,163.883820 208.280609,148.552933 217.839310,132.885590 
M186.944717,294.571136 
	C195.288696,304.518677 196.536697,315.702728 193.199280,327.929260 
	C191.317612,334.822693 190.006042,341.881195 188.652969,348.906830 
	C187.158478,356.666840 185.910233,364.474304 184.480499,372.687439 
	C186.071732,372.544067 187.016937,372.731323 187.628571,372.363678 
	C200.611923,364.559540 214.102646,357.450989 226.365158,348.635864 
	C239.943893,338.874573 250.824265,337.656921 264.878693,347.066864 
	C274.705841,353.646515 284.509888,360.260651 294.343109,366.831116 
	C295.808990,367.810608 297.108856,369.362427 299.301117,368.670166 
	C300.516602,366.446075 299.864380,364.085724 299.501526,361.866150 
	C297.837128,351.685242 296.148956,341.503967 294.195984,331.375519 
	C291.726349,318.567566 294.940491,307.997528 305.667999,300.084686 
	C307.000763,299.101624 308.333557,298.037933 309.397369,296.783508 
	C319.954346,284.334595 330.468079,271.848877 340.951385,259.337830 
	C342.068237,258.004974 343.708130,256.785278 342.972900,254.346115 
	C341.281006,253.192368 339.208282,252.636566 337.073364,252.302887 
	C328.030518,250.889557 318.985657,249.488434 309.936096,248.118591 
	C297.045319,246.167282 287.522583,240.087799 283.518555,226.979233 
	C282.896454,224.942520 281.675079,223.070251 280.609894,221.190460 
	C273.219971,208.149109 265.789246,195.130890 258.390472,182.094513 
	C255.193314,176.461212 253.948486,176.416000 250.453568,182.149094 
	C243.864868,192.957230 237.437180,203.864029 230.799393,214.641617 
	C224.119003,225.488358 215.806503,234.258179 202.233200,235.920517 
	C187.875214,237.678986 173.530701,239.553299 159.159698,241.196869 
	C151.599182,242.061539 150.767120,243.469528 155.057739,249.537018 
	C165.538666,264.358429 176.064758,279.147949 186.944717,294.571136 
z"/>
<path fill="#000000" opacity="1.000000" stroke="none" 
	d="
M715.597534,253.324203 
	C720.103455,257.146637 722.341553,261.938141 724.027832,267.061554 
	C729.907471,284.925659 735.861877,302.765747 741.610596,320.671875 
	C743.029846,325.092560 745.142761,327.386597 750.209717,327.984131 
	C763.571838,329.559753 776.847778,331.881287 790.144714,333.989899 
	C801.485779,335.788361 808.679810,342.248108 810.751526,352.234528 
	C811.519836,355.938110 811.244812,359.505432 809.783569,362.999420 
	C805.026917,374.373230 799.593933,385.215515 790.715332,394.194824 
	C783.706543,401.282990 777.638245,409.292908 770.969910,416.729919 
	C768.345581,419.656738 767.858398,422.628448 768.666931,426.364746 
	C772.143616,442.431946 775.441528,458.538055 778.769836,474.637177 
	C783.075256,495.462860 766.987061,505.516907 751.631836,502.852570 
	C740.359863,500.896790 731.913818,495.451630 723.330933,489.212494 
	C715.249329,483.337708 707.160828,477.457703 699.332642,471.255310 
	C695.491211,468.211670 692.336182,468.050903 688.160950,470.680450 
	C674.918335,479.020599 661.426697,486.963959 648.091003,495.157928 
	C635.530823,502.875397 626.747620,501.504852 615.811829,491.421204 
	C606.985046,483.282227 604.771912,474.144043 606.996094,462.593628 
	C609.726990,448.411896 611.122864,433.975769 613.249573,419.672455 
	C613.605591,417.277893 612.400269,415.992767 611.102966,414.444183 
	C598.697510,399.636139 586.272766,384.843506 573.972412,369.948303 
	C563.711731,357.522949 565.362183,345.142090 578.298340,335.665192 
	C582.424683,332.642303 585.284241,328.009369 590.465759,326.300995 
	C596.689758,324.248901 603.166748,323.676392 609.601196,322.962921 
	C620.840149,321.716705 632.101562,320.661987 643.364990,319.655060 
	C646.708801,319.356201 648.176514,317.231537 649.559509,314.611542 
	C657.721558,299.149017 666.024902,283.760803 674.136902,268.272308 
	C678.530396,259.883820 685.977600,254.734573 693.773621,250.399811 
	C701.132690,246.308014 708.635254,248.128113 715.597534,253.324203 
M670.695557,431.150879 
	C673.559204,429.449738 676.418396,427.741150 679.287231,426.048737 
	C690.365784,419.513062 701.151062,418.706207 711.737793,427.285492 
	C716.200745,430.902191 721.048889,434.043579 726.138428,437.700256 
	C727.023254,433.944489 725.352417,431.208588 725.173279,428.325653 
	C724.398254,415.849121 724.706055,403.706848 734.004761,393.723724 
	C738.995117,388.366150 743.619263,382.665802 748.362183,377.080627 
	C749.496094,375.745270 751.207642,374.639771 750.720093,372.213196 
	C746.460876,369.853119 741.544739,369.604523 736.847107,369.321442 
	C722.133850,368.434723 711.414246,362.057037 706.056763,347.981628 
	C703.215820,340.517578 700.820312,332.884766 698.152222,325.353424 
	C697.582153,323.744141 697.675781,321.651184 695.513489,320.892090 
	C693.729370,322.119019 693.068481,324.055542 692.155579,325.798187 
	C688.447083,332.877472 684.872131,340.028687 681.055054,347.048553 
	C676.828735,354.821167 670.709900,359.754608 661.424866,360.531738 
	C651.978149,361.322418 642.585205,362.757690 633.170288,363.924194 
	C631.249817,364.162170 629.103333,363.833557 627.423218,366.496643 
	C633.938904,374.763275 640.044312,383.706543 648.294434,390.667633 
	C655.886475,397.073517 659.269104,404.609314 657.655945,414.423676 
	C656.603516,420.826447 655.723450,427.257355 654.721191,433.668640 
	C654.411377,435.650452 653.834717,437.631104 656.114197,439.512390 
	C661.184143,437.865387 665.274780,434.034027 670.695557,431.150879 
z"/>
<path fill="#000000" opacity="1.000000" stroke="none" 
	d="
M393.686523,358.986359 
	C393.204773,355.603973 393.026276,352.575439 392.204193,349.733063 
	C391.213562,346.307861 392.377380,344.595551 395.424591,343.049683 
	C436.928192,321.994568 479.691132,303.998627 524.118835,290.077637 
	C557.507202,279.615753 591.458313,271.468048 626.046631,266.063538 
	C627.024536,265.910767 628.033569,265.691437 629.572510,267.133911 
	C626.881653,271.685974 624.620911,277.018280 621.363281,281.248566 
	C619.352234,283.860077 613.908325,282.869263 609.977783,283.293213 
	C601.573364,284.199707 593.098022,284.657867 584.770569,286.023987 
	C568.557922,288.683594 557.394775,299.727509 546.131348,310.390900 
	C534.319397,321.573608 527.821594,335.156158 528.276367,351.657715 
	C528.375061,355.239502 526.847107,357.042999 523.486084,358.155304 
	C484.486786,371.061707 447.425476,388.395844 411.115692,407.451294 
	C408.418121,408.866974 406.176422,411.471252 402.172607,411.338715 
	C399.342621,393.988251 396.523651,376.705444 393.686523,358.986359 
z"/>
</svg>