<svg version="1.1" id="Layer_1" xmlns="http://www.w3.org/2000/svg" xmlns:xlink="http://www.w3.org/1999/xlink" x="0px" y="0px"
	 width="100%" viewBox="0 0 1024 1024" enable-background="new 0 0 1024 1024" xml:space="preserve">
<path fill="#000000" opacity="1.000000" stroke="none" 
	d="
M769.725098,825.798462 
	C726.695251,847.088989 683.997803,868.209900 641.287231,889.304199 
	C634.566284,892.623596 627.855347,895.977478 621.017761,899.043518 
	C606.737793,905.446838 591.952942,902.434021 580.298462,891.924866 
	C548.320374,863.089722 520.460938,830.288879 490.700745,799.324768 
	C454.795929,761.967529 419.389221,724.131165 383.842651,686.430786 
	C381.133179,683.557129 378.322144,682.216980 374.285034,682.194824 
	C317.132874,681.880981 259.974670,681.820496 202.832474,680.846130 
	C165.675568,680.212646 128.517380,680.625122 91.369820,679.833008 
	C81.445869,679.621399 71.305984,680.113831 62.001503,675.354309 
	C47.633003,668.004150 40.056892,652.305908 43.521622,636.884521 
	C47.252151,620.280090 60.944031,608.964661 78.505844,608.939453 
	C102.160408,608.905518 125.815277,609.523132 149.471008,609.763611 
	C195.956024,610.236267 242.446854,610.362183 288.924561,611.215698 
	C306.916748,611.546021 324.905457,611.628967 342.894928,611.880310 
	C346.348175,611.928589 348.637360,610.700073 351.092987,608.232361 
	C369.426300,589.808594 387.947815,571.571716 406.453857,553.320435 
	C416.181610,543.726562 426.027893,534.252930 435.758698,524.662170 
	C440.297119,520.189148 445.085449,516.094055 450.918701,513.391785 
	C452.494476,512.661743 453.579773,511.575165 454.406555,510.008453 
	C474.697235,471.557770 494.882324,433.049805 515.488159,394.768433 
	C519.180969,387.908020 518.956055,381.088043 518.611633,373.968323 
	C518.112976,363.659546 517.408752,353.360077 516.970215,343.049072 
	C515.491638,308.276825 514.152039,273.498596 512.642395,238.727722 
	C511.457886,211.447357 509.713135,184.185059 508.971283,156.894226 
	C508.556213,141.624405 515.542847,129.673737 529.780518,123.305687 
	C552.732971,113.039810 577.553955,128.793076 579.195374,154.459381 
	C580.342957,172.403503 581.221985,190.367599 581.990112,208.332642 
	C583.782715,250.258804 585.300598,292.197083 587.209045,334.117767 
	C588.040710,352.385162 587.734253,370.718842 590.868469,388.877014 
	C592.465393,398.128418 588.680481,406.570282 584.398987,414.611542 
	C571.012146,439.753967 557.579468,464.871948 544.195557,490.015930 
	C534.725647,507.806854 525.406677,525.679199 515.787842,543.388916 
	C513.577576,547.458252 513.616394,550.278992 516.863953,553.911621 
	C555.837158,597.506104 594.641785,641.251404 633.511292,684.938599 
	C639.269409,691.410400 639.302856,691.311829 643.508118,683.678894 
	C669.229980,636.991577 694.999878,590.330627 720.736145,543.651184 
	C726.691467,532.849609 735.969116,527.372437 747.498840,522.889709 
	C768.372314,514.774170 789.326477,519.102844 810.252502,519.297424 
	C826.719971,519.450439 843.172058,520.964966 859.637085,521.744446 
	C890.900757,523.224670 922.232056,523.714233 953.388184,526.797791 
	C967.686401,528.212891 977.675476,536.645508 982.297058,550.363831 
	C986.939270,564.143127 983.377808,576.245056 973.280884,586.564880 
	C970.723511,589.178833 968.303650,591.930237 965.876221,594.667786 
	C958.338013,603.169189 948.782288,607.263123 937.545654,607.189758 
	C894.226196,606.907043 850.907471,606.497986 807.588501,606.144653 
	C800.922974,606.090271 794.254883,606.171509 787.592346,606.011047 
	C784.421936,605.934753 782.369812,606.924438 780.833008,609.912781 
	C764.454468,641.761963 747.953186,673.548157 731.492432,705.355042 
	C724.602417,718.668518 717.725220,731.988586 710.852844,745.311096 
	C710.101135,746.768372 709.419861,748.261963 708.730408,749.688171 
	C710.180359,751.326477 711.411377,750.115417 712.434998,749.628845 
	C732.141113,740.260925 751.819031,730.833313 771.487732,721.386841 
	C772.680664,720.813904 773.785522,720.033447 774.870850,719.264160 
	C791.980957,707.134399 808.274414,708.044067 823.661377,722.717957 
	C845.846069,743.874695 867.717896,765.359619 889.708435,786.719788 
	C909.664917,806.104187 929.691895,825.417175 949.516296,844.935852 
	C963.423828,858.629028 967.023804,879.990906 958.425720,895.459961 
	C947.314575,915.450378 920.493530,919.757446 903.556274,903.944641 
	C885.410950,887.004028 867.593994,869.711792 849.635071,852.571472 
	C835.535645,839.114685 821.389221,825.706299 807.384888,812.151245 
	C804.861389,809.708740 802.778992,809.149292 799.528442,810.851562 
	C789.794678,815.948730 779.890808,820.721008 769.725098,825.798462 
z"/>
<path fill="#000000" opacity="1.000000" stroke="none" 
	d="
M283.247742,483.723450 
	C270.296204,467.960663 263.248230,450.085388 263.136414,430.166534 
	C262.982971,402.831543 273.233704,379.306000 294.804993,362.405151 
	C323.896515,339.612366 356.046906,335.717102 389.387817,352.752747 
	C416.470886,366.590912 431.635040,389.611694 435.094330,419.560547 
	C440.450562,465.932129 407.702667,507.631897 361.086426,514.005493 
	C329.982819,518.258118 304.221588,507.262390 283.247742,483.723450 
z"/>
</svg>