<svg version="1.1" id="Layer_1" xmlns="http://www.w3.org/2000/svg" xmlns:xlink="http://www.w3.org/1999/xlink" x="0px" y="0px"
	 width="100%" viewBox="0 0 1024 1024" enable-background="new 0 0 1024 1024" xml:space="preserve">
<path fill="#000000" opacity="1.000000" stroke="none" 
	d="
M476.293457,208.997925 
	C490.704102,208.036987 504.632538,206.642105 518.646973,206.888138 
	C565.534180,207.711243 611.002075,216.041153 655.019165,232.319473 
	C670.656555,238.102463 686.123840,244.272430 701.103577,251.579147 
	C704.742065,253.353882 706.889160,252.834534 709.690552,250.023712 
	C730.979187,228.663651 752.381775,207.416031 773.869934,186.256378 
	C789.112732,171.246567 809.157471,167.289169 827.653931,175.338013 
	C857.493042,188.322647 864.806824,227.150375 841.666138,250.965057 
	C825.642029,267.455811 809.210266,283.550232 792.982300,299.843292 
	C791.718994,301.111633 790.090088,302.140137 789.614502,304.319244 
	C791.564880,307.427917 794.912109,309.136017 797.782959,311.284210 
	C829.997559,335.389832 859.886536,362.104095 888.537720,390.343170 
	C917.423279,418.813293 943.684021,449.559265 970.228882,480.138428 
	C986.426086,498.797119 984.274780,522.458557 971.476868,538.545959 
	C937.416443,581.361084 901.219177,622.179016 861.318481,659.729492 
	C832.251404,687.084412 801.692749,712.504333 768.749023,734.984680 
	C713.970703,772.364807 654.919067,800.035339 589.402466,812.763977 
	C535.619507,823.213074 482.136932,821.877808 428.808655,809.438232 
	C393.560211,801.216125 360.070282,788.329956 327.739532,772.283569 
	C323.932312,770.393982 321.631927,770.797241 318.692596,773.782166 
	C300.102631,792.660461 281.588348,811.626282 262.537354,830.033569 
	C247.651398,844.416504 229.940460,848.324341 210.451447,840.529846 
	C181.344269,828.888733 172.147491,791.497986 192.626129,767.673523 
	C204.142792,754.275208 217.283417,742.389160 229.720016,729.848999 
	C230.541412,729.020691 231.381393,728.210815 232.202560,727.382263 
	C242.260345,717.234741 241.194183,718.857300 231.124283,711.210938 
	C207.067032,692.943726 184.381561,673.099670 162.506760,652.314392 
	C126.335884,617.945129 92.895103,581.054810 61.419666,542.360413 
	C59.005180,539.392151 56.293335,536.667114 53.749714,533.802368 
	C41.895897,520.452026 41.403934,501.109680 53.175583,487.701019 
	C75.812065,461.916565 97.582336,435.363007 121.569008,410.771210 
	C161.432785,369.901703 203.386734,331.461426 250.395035,298.814331 
	C293.035858,269.200439 338.265137,244.622284 387.666107,228.180878 
	C415.079041,219.057434 443.104095,212.611816 471.885620,209.653137 
	C473.209595,209.517059 474.520691,209.255569 476.293457,208.997925 
M171.697708,454.213013 
	C156.442337,470.504181 141.118576,486.731598 126.872589,503.935394 
	C121.307495,510.655945 121.287865,510.550537 126.587471,517.182861 
	C135.953018,528.903564 146.069809,539.960999 156.098343,551.106201 
	C194.536682,593.824463 236.086929,633.136230 282.507507,667.151428 
	C288.216156,671.334595 288.209290,671.330139 293.157288,666.402527 
	C335.055481,624.676758 377.010010,583.007385 418.843994,541.217407 
	C495.219330,464.922363 571.526733,388.559296 647.853149,312.215393 
	C655.872437,304.194275 655.650391,303.200104 644.933105,298.800201 
	C610.140076,284.516235 573.955811,275.827759 536.458679,273.463806 
	C495.342651,270.871765 455.025208,276.030792 415.685028,288.437775 
	C369.824463,302.901154 327.968842,325.382721 288.691406,352.736511 
	C246.315842,382.247955 208.063507,416.622681 171.697708,454.213013 
M646.465454,726.914307 
	C687.079407,710.087524 724.079834,687.099060 758.861816,660.456909 
	C794.134033,633.439331 826.429810,603.101929 856.693848,570.626465 
	C873.729187,552.346313 890.367432,533.690918 905.930054,514.106934 
	C908.071472,511.412231 908.263733,509.560638 905.942444,506.821198 
	C876.179443,471.696930 844.915100,438.031433 810.629089,407.227539 
	C789.781189,388.496918 767.992554,370.964020 745.392151,354.407654 
	C742.224792,352.087402 740.048157,352.286926 737.285583,355.079315 
	C715.018250,377.587555 692.679871,400.026123 670.232666,422.354706 
	C667.461975,425.110809 667.506592,427.219666 669.169250,430.566193 
	C684.596375,461.617249 691.427246,494.478149 686.702698,528.920959 
	C678.465454,588.972961 647.581909,633.784302 593.889893,662.468689 
	C568.813477,675.865295 541.792664,682.136658 513.589111,681.824829 
	C486.983643,681.530640 461.359100,675.612610 437.643585,663.007568 
	C433.498383,660.804382 430.868591,661.438293 427.654144,664.714233 
	C411.082703,681.602844 394.274078,698.258484 377.602783,715.049622 
	C376.044861,716.618713 373.770844,717.805847 373.667664,720.424255 
	C374.953064,722.324280 376.967743,722.829163 378.774017,723.603577 
	C399.022644,732.285522 419.832306,739.277588 441.242523,744.515320 
	C481.688751,754.409973 522.480103,756.598450 563.672180,750.225464 
	C591.953552,745.849915 619.210510,737.800842 646.465454,726.914307 
z"/>
</svg>