<svg version="1.1" id="Layer_1" xmlns="http://www.w3.org/2000/svg" xmlns:xlink="http://www.w3.org/1999/xlink" x="0px" y="0px"
	 width="100%" viewBox="0 0 1024 1024" enable-background="new 0 0 1024 1024" xml:space="preserve">
<path fill="#000000" opacity="1.000000" stroke="none" 
	d="
M922.700073,648.635132 
	C911.969849,662.350525 899.629395,673.890076 882.402161,676.860779 
	C872.788086,678.518616 869.673950,683.745605 866.280334,691.507812 
	C862.316650,700.574158 861.976501,707.493591 867.793884,716.480530 
	C877.394714,731.312622 878.474243,748.750183 875.017883,765.785461 
	C865.942688,810.514404 841.347290,843.223083 798.077271,859.955872 
	C780.578857,866.722656 762.733643,865.831360 745.804077,856.907593 
	C742.990295,855.424316 740.747803,855.302185 737.947632,856.961304 
	C731.070312,861.035950 724.043579,864.864502 717.002441,868.653503 
	C714.394470,870.057007 713.221008,871.898804 712.962524,874.927124 
	C711.064087,897.165466 700.570251,915.026489 684.407654,929.860840 
	C663.697144,948.869629 639.044495,959.594360 611.350464,962.697327 
	C589.435364,965.152832 568.418396,961.692322 550.050415,948.242981 
	C544.083679,943.873962 539.024475,938.537720 535.428528,932.029419 
	C533.623596,928.762573 531.398193,927.180664 527.502869,927.289124 
	C519.343628,927.516296 511.171906,927.376709 503.006958,927.267090 
	C500.277252,927.230530 498.362885,927.923767 496.884003,930.511841 
	C486.093414,949.395935 468.620117,959.259644 448.103302,961.688782 
	C399.659149,967.424683 360.106750,950.507629 331.097473,910.878113 
	C323.424377,900.395813 319.203094,888.183228 318.761444,874.979065 
	C318.662323,872.015198 317.692993,869.945923 315.075836,868.459778 
	C307.687531,864.264465 300.362671,859.957214 293.023529,855.675598 
	C291.364441,854.707642 289.841553,854.205505 287.919006,855.317139 
	C265.182434,868.464050 242.083176,866.494934 220.238342,854.332581 
	C180.060638,831.963379 157.597839,797.490112 155.044128,751.147339 
	C154.239059,736.537537 158.304016,722.754700 166.845306,710.592834 
	C168.424591,708.344116 168.894333,706.306824 167.707321,703.664124 
	C164.636795,696.828064 161.813858,689.881042 158.869705,682.987793 
	C157.942963,680.817993 156.958054,678.792847 154.190582,678.308533 
	C132.127655,674.447205 116.273804,661.421448 104.967560,642.998718 
	C83.440704,607.922241 79.348305,570.604492 93.848778,531.916382 
	C100.242233,514.858276 111.593819,501.470886 128.437805,493.480316 
	C131.497070,492.029022 133.108017,489.976379 133.295914,486.638367 
	C133.716629,479.163971 134.168045,471.690948 134.672775,464.221802 
	C134.852188,461.566803 133.615814,459.896576 131.516434,458.453247 
	C106.127922,440.998596 99.161026,415.612549 101.397408,386.707428 
	C103.618599,357.998657 114.892525,332.922241 134.195786,311.639984 
	C149.610657,294.644745 168.213760,283.415863 191.798401,282.166016 
	C192.960159,282.104462 194.224991,281.844391 195.276260,282.186127 
	C202.710678,284.602722 207.387817,281.556519 211.353210,275.288849 
	C215.349243,268.972748 220.226547,263.212555 224.747025,257.230927 
	C226.008011,255.562363 226.697403,254.063797 225.768661,251.787552 
	C215.431351,226.451538 220.931549,203.084381 236.414825,182.041672 
	C261.388580,148.100861 295.334045,130.271652 337.705292,129.950500 
	C351.534760,129.845673 364.730957,133.682632 376.448517,141.481094 
	C378.572388,142.894608 380.446381,143.442078 382.916351,142.402405 
	C392.433929,138.396133 401.999268,134.502335 411.571869,130.628555 
	C414.404663,129.482208 416.107208,127.753380 416.746429,124.553413 
	C420.633698,105.094276 431.807373,90.486427 448.380219,80.336533 
	C476.940125,62.845287 507.975494,59.149441 540.324829,66.374756 
	C562.676208,71.367012 582.314819,81.300446 596.310608,100.339333 
	C601.954163,108.016418 605.441162,116.597305 607.042847,125.904053 
	C607.559204,128.904663 608.774902,130.633713 611.551208,131.792114 
	C622.313049,136.282364 633.019043,140.907440 643.718445,145.545563 
	C645.859985,146.473953 647.629211,146.684128 649.701660,145.102463 
	C671.840820,128.206787 696.765320,126.820625 722.466431,133.405426 
	C753.429138,141.338272 778.796326,158.138931 796.656799,185.004791 
	C809.427856,204.215240 814.462402,225.048172 806.723083,247.728424 
	C805.965454,249.948654 806.141907,251.902771 807.552002,253.849457 
	C813.905457,262.620544 820.202087,271.432739 826.512939,280.234680 
	C827.636108,281.801147 828.918152,282.862213 831.068970,282.677185 
	C860.338135,280.159149 882.173096,294.144745 899.972412,315.237488 
	C920.470398,339.528229 931.138611,367.951813 929.926086,399.965942 
	C929.035217,423.487549 920.798035,443.881134 900.517639,457.838104 
	C898.451294,459.260162 897.110413,461.035736 897.311157,463.646301 
	C897.986877,472.434570 898.706604,481.219513 899.379089,490.008026 
	C899.534973,492.046112 901.074890,492.717285 902.567688,493.466431 
	C927.069580,505.763336 938.411194,527.016724 943.363464,552.828857 
	C948.776428,581.042114 944.252686,607.771118 932.000488,633.424377 
	C929.488586,638.683716 926.352722,643.621094 922.700073,648.635132 
M275.013977,712.457703 
	C280.444458,717.181335 285.223358,722.565002 289.566956,728.233765 
	C307.778564,752.001404 318.381897,778.352600 315.748932,808.899170 
	C315.529480,811.445007 316.572662,812.516479 318.447266,813.579407 
	C324.532745,817.030212 330.666595,820.410095 336.599396,824.109863 
	C339.766785,826.085144 342.202972,825.682373 345.265503,823.768372 
	C357.218445,816.298218 370.311859,812.450989 384.427856,811.627563 
	C401.162140,810.651428 417.342773,813.094788 432.962067,818.921021 
	C461.218140,829.461121 484.411163,846.121216 497.775330,874.159546 
	C499.139099,877.020691 500.931000,878.043701 503.961731,877.992981 
	C511.291962,877.870300 518.633911,877.762878 525.955139,878.052429 
	C530.087036,878.215881 532.346191,876.675842 533.941833,872.919678 
	C535.427429,869.422485 537.468628,866.107788 539.621460,862.956055 
	C557.123169,837.332703 581.908386,822.313965 611.462463,814.890442 
	C638.296814,808.150085 664.339111,809.667664 688.341736,825.140808 
	C690.382568,826.456421 692.028198,825.984863 693.897766,824.962097 
	C700.036377,821.604065 706.180054,818.251526 712.394348,815.037109 
	C714.984436,813.697388 715.987305,811.945984 715.459045,809.004944 
	C713.904602,800.351135 714.798035,791.669800 716.258057,783.157959 
	C724.081421,737.548523 764.374512,690.519043 811.409668,686.229065 
	C814.193848,685.975037 815.920593,684.811218 816.952209,682.090210 
	C819.253845,676.019592 821.755432,670.021240 824.319641,664.055420 
	C825.363953,661.625671 825.075562,659.780151 823.372375,657.690796 
	C802.082886,631.573853 798.234070,601.166992 803.531250,569.372620 
	C808.489014,539.615906 821.569153,514.045837 847.922241,497.046326 
	C849.995056,495.709229 850.779785,494.047485 850.546448,491.606995 
	C849.817932,483.987030 849.109619,476.361969 848.606873,468.724854 
	C848.356506,464.921844 846.667786,462.689362 843.089050,461.339661 
	C836.982178,459.036499 831.422058,455.656433 826.160461,451.796936 
	C810.203247,440.091919 798.361694,424.921478 790.123901,407.132629 
	C776.059998,376.762939 771.391541,345.786011 786.460876,314.183411 
	C787.613708,311.765625 787.538330,309.928833 785.922607,307.782990 
	C780.811646,300.995087 775.750977,294.163849 770.885803,287.199188 
	C768.950012,284.427887 766.785706,283.758881 763.630981,284.575592 
	C757.655579,286.122498 751.558838,287.029785 745.374512,287.182953 
	C725.931946,287.664551 707.637634,282.898560 690.566650,273.978119 
	C658.510010,257.226929 634.904419,233.520248 629.007874,196.017166 
	C628.577454,193.279968 627.067627,192.016785 624.777588,191.045609 
	C617.262573,187.858551 609.538818,185.050369 602.349792,181.239166 
	C594.764648,177.217957 589.524841,177.107834 582.102295,183.466324 
	C562.710510,200.077988 538.740356,205.859802 513.722046,205.972641 
	C484.021576,206.106613 456.670258,198.547241 434.551422,177.233154 
	C433.215363,175.945663 432.022797,175.392609 430.142883,176.191727 
	C421.866516,179.709824 413.540833,183.112289 405.224213,186.535278 
	C403.102722,187.408463 402.319977,188.987167 402.210083,191.221924 
	C401.020294,215.418915 390.003204,235.227020 372.794739,251.169754 
	C343.941315,277.901001 310.381287,292.123047 270.101074,285.244171 
	C267.704590,284.834900 265.507385,284.997620 263.836670,287.221710 
	C258.033356,294.947052 252.186020,302.639893 246.288879,310.293793 
	C244.798904,312.227600 244.586975,314.035370 245.617233,316.282654 
	C255.183105,337.148773 256.189301,358.705322 250.294693,380.660919 
	C240.668030,416.517273 222.075699,445.482391 187.166138,461.669922 
	C184.864609,462.737122 183.402527,464.120331 183.305786,466.891449 
	C183.009491,475.378784 182.603958,483.863678 182.112457,492.342072 
	C181.938522,495.342682 183.007004,497.337189 185.574249,498.936951 
	C193.294525,503.747894 199.749588,509.983643 205.241257,517.209778 
	C219.242081,535.632263 226.616470,556.581604 228.671600,579.482056 
	C231.098358,606.523560 227.227234,632.288879 209.982239,654.141846 
	C204.449081,661.153564 205.093414,666.298218 208.123154,673.644836 
	C211.564758,681.990417 215.229614,688.502808 225.590256,687.328308 
	C225.746552,687.310608 225.913086,687.403503 226.077148,687.431274 
	C244.759247,690.596863 260.323578,699.907471 275.013977,712.457703 
M325.742004,225.257812 
	C332.199951,220.485565 339.172913,216.236603 343.586853,208.090302 
	C330.405243,204.008240 323.619965,195.149612 322.704468,182.361969 
	C321.813934,182.041824 321.510956,181.855667 321.198639,181.838364 
	C320.704987,181.811050 320.181396,181.813492 319.711212,181.946945 
	C302.008423,186.971573 287.260803,196.311325 276.554932,211.543518 
	C274.465881,214.515823 275.501862,216.257507 278.568024,217.727203 
	C285.162598,220.888046 290.016266,225.833008 292.017365,232.983002 
	C293.067902,236.736694 295.181122,237.030167 298.398010,236.340393 
	C307.930603,234.296417 316.942780,231.014603 325.742004,225.257812 
M893.417542,556.495605 
	C892.464111,553.911926 890.634521,554.580566 888.936096,555.413208 
	C880.899475,559.353394 873.096008,558.586365 865.603210,554.111877 
	C862.709167,552.383606 861.117859,553.083618 859.722290,555.895752 
	C852.816895,569.810669 850.147461,584.529663 851.504333,599.943726 
	C852.012573,605.717285 853.258057,606.460876 858.926453,604.937805 
	C867.351929,602.673889 874.720764,604.745728 881.361389,610.019409 
	C885.788025,613.534912 886.295654,613.580444 888.754517,608.319031 
	C896.434387,591.885681 897.943665,574.817444 893.417542,556.495605 
M786.625305,795.921387 
	C788.326172,797.785522 789.587219,799.909180 790.618652,802.216553 
	C793.025452,807.600830 793.598877,807.728516 798.340271,803.869873 
	C810.000793,794.380005 818.106384,782.361145 823.310974,768.340027 
	C824.394287,765.421509 825.415588,762.421631 825.054382,758.977905 
	C823.981689,758.774353 823.034485,758.459839 822.079651,758.434448 
	C812.982117,758.192871 806.108154,754.054504 801.594421,746.288574 
	C799.338501,742.407227 797.010498,743.341003 794.307068,745.350525 
	C781.452698,754.905457 773.006348,767.619873 767.737427,782.582642 
	C766.731812,785.438416 767.240112,787.493469 770.843994,787.752869 
	C776.969055,788.193787 781.901306,791.112000 786.625305,795.921387 
M170.456696,608.485596 
	C172.674103,608.852478 174.631210,610.647400 177.843018,609.526245 
	C181.752792,592.582092 180.332993,575.925476 173.244202,559.729553 
	C172.059158,557.022095 170.104858,558.005920 168.276825,559.094849 
	C159.668228,564.222961 151.035233,564.579590 142.317902,559.320190 
	C138.739532,557.161316 136.847427,558.331482 136.157959,562.406555 
	C133.290222,579.355774 135.781479,595.501038 143.214096,610.930115 
	C143.840744,612.230957 144.459610,613.705383 146.645767,614.040466 
	C153.224884,608.699463 160.916214,606.296753 170.456696,608.485596 
M832.940918,381.553467 
	C835.390381,387.799591 838.847900,393.495026 842.776672,398.881226 
	C845.966248,403.254059 847.013733,403.260925 850.751587,399.319061 
	C856.889709,392.846130 864.486206,390.812714 873.055664,391.941589 
	C879.823669,392.833099 880.674316,392.144470 879.483643,385.471283 
	C877.225647,372.815918 872.328491,361.216034 864.822815,350.814209 
	C862.073425,347.003967 859.323853,342.950714 854.944031,340.726624 
	C854.204224,341.335327 853.742554,341.586670 853.456665,341.969391 
	C847.777954,349.571259 840.745728,354.590820 830.741150,354.244598 
	C827.344666,354.127075 827.127014,356.675323 827.364441,359.113403 
	C828.093445,366.598724 829.752625,373.876770 832.940918,381.553467 
M746.466003,201.905121 
	C734.820496,190.875351 721.199951,183.631851 705.424438,180.547882 
	C700.172485,179.521194 699.186646,180.245804 699.255371,185.599335 
	C699.312988,190.092697 697.973389,194.049484 695.826599,197.919617 
	C693.591064,201.949890 689.947571,204.590164 686.458801,207.806488 
	C689.713745,213.131638 694.246765,216.976730 698.833496,220.777802 
	C707.714294,228.137482 717.860229,232.964020 729.050354,235.517929 
	C731.299255,236.031189 735.136841,237.291626 734.416931,232.481125 
	C732.720154,221.143219 736.946167,212.689316 746.423035,206.674728 
	C748.601624,205.292038 748.629150,204.038284 746.466003,201.905121 
M229.770142,748.221619 
	C224.891190,757.436035 216.282425,760.456665 206.586487,761.549072 
	C206.586487,762.691650 206.440170,763.376099 206.607788,763.972290 
	C211.363419,780.886169 220.711838,794.692932 234.691345,805.351440 
	C237.674515,807.625916 238.931854,806.204041 239.993912,803.205078 
	C243.371689,793.666931 249.862976,787.489746 260.065887,785.903442 
	C263.647369,785.346680 264.069061,783.688171 262.957062,780.733887 
	C257.735840,766.862854 249.512390,755.180481 237.911133,745.882996 
	C234.446075,743.105896 231.774567,742.734802 229.770142,748.221619 
M430.770874,901.614441 
	C430.887360,893.199585 435.179993,886.892700 441.383972,881.891174 
	C440.815735,880.893127 440.663574,880.367798 440.318390,880.056702 
	C427.742615,868.724304 412.751587,863.008362 396.118408,861.218628 
	C391.963013,860.771484 392.091217,863.325623 392.684753,866.364197 
	C394.377411,875.029541 391.729187,882.427002 385.793579,888.792297 
	C384.468201,890.213562 382.260651,890.770447 381.689636,892.890137 
	C381.804199,893.269775 381.817444,893.648254 382.008179,893.881531 
	C382.531555,894.521240 383.069275,895.174011 383.706757,895.691895 
	C395.082703,904.933594 408.088745,910.600647 422.541473,912.672363 
	C431.421600,913.945312 431.619965,913.487854 430.808624,904.510132 
	C430.748871,903.848816 430.775543,903.179749 430.770874,901.614441 
M506.645844,113.103958 
	C500.085266,113.142456 493.758209,114.568230 487.553070,116.520050 
	C484.196228,117.575943 482.495636,119.355499 484.807037,123.175133 
	C489.475159,130.889404 489.584381,138.988098 485.618622,147.013824 
	C484.200684,149.883408 484.998535,151.241119 487.700012,152.313080 
	C491.915741,153.985901 496.305389,154.823044 500.767609,155.408768 
	C511.097626,156.764679 521.357178,156.437546 531.487610,153.928604 
	C536.973633,152.569901 537.390015,151.683701 534.759644,146.898788 
	C532.534180,142.850510 531.621643,138.652237 531.527161,134.013199 
	C531.401672,127.854172 534.503967,122.937325 537.208313,117.366287 
	C527.512207,113.048889 517.590576,112.867920 506.645844,113.103958 
M600.452637,872.967346 
	C596.714844,875.598511 592.414551,877.564392 589.516907,882.057373 
	C590.888916,883.235962 592.188538,884.252075 593.373901,885.387512 
	C599.684753,891.431763 602.877930,898.757385 601.018921,907.448059 
	C599.971619,912.343933 601.628662,913.375000 605.976562,912.904114 
	C621.998779,911.168823 636.113708,905.024841 648.461914,894.741760 
	C648.911133,894.367676 649.067566,893.642273 649.539612,892.737000 
	C640.764893,886.277954 635.951660,877.857117 637.891907,866.891296 
	C638.860901,861.414612 637.496521,860.542725 631.865662,861.490906 
	C620.967468,863.325806 610.501770,866.577515 600.452637,872.967346 
M164.907639,352.399658 
	C158.247894,362.550995 153.160889,373.270386 151.870636,386.417267 
	C167.526535,382.228455 178.142380,387.810181 185.105911,400.450531 
	C187.969223,399.997467 188.796646,398.047729 189.929642,396.456116 
	C196.093002,387.798065 200.252289,378.269257 202.447388,367.862488 
	C203.567810,362.550629 202.591721,361.124481 197.176422,361.236298 
	C187.217514,361.441956 179.272690,357.861298 174.222397,349.045746 
	C172.061493,345.273804 170.046188,345.265656 167.575317,348.525696 
	C166.772156,349.585358 166.045334,350.702881 164.907639,352.399658 
z"/>
<path fill="#000000" opacity="1.000000" stroke="none" 
	d="
M756.503784,521.395752 
	C749.369507,537.554749 740.222412,551.806824 728.402649,564.599304 
	C702.857422,592.246887 677.851440,620.393311 652.666870,648.373474 
	C630.825928,672.638855 609.080627,696.990295 587.223877,721.241394 
	C564.251526,746.730408 541.221802,772.167847 518.158936,797.575073 
	C513.148560,803.094727 512.981384,803.038818 508.026733,797.527893 
	C456.121643,739.794678 404.349304,681.941528 352.283478,624.353699 
	C332.958221,602.978821 314.002563,581.272827 294.021393,560.473877 
	C272.942383,538.532166 261.697174,511.900787 259.670471,481.479675 
	C255.737457,422.443726 290.210480,370.419342 344.237915,351.808624 
	C393.291718,334.911194 438.186218,344.488647 476.833160,379.889435 
	C492.929169,394.633453 503.652832,412.850800 510.504456,433.460297 
	C510.966309,434.849365 511.685394,436.152863 512.712463,438.454559 
	C527.224182,394.088562 555.198364,363.624054 599.312378,349.839172 
	C631.835632,339.676178 663.889648,342.469727 694.537842,357.601379 
	C754.942993,387.424713 781.966431,458.745880 756.503784,521.395752 
z"/>
</svg>