<svg version="1.1" id="Layer_1" xmlns="http://www.w3.org/2000/svg" xmlns:xlink="http://www.w3.org/1999/xlink" x="0px" y="0px"
	 width="100%" viewBox="0 0 1024 1024" enable-background="new 0 0 1024 1024" xml:space="preserve">
<path fill="#000000" opacity="1.000000" stroke="none" 
	d="
M50.858990,426.050720 
	C57.382740,391.832458 66.681358,358.847900 80.257156,327.207977 
	C100.990715,278.885956 128.843628,235.072281 164.269958,196.104233 
	C218.750961,136.176575 284.236877,93.021744 360.841003,66.783073 
	C394.367981,55.299313 428.816132,48.070518 464.099487,44.583176 
	C483.845367,42.631527 503.596558,41.185349 523.426575,41.944767 
	C576.737122,43.986366 628.634460,53.509232 678.534424,72.654388 
	C745.564697,98.371910 803.950623,137.232529 853.066956,189.634674 
	C902.867737,242.767105 938.550720,304.153625 959.781067,373.957977 
	C969.566101,406.130676 975.383850,438.918884 978.362427,472.355988 
	C983.326538,528.079956 977.576172,582.777893 962.784424,636.530640 
	C944.140808,704.280945 911.228882,764.488342 865.207214,817.548828 
	C811.170776,879.849976 744.993347,924.408569 667.430176,952.010071 
	C633.116577,964.220947 597.837769,972.477295 561.398804,975.537476 
	C544.464355,976.959717 527.562195,978.386719 510.555603,978.304749 
	C430.882294,977.920654 355.997101,959.159058 286.009491,920.735474 
	C245.944519,898.739563 209.901413,871.459229 177.932983,839.039246 
	C139.229736,799.789185 108.491455,754.818115 85.571617,704.578125 
	C66.497047,662.766968 54.008873,619.086121 47.620892,573.599976 
	C44.977219,554.775574 43.333027,535.859619 43.053116,516.888123 
	C42.605087,486.521942 45.423565,456.372742 50.858990,426.050720 
M177.941635,269.413025 
	C159.308807,294.214966 145.074661,321.493988 132.633820,349.788208 
	C131.425735,352.535736 130.487564,354.894318 133.686813,357.174286 
	C142.249237,363.276459 149.773300,370.643982 157.796188,377.406403 
	C192.991180,407.071838 231.350540,432.572296 267.665802,460.777954 
	C303.848694,488.880798 340.716644,516.100403 377.196075,543.823242 
	C388.171661,552.164246 388.039154,552.342773 384.027802,565.433716 
	C383.491364,567.184326 382.953217,568.936218 382.348145,570.663757 
	C369.027069,608.697021 355.472961,646.651306 342.548248,684.818726 
	C339.824036,692.863403 335.530273,698.368042 328.181946,702.244934 
	C305.902771,713.999390 284.539032,727.259460 264.129517,742.042603 
	C263.123749,742.771118 262.131958,743.924377 260.554352,743.210693 
	C259.693024,741.830078 260.657349,740.640991 261.067291,739.463135 
	C279.680359,685.983704 298.273987,632.497375 317.058716,579.078247 
	C318.516083,574.933838 318.077515,572.480835 314.485870,569.824036 
	C298.410553,557.932678 282.485565,545.837097 266.558624,533.746399 
	C216.788864,495.964417 167.050781,458.140625 117.276558,420.364502 
	C111.553909,416.021301 110.594788,416.454102 109.094009,423.546082 
	C97.785378,476.985321 96.811325,530.669189 106.585884,584.354553 
	C117.239845,642.869995 139.872223,696.624512 173.898453,745.398987 
	C191.381012,770.459229 211.125778,793.691345 234.012543,814.093506 
	C240.257202,819.660217 240.205795,819.495300 247.021606,815.192200 
	C271.539185,799.713196 293.801910,780.998718 318.432678,765.666199 
	C330.873505,757.921936 342.870270,749.465759 355.094421,741.371643 
	C404.273193,708.808533 453.490204,676.302917 502.591705,643.623779 
	C506.289459,641.162781 508.756134,641.285400 512.218872,643.934143 
	C549.404480,672.378662 586.693787,700.687805 623.988403,728.989563 
	C626.975891,731.256714 628.388916,734.287415 629.324036,737.742371 
	C637.029358,766.210815 646.725464,794.041443 656.303101,821.910645 
	C656.856262,823.520081 658.165771,825.113770 657.049255,827.000854 
	C655.415649,827.215088 654.525024,826.091919 653.496643,825.309082 
	C605.899414,789.074829 558.271484,752.880615 510.782501,716.505066 
	C506.705933,713.382446 503.863434,713.023132 499.423706,715.985107 
	C453.967102,746.312134 408.346893,776.393921 362.782623,806.559570 
	C339.996918,821.644714 317.218140,836.740417 294.469238,851.880981 
	C289.544159,855.158875 289.451752,856.623657 293.775696,859.309753 
	C357.337189,898.794556 426.576477,919.696533 501.319458,921.725891 
	C544.202454,922.890198 586.356689,917.496399 627.561890,905.085632 
	C657.511475,896.065125 686.227600,884.277527 713.447876,868.834229 
	C716.767090,866.951111 717.769836,865.118713 716.487610,861.301697 
	C710.814209,844.412354 705.301331,827.465637 699.994263,810.457397 
	C688.742798,774.397461 677.487488,738.337097 666.543701,702.183105 
	C652.604187,656.131958 639.014099,609.975037 625.130188,563.906860 
	C623.934998,559.941223 624.623535,557.695740 628.087708,555.258606 
	C669.647278,526.020630 711.164124,496.720306 752.507202,467.177521 
	C760.376465,461.554321 768.071533,457.058319 778.188049,459.579163 
	C780.072998,460.048889 782.171387,459.668793 784.171265,459.669678 
	C808.336304,459.680237 832.501404,459.669037 856.666260,459.736633 
	C858.519531,459.741821 860.638367,458.990692 862.211304,460.681885 
	C862.067688,462.404388 860.716064,462.945709 859.676697,463.679443 
	C822.246399,490.102509 784.811279,516.518616 747.357361,542.908081 
	C730.196411,554.999390 713.029053,567.082397 695.779907,579.047180 
	C692.683228,581.195190 691.809143,583.389282 693.157715,587.013489 
	C694.837646,591.528076 695.905151,596.268372 697.290466,600.895203 
	C708.179016,637.262146 719.076782,673.626343 729.978638,709.989319 
	C741.691528,749.057190 753.395325,788.127686 765.149902,827.183044 
	C766.608826,832.030457 767.859924,832.432678 771.663391,829.223877 
	C782.105774,820.414124 792.656921,811.685974 802.224121,801.931946 
	C827.884033,775.770752 850.425354,747.168884 868.597839,715.257324 
	C906.041321,649.505005 924.322327,578.752563 923.591003,503.121521 
	C923.497864,493.483948 922.581482,483.840027 921.729675,474.227112 
	C920.185852,456.804688 917.929138,439.479340 914.250854,422.349884 
	C913.379517,418.292297 911.475037,416.735718 907.396973,417.092834 
	C904.088684,417.382599 900.735596,417.179077 897.402466,417.164886 
	C869.406677,417.045746 841.412109,417.109314 813.414734,416.711639 
	C793.940613,416.434967 774.493591,418.734436 754.979858,418.172455 
	C740.491882,417.755219 725.997253,417.497528 711.503784,417.351715 
	C669.347046,416.927490 627.189697,416.542267 585.031677,416.306610 
	C580.688416,416.282318 578.322693,415.051422 577.229614,410.636658 
	C575.471436,403.535706 573.185303,396.564850 571.100586,389.545441 
	C560.907837,355.225525 551.157349,320.764313 540.276550,286.663818 
	C536.247070,274.035492 535.622620,262.733673 540.366455,250.046204 
	C548.990356,226.981537 554.737610,202.906967 563.241943,179.756073 
	C564.108582,177.396957 564.547974,174.702637 566.648621,172.931000 
	C568.596069,174.151047 568.636047,175.966888 569.092529,177.491547 
	C577.209656,204.602814 585.296387,231.723251 593.351440,258.853088 
	C602.685913,290.292328 612.028931,321.729309 621.231873,353.207123 
	C622.244202,356.669617 623.871765,358.001434 627.517883,358.011810 
	C638.010681,358.041656 648.501099,358.529541 658.994751,358.672546 
	C695.817200,359.174469 732.643372,358.646027 769.470093,359.541809 
	C798.621094,360.250885 827.797668,359.874603 856.962219,360.077179 
	C867.454956,360.150024 877.945068,360.621002 888.437683,360.684113 
	C893.789856,360.716309 894.625427,359.252899 892.612305,354.234924 
	C871.513733,301.645721 840.299805,255.680374 799.960449,216.159042 
	C752.492432,169.653580 696.696777,136.740128 633.123352,116.954491 
	C605.626343,108.396744 577.591003,103.073456 549.005371,100.304306 
	C545.104736,99.926453 541.260986,99.170380 539.377563,104.645134 
	C529.035217,134.708649 517.666138,164.436905 507.999268,194.711227 
	C485.510376,265.140961 462.216522,335.305786 439.538910,405.671661 
	C437.913574,410.714783 435.551422,412.367615 430.331329,412.314056 
	C408.171722,412.086639 386.014923,411.915375 363.855164,411.472015 
	C339.031097,410.975372 314.192352,411.061462 289.361267,411.173431 
	C283.354950,411.200562 278.488708,409.479187 273.749634,405.837280 
	C251.685883,388.881866 229.442902,372.159668 207.279617,355.333557 
	C206.296204,354.586945 204.789490,354.111450 205.153656,352.301727 
	C206.993790,351.133850 209.031952,351.692322 210.967590,351.706146 
	C270.291351,352.129639 329.615479,352.525024 388.937317,353.144196 
	C393.844299,353.195435 395.931763,351.539185 397.375671,346.985779 
	C407.542725,314.922852 417.921448,282.926758 428.306427,250.933258 
	C442.600220,206.897644 457.018250,162.902252 471.218475,118.836578 
	C473.078857,113.063507 475.672485,107.411240 476.171936,101.456474 
	C474.836395,100.237656 473.664032,100.393929 472.507477,100.533707 
	C465.404083,101.392166 458.280426,102.113586 451.202484,103.147339 
	C392.438202,111.729950 338.251373,132.648071 288.363983,164.596741 
	C245.107880,192.298569 208.461533,227.160919 177.941635,269.413025 
z"/>
</svg>