<?xml version="1.0" standalone="no"?>
<!DOCTYPE svg PUBLIC "-//W3C//DTD SVG 20010904//EN"
 "http://www.w3.org/TR/2001/REC-SVG-20010904/DTD/svg10.dtd">
<svg version="1.0" xmlns="http://www.w3.org/2000/svg"
 width="1024.000000pt" height="1024.000000pt" viewBox="0 0 1024.000000 1024.000000"
 preserveAspectRatio="xMidYMid meet">

<g transform="translate(0.000000,1024.000000) scale(0.100000,-0.100000)"
fill="#000000" stroke="none">
<path d="M8870 9595 c-36 -8 -103 -33 -150 -56 l-85 -41 -3928 -3927 c-2637
-2636 -3943 -3947 -3973 -3991 -91 -133 -128 -329 -90 -480 57 -229 236 -405
462 -456 161 -35 333 -3 471 89 50 34 1115 1094 3994 3974 l3927 3928 41 85
c75 153 89 310 42 460 -58 185 -215 343 -401 401 -86 27 -225 33 -310 14z"/>
<path d="M4840 9484 c-415 -29 -783 -99 -1130 -214 -400 -133 -716 -285 -1053
-507 -287 -189 -469 -341 -739 -616 -165 -168 -179 -180 -195 -165 -162 140
-856 707 -862 704 -7 -5 68 -844 171 -1931 l43 -450 80 2 c44 1 422 34 840 73
896 83 789 73 1150 105 160 15 299 30 310 34 16 6 -61 74 -448 396 -257 213
-467 394 -467 401 0 19 256 273 374 371 460 383 1039 647 1623 738 416 65 838
55 1240 -30 145 -30 398 -108 553 -169 l114 -46 85 83 c46 45 217 214 379 376
274 274 293 295 276 308 -39 29 -345 173 -479 226 -404 158 -759 246 -1185
292 -139 15 -565 27 -680 19z"/>
<path d="M8545 6814 c-203 -206 -371 -375 -372 -377 -2 -2 20 -64 48 -138 219
-582 274 -1186 165 -1814 -99 -566 -396 -1177 -779 -1606 -441 -494 -930 -807
-1577 -1010 -258 -82 -553 -127 -870 -136 -460 -12 -863 57 -1303 224 l-118
45 -52 -49 c-28 -26 -200 -196 -381 -377 -307 -307 -327 -330 -310 -344 71
-53 461 -221 702 -301 772 -258 1650 -290 2442 -90 1577 399 2797 1623 3194
3205 40 160 78 374 103 583 25 209 25 739 0 941 -53 435 -138 775 -292 1165
-62 158 -205 455 -219 454 -6 0 -177 -169 -381 -375z"/>
<path d="M684 4976 c23 -584 138 -1102 357 -1614 73 -169 181 -382 195 -382
11 0 586 568 710 700 l45 48 -44 114 c-103 260 -171 510 -206 753 -22 155 -41
373 -41 477 l0 68 -217 0 c-120 0 -350 3 -512 7 l-294 6 7 -177z"/>
</g>
</svg>
