<?xml version="1.0" standalone="no"?>
<!DOCTYPE svg PUBLIC "-//W3C//DTD SVG 20010904//EN"
 "http://www.w3.org/TR/2001/REC-SVG-20010904/DTD/svg10.dtd">
<svg version="1.0" xmlns="http://www.w3.org/2000/svg"
 width="1024.000000pt" height="1024.000000pt" viewBox="0 0 1024.000000 1024.000000"
 preserveAspectRatio="xMidYMid meet">

<g transform="translate(0.000000,1024.000000) scale(0.100000,-0.100000)"
fill="#000000" stroke="none">
<path d="M4996 9499 c-314 -46 -603 -270 -733 -570 -62 -143 -90 -322 -73
-463 24 -196 77 -334 187 -487 110 -154 288 -283 463 -337 252 -77 496 -61
716 48 124 60 201 118 291 214 311 335 338 849 64 1220 -208 281 -563 426
-915 375z"/>
<path d="M7539 9306 c-2 -2 -50 -9 -107 -15 -223 -24 -436 -134 -623 -320
-124 -125 -207 -254 -278 -434 -33 -83 -46 -144 -61 -298 -14 -142 9 -360 48
-463 l27 -70 70 -13 c86 -16 233 -87 310 -149 79 -65 155 -160 203 -256 39
-78 72 -179 72 -221 0 -24 64 -52 177 -77 260 -58 522 -26 761 92 l104 50 291
-5 c313 -5 354 -11 443 -63 90 -53 170 -165 192 -269 7 -31 11 -271 12 -635 1
-322 3 -596 4 -610 2 -14 5 -335 7 -715 l4 -690 -26 -56 c-112 -238 -437 -238
-547 -1 l-27 57 -6 485 c-4 267 -10 750 -13 1074 -3 324 -7 590 -9 592 -1 1
-25 4 -52 6 l-50 3 0 -2295 c0 -2176 -1 -2298 -18 -2360 -43 -154 -135 -287
-229 -330 -60 -27 -148 -26 -207 2 -98 47 -183 170 -227 328 -17 61 -19 139
-22 1293 l-3 1227 -124 0 -125 0 0 -1132 c0 -623 -5 -1182 -10 -1243 -16 -191
-64 -318 -155 -410 -60 -61 -111 -87 -183 -93 -44 -4 -63 0 -117 27 -79 39
-125 91 -176 196 -70 146 -69 133 -69 1091 0 788 -1 856 -16 850 -46 -18 -211
-36 -265 -30 l-59 7 0 -849 c0 -793 1 -856 19 -959 24 -133 46 -198 108 -318
39 -75 64 -109 141 -184 97 -96 169 -141 262 -162 58 -14 262 -14 320 0 82 19
163 66 245 142 l80 74 79 -74 c123 -114 226 -153 401 -153 117 1 168 11 250
50 193 93 362 322 418 562 21 91 21 113 24 1049 l4 957 122 4 c101 4 132 9
183 30 175 73 316 211 382 375 l27 68 0 680 c0 1459 -6 2085 -21 2160 -16 75
-75 201 -130 277 -50 67 -144 151 -224 199 -128 76 -266 109 -451 109 l-90 0
24 33 c65 85 131 251 163 407 21 102 24 335 5 425 -41 198 -92 327 -183 462
-68 101 -212 246 -312 313 -91 61 -260 143 -328 159 -117 28 -421 53 -439 37z
m244 -341 c114 -20 199 -52 293 -110 189 -118 324 -299 380 -510 15 -54 19
-103 18 -215 -1 -127 -4 -156 -28 -235 -84 -278 -314 -500 -591 -570 -137 -35
-222 -40 -335 -21 -113 20 -174 38 -255 79 -262 130 -427 369 -464 672 -31
256 92 560 293 723 206 168 439 231 689 187z"/>
<path d="M2365 9274 c-222 -30 -401 -115 -589 -279 -121 -106 -262 -312 -311
-454 -90 -265 -92 -529 -5 -785 27 -82 78 -185 122 -248 10 -14 18 -29 18 -32
0 -3 -72 -6 -160 -6 -239 0 -352 -29 -500 -130 -126 -86 -250 -257 -281 -387
-8 -35 -11 -427 -9 -1442 1 -1322 3 -1398 20 -1467 37 -145 121 -259 258 -351
123 -83 174 -98 334 -98 l128 0 0 -931 c0 -1042 -1 -1029 70 -1223 72 -194
227 -374 378 -438 64 -27 74 -28 228 -28 l161 0 85 42 c62 31 106 63 163 117
l78 75 85 -79 c135 -127 240 -166 422 -157 139 7 209 32 314 112 178 135 287
348 321 627 12 102 14 251 11 858 -2 404 -4 760 -5 791 l-1 56 -95 13 c-51 7
-124 22 -160 35 l-66 22 2 -861 c1 -617 -2 -879 -10 -923 -46 -243 -181 -403
-342 -403 -140 0 -273 137 -324 335 -30 114 -34 313 -35 1423 l0 1112 -125 0
-125 0 0 -1184 c0 -793 -4 -1210 -11 -1262 -12 -87 -56 -217 -90 -266 -38 -56
-102 -119 -144 -141 -61 -33 -165 -31 -226 5 -95 56 -169 166 -212 317 l-22
76 -2 2299 c-1 1347 -6 2303 -11 2308 -5 5 -38 8 -73 6 l-64 -3 0 -1095 0
-1095 -28 -57 c-30 -61 -74 -105 -140 -140 -61 -33 -193 -33 -257 1 -103 53
-157 136 -170 260 -4 42 -8 456 -9 921 0 465 -4 1030 -7 1256 -7 401 -7 412
14 481 43 141 159 249 302 282 25 6 175 11 342 11 l298 0 107 -55 c268 -138
538 -169 828 -95 40 10 95 29 121 42 48 22 49 25 57 78 37 266 233 492 502
581 60 20 112 43 116 50 18 34 60 222 68 302 14 143 -5 270 -76 501 -15 49
-63 138 -130 244 -49 78 -212 238 -303 299 -165 110 -281 154 -474 178 -145
18 -223 17 -361 -1z m405 -323 c148 -40 322 -146 415 -256 158 -185 235 -429
205 -654 -31 -240 -165 -465 -353 -593 -326 -222 -731 -202 -1036 52 -113 94
-222 268 -261 420 -126 475 177 951 665 1046 93 18 267 11 365 -15z"/>
<path d="M3691 7419 c-165 -32 -319 -181 -356 -344 -13 -53 -10 -1660 4 -2595
l7 -475 26 -56 c36 -79 89 -133 166 -171 59 -29 76 -33 147 -33 65 1 91 6 137
27 103 48 171 136 197 255 8 38 9 388 4 1258 l-6 1205 87 0 87 0 -1 -2602 c-1
-2569 -1 -2604 19 -2698 53 -249 208 -424 375 -424 168 1 306 143 378 390 l23
79 3 1403 3 1402 144 0 145 0 0 -1328 c0 -855 4 -1358 10 -1412 30 -245 132
-430 276 -501 68 -33 169 -33 238 1 123 59 215 201 264 405 16 65 17 260 17
2665 l0 2595 55 0 55 0 6 -145 c4 -80 10 -599 13 -1155 4 -555 11 -1047 16
-1092 12 -108 45 -177 116 -242 189 -173 485 -82 554 169 10 34 12 181 11 593
-1 301 -4 567 -6 590 -2 23 -6 445 -10 937 -7 856 -8 898 -27 955 -53 162
-196 286 -363 313 -33 6 -198 13 -366 17 l-307 6 -101 -51 c-399 -200 -832
-193 -1228 21 l-92 49 -338 -1 c-186 -1 -358 -5 -382 -10z"/>
</g>
</svg>
