<svg version="1.1" id="Layer_1" xmlns="http://www.w3.org/2000/svg" xmlns:xlink="http://www.w3.org/1999/xlink" x="0px" y="0px"
	 width="100%" viewBox="0 0 1024 1024" enable-background="new 0 0 1024 1024" xml:space="preserve">
<path fill="#000000" opacity="1.000000" stroke="none" 
	d="
M345.180298,934.931030 
	C293.188568,911.311035 247.981613,878.982544 209.772522,836.947998 
	C168.068588,791.068542 138.435410,738.379944 120.387924,679.120300 
	C112.998070,654.855530 108.136246,630.105164 105.544914,604.854858 
	C104.013237,589.929932 102.710999,575.006653 102.890228,560.015808 
	C103.573257,502.887878 114.576363,447.820801 138.171402,395.721985 
	C182.755157,297.279144 255.012695,226.679077 354.413422,184.244202 
	C386.680786,170.469040 420.293610,160.929977 455.255188,156.693130 
	C458.868011,156.255310 461.089722,155.154144 460.756256,150.805084 
	C460.375122,145.834274 460.469666,140.803040 460.715118,135.815659 
	C460.913269,131.789749 458.939728,130.433716 455.365692,130.424149 
	C449.699615,130.408966 444.033569,130.400452 438.367493,130.399551 
	C420.873901,130.396790 403.378387,130.561234 385.887177,130.356476 
	C365.838959,130.121780 350.806885,115.054970 350.816681,95.582283 
	C350.826263,76.539734 366.339905,60.884163 386.118805,60.828674 
	C451.781830,60.644440 517.445679,60.736015 583.109192,60.726089 
	C599.108459,60.723667 615.108826,60.618587 631.106628,60.775101 
	C649.695129,60.956959 663.435486,72.804459 666.532837,91.023643 
	C669.786499,110.161552 654.030518,129.820038 634.476624,130.192307 
	C612.152710,130.617294 589.815247,130.336105 567.483704,130.355530 
	C560.246277,130.361832 560.244141,130.352798 560.236511,137.476181 
	C560.232605,141.142654 560.255127,144.809235 560.235413,148.475601 
	C560.197144,155.581726 560.171631,155.719193 566.997620,156.542328 
	C594.560730,159.866196 621.300171,166.614624 647.432983,175.844849 
	C711.667786,198.532852 766.895691,234.842361 813.022156,285.062317 
	C864.319214,340.911804 897.130859,406.166656 912.594910,480.209900 
	C917.224548,502.376862 919.569275,524.875061 920.390686,547.557373 
	C922.857422,615.669373 908.836060,680.313354 879.091614,741.422180 
	C862.030029,776.474426 840.174255,808.421509 813.742615,837.316101 
	C779.112732,875.172668 738.892395,905.445984 693.025574,928.098999 
	C653.351746,947.693359 611.552551,960.687988 567.530823,966.487183 
	C543.016052,969.716675 518.456177,971.244080 493.808533,970.100708 
	C442.232361,967.708435 392.782623,955.955505 345.180298,934.931030 
M616.539062,883.921082 
	C663.203491,868.807556 704.813843,844.866943 740.743408,811.502136 
	C807.755798,749.273132 844.107117,672.159180 850.512451,581.081055 
	C852.694458,550.055603 850.086731,519.126709 843.200378,488.786407 
	C829.687439,429.251007 802.659485,376.659424 761.090759,331.668030 
	C731.313660,299.439178 696.690186,273.755463 657.068420,255.117554 
	C604.747742,230.506134 549.642883,219.466095 491.733887,223.159454 
	C473.096802,224.348129 454.614899,226.616852 436.465607,230.890244 
	C377.705688,244.725739 325.962555,271.854401 281.501770,312.894989 
	C249.363953,342.560516 223.971771,377.160400 205.383163,416.593994 
	C176.515671,477.833099 167.105286,542.169006 176.212067,609.280151 
	C180.293167,639.355225 188.579132,668.248169 200.674835,695.958191 
	C226.479599,755.074524 265.596375,803.531189 318.877045,840.125000 
	C382.520569,883.836121 452.957825,903.914246 530.186646,899.918762 
	C559.428162,898.406006 587.997070,893.450806 616.539062,883.921082 
z"/>
<path fill="#000000" opacity="1.000000" stroke="none" 
	d="
M567.091431,530.044922 
	C570.968750,536.338257 574.058960,542.584534 575.415466,549.550354 
	C576.007080,552.588440 578.058533,553.799927 580.790405,554.721008 
	C602.556335,562.059692 624.282410,569.516418 646.028381,576.914185 
	C664.918213,583.340332 675.204895,599.360474 671.828491,617.149658 
	C667.940186,637.635193 647.745972,650.408020 627.725647,644.107178 
	C603.599609,636.514221 579.729675,628.098816 555.827271,619.813232 
	C551.714111,618.387390 548.531677,618.551453 544.616577,620.722595 
	C505.216431,642.572388 456.358459,617.567322 450.772980,572.859131 
	C447.025879,542.865723 465.211548,514.073242 494.023224,504.806396 
	C497.711548,503.620117 499.841003,501.762817 501.333496,498.263397 
	C524.715027,443.441193 548.293701,388.702881 571.576355,333.838928 
	C576.660950,321.857422 583.773010,312.352692 596.869202,308.934204 
	C610.718262,305.319122 622.802490,309.064728 632.124390,319.722351 
	C641.605530,330.562042 643.517944,343.221039 637.840393,356.550201 
	C619.834412,398.822754 601.653870,441.020966 583.562195,483.257080 
	C577.990356,496.264771 572.484070,509.300537 566.954895,522.326477 
	C565.912415,524.782471 564.599426,527.250916 567.091431,530.044922 
z"/>
<path fill="#000000" opacity="1.000000" stroke="none" 
	d="
M349.938385,363.062683 
	C367.174652,380.685699 384.194122,398.026245 401.135040,415.443207 
	C408.619934,423.138458 412.271698,432.062714 408.273315,442.699646 
	C401.773468,459.991394 381.864807,464.806976 367.892029,452.351654 
	C361.692474,446.825378 356.082031,440.634613 350.248779,434.701630 
	C333.330902,417.494537 316.418304,400.282227 299.540100,383.036255 
	C292.832520,376.182556 288.691498,368.392151 290.770477,358.352722 
	C294.669006,339.526703 316.800079,331.820312 331.260437,344.536530 
	C337.745422,350.239288 343.567017,356.696472 349.938385,363.062683 
z"/>
<path fill="#000000" opacity="1.000000" stroke="none" 
	d="
M394.311035,714.311462 
	C373.165924,734.878723 352.384399,755.314148 331.360474,775.497009 
	C316.684052,789.586365 294.037415,783.118896 289.398193,763.615906 
	C286.939758,753.280640 291.325165,745.073242 298.496979,738.067688 
	C318.034760,718.982544 337.623474,699.949585 357.191376,680.895264 
	C360.771057,677.409546 364.241943,673.803711 367.946381,670.456177 
	C377.827881,661.526978 391.719177,661.440002 401.569824,670.115540 
	C410.976776,678.400269 412.309204,692.325623 404.784485,703.133057 
	C401.899017,707.277344 397.992065,710.441711 394.311035,714.311462 
z"/>
<path fill="#000000" opacity="1.000000" stroke="none" 
	d="
M791.787231,588.145020 
	C761.659485,588.146057 732.007019,588.173401 702.354675,588.125488 
	C693.378906,588.110962 685.085815,586.135620 679.230896,578.576538 
	C673.092712,570.651794 671.824646,561.934021 675.942017,552.753662 
	C680.474915,542.646484 689.041626,538.121338 699.575623,538.032593 
	C730.891113,537.768738 762.212585,537.760864 793.527283,538.082397 
	C804.077087,538.190735 812.558533,542.989075 817.045410,553.040771 
	C821.155884,562.249023 819.655579,570.955688 813.498169,578.826660 
	C808.120178,585.701355 800.513000,587.705872 791.787231,588.145020 
z"/>
<path fill="#000000" opacity="1.000000" stroke="none" 
	d="
M724.502136,785.692017 
	C712.814087,791.532471 702.306458,790.332336 693.574768,781.198059 
	C671.601135,758.211304 649.727417,735.118225 628.300415,711.623779 
	C615.795959,697.912720 620.468872,677.742371 637.259155,671.298157 
	C647.327942,667.433655 656.717407,669.534424 664.271912,677.429871 
	C677.853333,691.624329 691.246155,705.999268 704.707397,720.308594 
	C712.578674,728.675598 720.397461,737.092163 728.297424,745.431885 
	C740.595459,758.414429 739.181580,774.951965 724.502136,785.692017 
z"/>
<path fill="#000000" opacity="1.000000" stroke="none" 
	d="
M672.122314,444.105225 
	C668.779419,447.841766 665.655701,451.299805 662.538696,454.763885 
	C652.905640,465.469452 637.653015,466.857361 627.182373,457.978149 
	C616.895569,449.254883 615.330078,433.874329 624.400452,423.014282 
	C634.638855,410.755737 645.524292,399.036285 656.169006,387.118744 
	C666.702209,375.326050 677.176941,363.478149 687.887024,351.847626 
	C694.795593,344.345215 703.341797,340.830475 713.557983,343.682373 
	C723.838135,346.552155 729.966248,353.563232 731.830933,364.010010 
	C733.206482,371.716797 730.686829,378.579803 725.649353,384.339996 
	C715.462097,395.988800 705.065796,407.455017 694.733398,418.976562 
	C687.289124,427.277588 679.808838,435.546356 672.122314,444.105225 
z"/>
<path fill="#000000" opacity="1.000000" stroke="none" 
	d="
M486.692810,774.999756 
	C486.739288,767.335266 486.627991,760.165527 486.865204,753.007263 
	C487.285583,740.323547 494.623566,730.788574 505.942291,727.861145 
	C519.645264,724.317017 534.067200,734.085510 536.317871,748.078552 
	C537.289673,754.120789 536.348389,760.041565 536.286865,766.012146 
	C536.020630,791.830261 535.672058,817.647827 535.250061,843.463928 
	C535.043884,856.081726 527.065247,865.862244 515.330933,868.230530 
	C500.091644,871.306213 486.011353,860.032837 485.706116,844.451538 
	C485.255615,821.457275 486.455444,798.485046 486.692810,774.999756 
z"/>
<path fill="#000000" opacity="1.000000" stroke="none" 
	d="
M262.992828,588.315979 
	C250.188873,587.895691 237.835709,589.096069 225.572998,587.291138 
	C213.699219,585.543518 204.872345,575.409424 204.743530,563.467468 
	C204.610489,551.136353 213.175568,540.910461 225.156998,538.694580 
	C231.667404,537.490601 238.101624,538.487061 244.577515,538.583984 
	C257.737640,538.780884 270.902283,538.671814 284.062714,538.856445 
	C296.550964,539.031616 309.037262,539.384216 321.522552,539.725647 
	C335.198517,540.099670 346.204224,551.076782 346.215546,564.267578 
	C346.227173,577.881165 335.433075,589.133423 321.446350,589.162720 
	C302.128754,589.203125 282.809906,588.628296 262.992828,588.315979 
z"/>
<path fill="#000000" opacity="1.000000" stroke="none" 
	d="
M533.048584,273.291748 
	C534.305298,276.621765 535.279968,279.614166 535.278198,282.847443 
	C535.262085,312.509155 535.371582,342.171509 535.202820,371.832306 
	C535.137817,383.264343 527.550415,392.409088 516.388855,395.460541 
	C506.340118,398.207672 495.378235,393.799713 489.566711,384.602448 
	C486.729858,380.112885 485.636230,375.175140 485.648712,369.856018 
	C485.714661,341.694031 485.652161,313.531799 485.686432,285.369690 
	C485.702728,271.959747 492.719666,262.338867 504.563049,259.277710 
	C515.605957,256.423462 526.506531,261.678802 533.048584,273.291748 
z"/>
</svg>