<svg version="1.1" id="Layer_1" xmlns="http://www.w3.org/2000/svg" xmlns:xlink="http://www.w3.org/1999/xlink" x="0px" y="0px"
	 width="100%" viewBox="0 0 512 512" enable-background="new 0 0 512 512" xml:space="preserve">
<path fill="#000000" opacity="1.000000" stroke="none" 
	d="
M352.368958,52.521851 
	C374.128082,61.745869 393.749634,73.639633 410.827942,89.551224 
	C414.955292,93.396622 419.167175,97.154190 423.416626,100.864601 
	C426.220795,103.313034 429.797607,103.467911 433.254913,103.603188 
	C437.580536,103.772453 441.920197,103.756775 446.248230,103.630737 
	C449.237396,103.543694 450.428070,104.728783 450.360260,107.743301 
	C450.229279,113.571709 450.680573,119.431313 450.248413,125.230133 
	C449.743195,132.009155 451.545837,137.743149 455.189636,143.473816 
	C470.229004,167.126602 480.014160,192.933212 485.034851,220.464691 
	C489.383057,244.308395 489.527740,268.202759 485.672455,292.230957 
	C482.664307,310.979553 478.082306,329.251648 471.188354,346.869720 
	C466.601288,358.592224 461.152405,370.010223 454.295258,380.648254 
	C451.527618,384.941956 450.173950,389.350128 450.223541,394.628998 
	C450.472412,421.118439 450.203156,447.612793 450.458832,474.102112 
	C450.508759,479.274963 448.866608,480.515045 443.924011,480.485352 
	C410.602234,480.285309 377.276550,480.592896 343.956726,480.267365 
	C330.425568,480.135162 317.240448,481.382568 304.031097,484.422211 
	C283.826508,489.071472 263.295074,489.261932 242.653503,487.555450 
	C229.380981,486.458160 216.427902,483.982147 203.536621,480.870575 
	C201.630707,480.410553 199.586716,480.390991 197.606476,480.389740 
	C157.452301,480.364746 117.298111,480.376495 77.143921,480.369080 
	C69.712646,480.367706 69.658234,480.311859 69.655327,472.791443 
	C69.644508,444.800140 69.631882,416.808777 69.677826,388.817566 
	C69.682304,386.089325 69.229706,383.716888 67.691238,381.317841 
	C50.725666,354.862244 39.290482,326.204834 34.868408,295.039673 
	C31.447018,270.926971 32.095123,246.849594 36.229816,222.729675 
	C40.482029,197.924210 48.509281,174.556320 59.791744,152.191193 
	C60.838356,150.116501 61.925510,148.034149 63.247223,146.131378 
	C68.025200,139.252853 70.826279,131.962387 69.752983,123.317406 
	C69.182579,118.723061 69.887604,113.984192 69.584320,109.338806 
	C69.304726,105.056396 70.658401,103.419167 75.167770,103.538857 
	C80.780167,103.687828 86.404266,103.952446 92.076538,102.921852 
	C95.493401,102.301048 97.839172,100.834618 100.157623,98.607773 
	C123.217484,76.459122 149.669373,59.481300 179.387985,47.819038 
	C197.484726,40.717464 216.221466,36.080280 235.765945,34.440521 
	C248.760162,33.350323 261.757690,33.130268 274.642426,33.880344 
	C294.652679,35.045223 314.311096,38.939850 333.403748,45.398224 
	C339.695129,47.526375 345.954132,49.670174 352.368958,52.521851 
M343.368286,404.382599 
	C346.008301,411.719482 348.050262,419.346588 351.435333,426.321899 
	C355.964020,435.653839 359.787537,439.840393 370.876892,434.526764 
	C373.830719,433.111389 377.608154,432.421936 379.769104,434.956757 
	C383.110992,438.876892 385.452759,436.741516 388.188110,434.791382 
	C408.092316,420.600830 425.157715,403.627869 438.898865,383.343384 
	C440.767303,380.585175 441.647247,377.837830 441.691498,374.530029 
	C442.228149,334.403381 440.802490,294.273865 442.494354,254.138748 
	C443.385010,233.010605 442.663757,211.814026 442.632446,190.648392 
	C442.629822,188.871445 443.066559,186.953278 441.420593,185.148697 
	C439.381226,185.403717 436.787750,184.667587 435.416718,187.195053 
	C433.722717,190.318008 430.650269,190.948563 427.799133,191.161789 
	C420.629486,191.697983 413.456604,193.267029 406.205811,191.522369 
	C404.682312,191.155777 402.919556,191.640198 401.289398,191.882767 
	C387.037292,194.003586 372.881165,197.888443 358.357056,196.204178 
	C350.106842,195.247437 341.887054,193.530640 333.631104,194.566162 
	C326.473206,195.463959 319.358917,195.289551 312.219879,195.353806 
	C303.585602,195.431534 301.290466,197.366653 298.466156,205.370667 
	C295.039642,215.081207 292.646027,225.053375 290.845093,235.114227 
	C289.310394,243.687897 290.810913,252.387665 291.996948,260.979218 
	C292.924072,267.695068 296.890625,273.746002 296.341400,280.786224 
	C295.946472,285.848755 297.698792,290.229950 300.525299,294.309174 
	C304.407623,299.912170 307.172668,306.002228 309.581207,312.423920 
	C314.865936,326.514191 314.140320,342.302979 322.087982,355.615112 
	C323.049622,357.225800 323.035004,359.452362 323.343018,361.413849 
	C324.164307,366.643860 324.964996,371.754944 328.650787,376.064392 
	C335.542419,384.122162 340.095398,393.506134 343.368286,404.382599 
M157.494598,422.817169 
	C158.852753,416.851685 160.359268,410.915436 161.540970,404.915222 
	C164.933838,387.687378 172.401657,372.875336 185.061478,360.328705 
	C191.566498,353.881805 194.924088,344.693207 200.924316,337.568604 
	C201.491470,336.895203 201.506821,335.707825 201.657227,334.740234 
	C203.632309,322.032867 208.377243,310.190399 212.657364,298.160400 
	C216.167953,288.293304 223.181763,280.129913 225.691452,269.853882 
	C226.478134,266.632812 227.494873,263.481812 229.187485,260.569824 
	C230.011978,259.151306 230.356369,257.655701 229.996521,255.824020 
	C229.012604,250.815643 229.721741,245.892426 231.800537,241.222214 
	C232.673050,239.261978 232.676819,237.583786 231.662399,235.559998 
	C227.549759,227.355164 225.371475,218.461075 223.739807,209.537369 
	C221.880280,199.367477 217.851151,195.480377 207.670975,195.331329 
	C202.207352,195.251343 196.769882,195.603027 191.262985,194.650040 
	C182.916687,193.205688 174.350708,192.481186 165.937225,193.582565 
	C155.564392,194.940445 145.509033,194.539749 135.395706,191.801315 
	C127.839867,189.755402 120.565659,188.276047 112.117867,189.801453 
	C102.245804,191.584030 91.079544,192.557861 82.428261,184.168671 
	C81.497955,183.266571 80.020790,183.038528 78.601700,184.263367 
	C78.522797,185.267090 78.354744,186.408676 78.354546,187.550293 
	C78.343559,249.345139 78.364723,311.140015 78.299263,372.934753 
	C78.295692,376.299683 79.353149,379.159058 81.128548,381.798767 
	C95.706528,403.473877 113.215294,422.334167 134.638458,437.443237 
	C137.884155,439.732330 140.860947,442.201263 144.192780,437.630951 
	C144.919128,436.634613 146.282120,436.769257 147.433929,436.590454 
	C149.974014,436.196198 151.704636,434.645660 152.490128,432.298431 
	C153.563766,429.090210 155.503250,426.386017 157.494598,422.817169 
M154.499969,103.626190 
	C162.165741,103.632477 169.834579,103.781563 177.496719,103.618172 
	C200.122665,103.135696 222.753693,103.667282 245.389740,103.225815 
	C256.833313,103.002632 268.481140,102.998520 280.041809,103.394920 
	C303.345367,104.193977 326.695251,103.668320 350.026001,103.639030 
	C367.492523,103.617104 384.969238,104.033646 402.408752,102.609100 
	C403.678345,102.505386 405.156860,102.866219 406.020599,100.385391 
	C379.503113,75.396652 347.908905,59.502186 312.519806,50.814236 
	C277.155579,42.132389 241.619812,41.063328 206.238922,50.522999 
	C171.049744,59.931419 140.420364,77.753006 112.475075,102.433319 
	C126.963997,102.820900 140.202942,104.168762 154.499969,103.626190 
M194.526550,392.811981 
	C187.404434,404.488434 177.066620,414.194275 173.488998,428.058319 
	C171.289017,436.583710 168.478470,444.952148 165.912491,453.382019 
	C165.312500,455.353149 166.465179,456.053894 167.994293,456.661316 
	C172.158646,458.315552 176.278000,460.084778 180.457626,461.698486 
	C196.606750,467.933289 212.907898,473.435822 230.652161,471.644745 
	C232.402664,471.468079 234.636429,472.168335 235.379105,469.863220 
	C237.480408,463.341095 239.029083,456.941772 235.207199,450.250305 
	C230.768021,442.478088 227.261124,434.215424 224.608597,425.632843 
	C221.424652,415.330872 220.050018,405.006805 223.385330,394.381683 
	C226.358337,384.910797 228.525803,375.224640 229.468948,365.313721 
	C230.124893,358.420654 228.267807,352.023224 225.165741,344.050964 
	C215.858688,361.744690 199.678467,373.207794 194.526550,392.811981 
M304.644409,389.627869 
	C302.788300,375.174774 293.865417,363.544952 289.853546,349.453918 
	C287.160095,351.625977 287.253937,353.808655 286.492798,355.588898 
	C283.300323,363.056061 283.313568,371.118988 282.459961,378.975067 
	C281.809479,384.961517 278.631531,390.387970 278.484741,396.256439 
	C278.093414,411.899841 278.073273,427.567291 278.510223,443.208282 
	C278.653687,448.343231 278.143402,454.475586 282.188019,458.325012 
	C286.962006,462.868561 292.947968,466.343048 299.175598,468.466034 
	C315.880493,474.160583 329.937592,465.370453 345.737213,459.501587 
	C341.374695,455.808167 340.841888,451.481171 340.203522,447.287628 
	C339.385101,441.911713 336.485992,437.812836 332.896637,434.049377 
	C330.713470,431.760315 328.495331,429.499878 326.205322,427.318512 
	C322.630432,423.913177 319.922424,420.006927 319.140259,415.047729 
	C318.646698,411.918823 317.082916,409.771332 314.631439,407.724426 
	C309.275024,403.252075 305.508057,397.651154 304.644409,389.627869 
M450.332001,186.498901 
	C450.332001,245.434906 450.332001,304.370911 450.332001,363.306885 
	C467.469757,331.262787 476.474304,297.129852 477.465057,261.244415 
	C478.388947,227.781250 461.606079,167.630035 450.331940,160.341904 
	C450.331940,168.878418 450.331940,177.188843 450.332001,186.498901 
M69.649513,349.456055 
	C69.649513,286.162384 69.649513,222.868683 69.649513,159.574997 
	C52.891994,191.271286 44.417637,224.633652 43.129696,260.212067 
	C41.653126,301.001190 61.518757,353.471558 69.648354,360.093597 
	C69.648354,356.750977 69.648354,353.591644 69.649513,349.456055 
M378.404388,132.685837 
	C391.831512,130.721298 400.771851,121.101044 410.958984,112.993256 
	C367.672974,112.993256 324.386993,112.993256 281.100983,112.993256 
	C284.661102,115.663139 284.177216,120.760513 287.409790,122.781456 
	C291.443878,125.303520 291.956390,128.993103 292.323944,132.984619 
	C292.445526,134.305038 292.291077,135.671768 293.231781,136.784531 
	C297.803467,142.192261 293.753815,147.445953 291.782166,151.802231 
	C290.410675,154.832504 289.413849,157.591553 288.750854,161.900681 
	C297.949982,156.596771 307.130341,155.665253 316.664886,157.521439 
	C317.400543,157.664673 318.270721,157.189163 319.064056,156.953201 
	C328.611664,154.113464 337.986847,150.985352 346.615906,145.735107 
	C353.360992,141.631165 359.930847,136.885269 368.155273,135.865967 
	C371.486389,135.453110 374.552704,134.114853 378.404388,132.685837 
M112.913994,115.178566 
	C115.748878,116.886711 119.254227,117.876915 121.034607,120.816017 
	C127.111084,130.847183 137.557739,133.028976 147.602341,135.617630 
	C159.194489,138.605133 170.994675,140.840851 180.051376,149.602036 
	C181.111526,150.627609 182.453217,150.674698 183.793121,150.631973 
	C187.660400,150.508682 191.414337,151.265366 195.026779,152.466293 
	C201.749237,154.701080 208.031998,158.101593 215.619080,157.396362 
	C221.338531,156.864716 226.921631,159.108963 234.262085,160.970505 
	C220.183487,141.507446 224.454773,126.054756 242.140472,113.387871 
	C240.234924,111.833961 238.510498,112.419075 236.935318,112.417267 
	C203.940979,112.379517 170.946548,112.400589 137.952194,112.371941 
	C133.474945,112.368057 129.018036,112.549088 124.539825,111.565880 
	C120.389496,110.654655 116.345169,112.476891 112.287659,113.257927 
	C111.411057,113.426666 112.060486,114.312454 112.913994,115.178566 
M161.686905,465.982391 
	C128.542419,451.121002 101.917763,428.055756 79.586456,399.460785 
	C77.820824,401.733337 78.380615,403.455109 78.376968,405.039124 
	C78.330986,425.003967 78.336876,444.968964 78.344894,464.933899 
	C78.347534,471.505768 78.445511,471.628143 85.061325,471.633240 
	C110.516609,471.652832 135.971924,471.641235 161.427216,471.641296 
	C164.826675,471.641327 168.226120,471.641327 171.625580,471.641327 
	C170.281830,469.913788 168.860718,469.122192 167.388840,468.440155 
	C165.740753,467.676453 164.046692,467.012024 161.686905,465.982391 
M435.369415,406.815063 
	C412.192596,434.399475 383.539001,454.760773 350.476624,469.906708 
	C353.014465,472.081055 355.084259,471.607056 357.010040,471.610931 
	C374.835480,471.646698 392.660980,471.643188 410.486481,471.645782 
	C419.315918,471.647064 428.145905,471.581421 436.974548,471.663208 
	C439.975098,471.691010 441.590912,470.846252 441.678955,467.459839 
	C441.898895,458.999359 442.405640,450.440216 442.146484,442.093018 
	C441.800934,430.964478 442.262543,419.822052 441.560364,408.717773 
	C441.380341,405.870880 443.653625,403.092377 441.978577,400.161407 
	C438.726837,401.344299 438.122284,404.613190 435.369415,406.815063 
M82.849319,169.912003 
	C93.660919,164.225403 104.447533,166.240387 114.668472,171.042130 
	C118.671799,172.922836 122.558846,174.568695 126.469482,173.434967 
	C137.304489,170.293808 148.281342,172.298859 159.164398,171.635452 
	C164.571808,171.305847 169.690353,172.415115 174.697784,174.359848 
	C178.200394,175.720139 182.893158,174.971588 186.109741,172.865204 
	C170.986450,163.258286 151.665909,163.719421 136.758621,152.916077 
	C122.300591,142.438324 103.336266,139.742981 90.277794,126.205971 
	C88.387291,128.625671 86.457268,131.097656 84.525406,133.568192 
	C81.961678,136.846756 78.836578,140.140549 78.568954,144.316895 
	C78.059311,152.270096 78.338654,160.277451 78.397301,168.261536 
	C78.417747,171.044952 79.791595,171.872177 82.849319,169.912003 
M371.352325,171.647995 
	C373.354248,171.618912 375.271179,171.873306 377.230927,172.469131 
	C384.295013,174.616898 391.376312,175.172729 398.826447,173.912766 
	C406.461945,172.621445 413.468506,169.156021 421.372711,168.634674 
	C426.673431,168.285049 431.480652,168.413528 436.259064,170.665604 
	C437.852814,171.416733 438.973816,173.216705 441.019684,172.960037 
	C447.618622,161.922791 441.733002,137.595322 429.943024,127.590782 
	C428.934784,130.865372 425.803619,131.967758 423.375092,133.382751 
	C417.611969,136.740677 412.782959,141.413879 405.710999,143.044266 
	C398.735168,144.652496 391.410034,147.541718 386.104492,152.420563 
	C376.093994,161.625961 364.923889,166.777115 351.347076,167.599884 
	C347.253693,167.847946 343.022400,169.834564 339.203033,173.993317 
	C344.206177,174.381454 347.721222,175.674408 351.919006,174.957184 
	C358.094849,173.901993 363.952820,170.922867 371.352325,171.647995 
M256.653381,362.526672 
	C255.472229,357.138245 258.895935,351.419159 256.079865,345.723389 
	C253.685150,347.338226 254.402191,349.162750 254.391663,350.695160 
	C254.319977,361.128967 254.421692,371.516693 249.631561,381.280060 
	C245.967850,388.747559 245.976944,396.447998 249.123383,404.267029 
	C250.009933,406.470154 249.812134,409.185638 249.791611,411.663483 
	C249.731033,418.979584 249.065552,426.319275 249.473206,433.602905 
	C249.909149,441.392151 249.249985,449.675079 255.815536,455.889526 
	C257.242859,457.240509 257.330872,459.457489 257.404938,461.516724 
	C257.520630,464.733154 258.514648,467.590851 262.150848,469.539459 
	C264.258362,463.905975 264.601990,458.655396 262.231262,453.441284 
	C258.840302,445.983429 255.930618,438.456207 256.632080,430.025818 
	C256.755066,428.547394 256.637878,427.091187 255.683029,425.747253 
	C249.882339,417.582977 250.540802,408.337524 252.306992,399.385742 
	C254.651337,387.503601 257.853943,375.802094 256.653381,362.526672 
M441.473602,113.272888 
	C439.158325,111.737709 437.000702,112.494698 434.363739,113.362572 
	C437.041199,116.481613 438.376617,119.941551 441.882446,122.172035 
	C442.952911,119.141357 443.023041,116.506088 441.473602,113.272888 
M82.757332,117.392113 
	C83.392044,115.833969 85.616814,115.086700 85.144165,112.858650 
	C82.961609,112.306091 80.411705,111.601173 79.075165,113.401863 
	C77.659096,115.309723 77.865318,117.959068 79.132378,120.204269 
	C80.910172,120.122299 81.703896,119.090927 82.757332,117.392113 
z"/>
</svg>