<?xml version="1.0" standalone="no"?>
<!DOCTYPE svg PUBLIC "-//W3C//DTD SVG 20010904//EN"
 "http://www.w3.org/TR/2001/REC-SVG-20010904/DTD/svg10.dtd">
<svg version="1.0" xmlns="http://www.w3.org/2000/svg"
 width="1024.000000pt" height="1024.000000pt" viewBox="0 0 1024.000000 1024.000000"
 preserveAspectRatio="xMidYMid meet">

<g transform="translate(0.000000,1024.000000) scale(0.100000,-0.100000)"
fill="#000000" stroke="none">
<path d="M1521 8585 c-186 -33 -404 -126 -550 -235 -98 -73 -248 -230 -304
-317 -160 -247 -224 -478 -214 -772 5 -174 28 -282 90 -434 240 -590 873 -914
1497 -767 105 25 167 49 294 113 346 175 595 513 672 907 39 202 18 466 -52
662 -88 245 -271 485 -476 626 -118 81 -288 158 -425 193 -103 27 -139 31
-283 35 -116 2 -190 -1 -249 -11z"/>
<path d="M4305 7965 c-129 -23 -245 -94 -367 -223 -36 -38 -79 -93 -96 -123
-17 -30 -147 -324 -290 -654 -142 -330 -270 -622 -284 -650 -41 -82 -56 -141
-83 -325 -25 -172 -117 -791 -195 -1305 -21 -143 -49 -327 -61 -410 -12 -82
-29 -168 -39 -191 -10 -22 -275 -490 -591 -1040 -315 -549 -588 -1035 -608
-1079 -31 -72 -35 -91 -39 -191 -3 -85 0 -125 13 -170 67 -235 278 -396 519
-396 133 -1 229 31 335 111 74 55 124 119 207 263 872 1521 1154 2013 1181
2063 45 83 61 138 83 300 10 77 53 367 95 645 41 278 94 629 116 780 23 151
45 280 50 286 11 13 148 -14 364 -71 682 -180 1246 -504 1606 -921 99 -115
129 -153 129 -165 0 -5 -13 -15 -29 -23 -57 -30 -136 -109 -562 -567 -1380
-1481 -1587 -1705 -1621 -1754 -146 -217 -118 -505 66 -688 49 -49 196 -147
295 -197 105 -53 13 -51 2216 -45 1409 4 2076 10 2155 18 63 6 187 12 275 12
174 2 223 10 323 57 77 36 180 130 226 207 104 173 101 404 -8 574 -68 107
-193 198 -317 233 -73 20 -162 24 -2114 80 -313 9 -574 20 -578 24 -4 4 340
279 765 611 737 575 923 730 971 809 11 19 36 52 54 73 58 65 105 194 118 322
10 96 -18 287 -56 385 -53 140 -179 404 -275 580 -638 1165 -1575 1983 -2839
2477 -370 145 -898 296 -1020 292 -11 0 -52 -7 -90 -14z"/>
</g>
</svg>
