<?xml version="1.0" standalone="no"?>
<!DOCTYPE svg PUBLIC "-//W3C//DTD SVG 20010904//EN"
 "http://www.w3.org/TR/2001/REC-SVG-20010904/DTD/svg10.dtd">
<svg version="1.0" xmlns="http://www.w3.org/2000/svg"
 width="1024.000000pt" height="1024.000000pt" viewBox="0 0 1024.000000 1024.000000"
 preserveAspectRatio="xMidYMid meet">

<g transform="translate(0.000000,1024.000000) scale(0.100000,-0.100000)"
fill="#000000" stroke="none">
<path d="M4874 9450 c-124 -18 -227 -71 -320 -164 -141 -141 -193 -327 -150
-533 20 -92 95 -340 149 -493 252 -710 635 -1273 1107 -1628 383 -288 800
-453 1320 -524 152 -21 691 -17 860 5 395 54 836 157 974 229 35 19 90 62 131
103 109 109 165 242 165 390 -1 237 -143 444 -366 532 -62 25 -82 27 -194 27
-110 1 -138 -3 -235 -31 -597 -169 -1122 -189 -1534 -57 -117 38 -326 146
-425 221 -362 272 -622 709 -821 1378 -66 220 -105 301 -182 379 -95 96 -196
146 -331 166 -74 11 -76 11 -148 0z"/>
<path d="M3140 8934 c-199 -52 -370 -228 -410 -421 -21 -101 -7 -247 40 -413
43 -154 81 -340 101 -505 17 -143 15 -437 -5 -565 -115 -743 -646 -1240 -1720
-1609 -194 -67 -256 -101 -337 -182 -109 -109 -159 -233 -159 -396 0 -294 210
-523 511 -558 110 -13 236 18 568 142 842 313 1469 770 1846 1348 418 639 542
1424 364 2299 -110 542 -188 699 -400 811 -119 62 -276 82 -399 49z"/>
<path d="M8925 5725 c-201 -37 -604 -176 -884 -304 -832 -382 -1386 -958
-1643 -1710 -120 -353 -165 -679 -155 -1119 7 -311 35 -545 103 -862 33 -157
58 -228 105 -300 107 -166 279 -260 474 -260 250 0 458 154 541 400 30 88 25
233 -13 405 -55 243 -83 489 -83 718 0 960 526 1554 1682 1897 224 67 285 97
374 185 113 113 164 236 164 401 0 282 -195 507 -481 553 -78 13 -95 13 -184
-4z"/>
<path d="M2050 3790 c-177 -11 -468 -45 -570 -66 -206 -43 -368 -183 -436
-378 -38 -106 -37 -247 2 -363 55 -165 208 -306 388 -358 69 -20 222 -17 426
9 296 38 681 38 932 1 695 -105 1192 -432 1573 -1035 58 -93 150 -271 278
-540 99 -210 330 -346 550 -325 202 19 375 134 459 306 47 93 60 152 61 259 0
130 -39 242 -194 551 -572 1144 -1490 1791 -2729 1924 -172 19 -552 26 -740
15z"/>
</g>
</svg>
