<svg version="1.1" id="Layer_1" xmlns="http://www.w3.org/2000/svg" xmlns:xlink="http://www.w3.org/1999/xlink" x="0px" y="0px"
	 width="100%" viewBox="0 0 1024 1024" enable-background="new 0 0 1024 1024" xml:space="preserve">
<path fill="#000000" opacity="1.000000" stroke="none" 
	d="
M325.084045,964.044128 
	C298.151276,956.146301 271.994568,947.184326 245.920013,937.981201 
	C237.993896,935.183655 231.154129,930.330566 224.193924,925.758301 
	C222.483902,924.635071 221.322830,923.003357 220.699005,921.017639 
	C216.938858,909.049072 218.544220,898.343140 226.637405,888.234192 
	C234.208405,878.777588 244.029037,872.358215 253.607346,865.472595 
	C275.288849,849.886169 295.441925,832.441467 315.059723,814.385071 
	C341.054688,790.459167 366.243591,765.701538 390.503540,740.008179 
	C401.030945,728.858765 410.921570,717.150696 420.857971,705.482422 
	C421.841766,704.327148 422.609589,703.195862 422.229736,701.448608 
	C418.652832,684.996826 418.097137,668.098816 414.877106,651.585022 
	C412.112061,637.404358 407.057465,624.356079 399.740204,611.710510 
	C387.157135,589.964661 383.771942,566.796143 394.121674,542.809814 
	C396.164215,538.075989 397.795197,533.161255 399.526184,528.297974 
	C400.230042,526.320557 401.876404,524.105896 400.227814,522.188721 
	C398.554260,520.242432 396.010681,521.352966 394.138245,522.141296 
	C384.487488,526.204407 374.366638,526.181335 364.172546,526.263733 
	C357.795654,526.315247 351.535339,526.193787 345.409302,524.206665 
	C342.032562,523.111389 338.489990,523.225403 334.995392,523.224609 
	C314.496765,523.219971 293.998077,523.235535 273.499664,523.315979 
	C271.355347,523.324402 269.181091,523.649719 267.074615,524.087341 
	C252.248337,527.168213 238.700272,522.029175 231.717331,510.601074 
	C223.131149,496.549042 224.077164,480.260925 234.110214,468.183075 
	C239.893524,461.221039 247.114059,456.320770 255.448563,452.959412 
	C270.548462,446.869629 286.346405,443.896210 302.412872,441.601501 
	C320.530579,439.013855 337.035095,432.137207 351.028442,419.966858 
	C352.131042,419.007874 353.445343,418.121307 353.463165,416.002075 
	C346.741608,411.235229 339.856903,406.329163 332.948303,401.456879 
	C265.274384,353.729706 197.591324,306.015503 129.924850,258.277802 
	C118.488655,250.209732 106.947945,242.274673 95.767700,233.863220 
	C84.921631,225.703186 80.466026,214.466858 83.516441,201.222153 
	C86.684097,187.468399 96.098999,179.563019 109.912437,177.263275 
	C119.015068,175.747818 126.987457,179.268753 134.249023,184.344589 
	C154.459244,198.471527 174.569855,212.740921 194.731720,226.937134 
	C216.526932,242.283356 238.331985,257.615601 260.147430,272.933044 
	C261.461792,273.855896 262.627380,275.139679 265.381348,275.220764 
	C262.542358,272.088806 260.275909,269.322052 257.739563,266.830048 
	C213.045959,222.917633 168.280472,179.078278 123.629173,135.122940 
	C113.301620,124.956360 108.952141,113.025146 114.760780,98.810844 
	C118.080956,90.686020 123.997101,85.093452 132.052246,81.718170 
	C132.972702,81.332466 133.965515,81.114548 134.874008,80.705940 
	C147.849686,74.870163 158.932602,76.949570 169.556549,86.890144 
	C206.060455,121.046005 246.902878,150.225830 282.797211,185.111328 
	C288.770233,190.916458 294.863647,196.600800 301.009827,202.222443 
	C302.589294,203.667114 304.453064,206.798523 306.650421,204.770645 
	C308.950409,202.648010 306.267365,200.176437 304.781921,198.360367 
	C295.392303,186.881012 285.885315,175.497711 276.427582,164.073990 
	C258.895538,142.897507 241.396408,121.693741 223.830200,100.545670 
	C216.882278,92.181015 213.066147,82.810829 215.246307,71.895210 
	C217.573441,60.243855 224.364777,51.845856 235.821564,48.206570 
	C247.075165,44.631821 257.606415,46.571968 266.562927,54.655392 
	C273.273621,60.711937 278.551544,68.063072 284.288696,74.982254 
	C311.938354,108.328476 339.494629,141.752121 367.095306,175.138992 
	C371.101410,179.984955 373.811859,180.200409 380.053864,176.238571 
	C379.973480,173.699158 378.076721,172.145660 376.642883,170.390579 
	C356.823975,146.131470 336.880310,121.973610 317.162598,97.632690 
	C302.706757,79.787415 308.275116,55.338062 328.393707,47.261681 
	C340.827454,42.270290 353.809845,44.959625 363.417725,55.652851 
	C372.984497,66.300293 381.834534,77.595909 390.906403,88.682953 
	C413.486053,116.278419 436.174500,143.787918 458.439270,171.635757 
	C463.518555,177.988708 470.579346,181.393509 476.396912,186.553680 
	C498.549957,206.203384 517.880676,228.432144 535.957458,251.791229 
	C541.152710,258.504700 546.369995,265.142303 552.119507,271.429382 
	C565.244080,285.781067 571.591675,303.390228 575.108826,322.199951 
	C575.964661,326.776947 577.043030,331.312592 577.881714,335.892426 
	C578.398132,338.712616 579.497437,339.925781 582.635193,339.071808 
	C601.192078,334.021515 620.156555,334.141541 639.168396,334.726776 
	C643.803833,334.869415 648.475769,333.995728 653.102722,334.207123 
	C659.904480,334.517883 665.968750,337.433228 671.843994,340.666473 
	C697.469971,354.768982 721.001953,371.981964 744.207336,389.648376 
	C767.415771,407.317139 789.810059,425.973389 811.093506,445.941193 
	C821.771973,455.959625 831.331787,467.061310 842.179260,476.967133 
	C854.409607,488.135803 859.203308,503.396240 860.971619,519.493713 
	C861.896484,527.913391 861.121826,536.442444 862.039734,544.921204 
	C862.580200,549.913269 861.091980,554.921753 858.853516,559.420166 
	C856.768616,563.609985 857.955811,565.888062 861.671082,568.370300 
	C893.950317,589.936279 926.107605,611.684875 958.313171,633.361206 
	C965.297302,638.062012 965.337341,638.033447 963.219360,646.128113 
	C950.907776,693.181274 928.690857,735.426208 900.735352,774.892334 
	C881.325195,802.294495 859.803162,827.882202 835.534790,851.128723 
	C830.588013,855.867188 830.592834,855.964294 825.528870,851.553406 
	C821.760742,848.271301 817.945251,845.014465 814.449646,841.453125 
	C791.697205,818.272095 765.971741,798.131958 744.798889,773.338989 
	C738.733948,766.237122 732.765381,759.043518 728.086792,750.933167 
	C726.151184,747.577759 724.379150,747.038330 721.010437,749.187622 
	C703.149963,760.583008 684.456970,770.529663 665.343994,779.604553 
	C654.782104,784.619385 649.020569,794.162048 641.909302,802.346802 
	C611.644470,837.179993 582.448120,872.913635 553.339050,908.716919 
	C536.107239,929.911682 518.538818,950.834229 501.440033,972.134583 
	C497.042572,977.612549 491.818146,979.660217 485.161407,980.133789 
	C459.516083,981.958252 433.879669,981.902710 408.260864,979.974243 
	C380.078644,977.852722 352.566040,972.065613 325.084045,964.044128 
M765.743774,601.313782 
	C772.037170,590.330750 777.964233,579.115906 784.726440,568.429504 
	C791.567627,557.618408 793.875732,546.015869 792.682373,533.597473 
	C791.765381,524.054443 790.710876,514.948242 783.155090,507.134308 
	C769.920166,493.447144 756.042603,480.543091 741.535217,468.286194 
	C713.259033,444.396423 683.871826,421.980682 652.571716,402.150330 
	C650.750366,400.996460 648.942017,399.795532 646.754578,399.354553 
	C635.743896,397.134766 624.627136,396.925079 613.447021,397.328064 
	C604.636963,397.645630 596.868164,399.137482 595.259583,409.839386 
	C595.118713,410.776367 594.425781,411.643646 593.935181,412.512756 
	C585.095947,428.171356 576.353821,443.872467 565.430237,458.253143 
	C551.948425,476.001740 540.197876,495.098083 523.637085,510.416748 
	C517.672363,515.934204 510.930328,519.249878 503.100006,521.047241 
	C494.469727,523.028198 486.181946,521.666382 477.990540,519.233215 
	C474.848511,518.299866 473.148041,518.755493 471.665863,521.784912 
	C464.194519,537.055603 457.213287,552.518066 451.931305,568.709473 
	C450.928375,571.783997 451.208130,574.384216 452.892914,577.231018 
	C462.599609,593.632996 470.794556,610.662109 474.998077,629.447144 
	C478.711273,646.040833 479.992249,663.019897 483.372467,679.642090 
	C485.749786,691.332703 486.774689,702.945557 485.405182,714.855652 
	C484.523529,722.522766 482.304993,729.378479 477.585693,735.542969 
	C466.032379,750.634094 453.576965,764.951111 440.709045,778.913391 
	C420.946503,800.356812 400.221466,820.850037 379.131104,840.980835 
	C357.078735,862.030029 334.504425,882.486389 310.751740,901.616211 
	C309.104919,902.942505 306.476776,903.877625 306.776031,906.315308 
	C307.101074,908.962952 309.948212,909.500610 312.058716,910.339417 
	C322.618774,914.536194 333.677124,916.940857 344.749817,919.295837 
	C376.216400,925.988281 408.096222,929.687927 440.075928,932.787292 
	C447.485687,933.505493 452.650177,931.687256 457.648102,925.614258 
	C474.899780,904.651611 491.942932,883.520996 509.133026,862.509338 
	C537.925659,827.315735 566.829285,792.205383 596.876160,758.068481 
	C607.280884,746.247375 617.327454,733.877502 631.764893,726.433167 
	C638.278015,723.074768 644.772888,719.681091 651.291077,716.332642 
	C676.531921,703.366089 700.914917,689.045166 722.915466,670.966675 
	C726.134216,668.321777 729.596191,665.751465 731.437744,661.944214 
	C741.465515,641.212646 753.710815,621.746216 765.743774,601.313782 
z"/>
</svg>