<?xml version="1.0" standalone="no"?>
<!DOCTYPE svg PUBLIC "-//W3C//DTD SVG 20010904//EN"
 "http://www.w3.org/TR/2001/REC-SVG-20010904/DTD/svg10.dtd">
<svg version="1.0" xmlns="http://www.w3.org/2000/svg"
 width="1024.000000pt" height="1024.000000pt" viewBox="0 0 1024.000000 1024.000000"
 preserveAspectRatio="xMidYMid meet">

<g transform="translate(0.000000,1024.000000) scale(0.100000,-0.100000)"
fill="#000000" stroke="none">
<path d="M630 9272 l0 -257 238 -246 c130 -136 489 -507 797 -824 308 -318
648 -670 755 -782 209 -219 248 -248 346 -259 144 -17 291 93 313 236 14 85
63 -25 -531 1185 -176 358 -381 775 -455 928 l-136 277 -664 0 -663 0 0 -258z"/>
<path d="M2852 9513 c5 -19 233 -578 593 -1458 117 -286 216 -531 220 -545 31
-104 121 -200 213 -226 133 -39 274 23 338 148 28 54 30 99 9 208 -7 41 -73
471 -145 955 -71 484 -133 892 -136 908 l-6 27 -545 0 c-515 0 -545 -1 -541
-17z"/>
<path d="M4590 9521 c0 -5 52 -364 115 -797 63 -434 119 -829 125 -879 17
-144 68 -223 178 -273 47 -21 64 -24 132 -20 91 5 147 33 204 100 44 51 52 80
65 233 6 66 62 456 126 866 63 411 115 754 115 763 0 14 -50 16 -530 16 -305
0 -530 -4 -530 -9z"/>
<path d="M6300 9521 c0 -5 -48 -440 -106 -967 -59 -528 -111 -1003 -117 -1056
-12 -113 -1 -157 59 -227 56 -65 123 -95 214 -95 89 -1 147 22 203 78 53 53
72 97 144 326 36 113 107 322 158 465 51 143 190 531 309 863 119 331 216 607
216 612 0 7 -190 10 -540 10 -311 0 -540 -4 -540 -9z"/>
<path d="M8086 9097 c-580 -1199 -894 -1857 -909 -1908 -37 -121 -12 -234 68
-312 59 -57 118 -81 200 -81 88 0 155 29 243 108 35 31 150 127 255 213 106
87 471 387 812 667 341 280 677 557 748 615 l127 104 0 514 0 513 -667 0 -668
0 -209 -433z"/>
<path d="M9150 7429 c-261 -227 -548 -475 -637 -552 -145 -126 -165 -147 -197
-210 -31 -59 -36 -79 -36 -137 0 -57 5 -78 33 -131 71 -138 216 -190 383 -138
38 12 262 77 497 144 235 67 430 125 432 127 3 3 4 298 3 657 l-3 652 -475
-412z"/>
<path d="M630 7208 l0 -624 508 -144 c570 -163 586 -165 685 -116 104 51 161
143 160 261 0 123 -27 161 -229 327 -193 159 -1095 898 -1111 911 -10 7 -13
-117 -13 -615z"/>
<path d="M3582 6670 c-88 -13 -170 -61 -282 -165 -94 -88 -1084 -1030 -1560
-1485 -113 -107 -245 -231 -294 -275 -147 -131 -207 -250 -209 -410 -1 -131
43 -248 129 -344 26 -29 525 -429 1108 -890 1286 -1015 1194 -944 1272 -981
l64 -31 0 -92 c0 -82 -16 -933 -23 -1210 l-2 -107 1326 0 1326 0 6 263 c4 144
7 445 7 668 l0 406 53 35 c28 19 581 430 1227 912 794 593 1197 899 1242 946
141 145 179 307 123 520 -40 150 -71 204 -177 306 -79 76 -644 592 -1803 1647
-312 285 -325 292 -500 292 -118 0 -121 -1 -183 -34 -75 -41 -141 -110 -178
-189 -22 -44 -29 -76 -32 -143 -5 -106 18 -188 76 -264 21 -27 415 -394 876
-815 462 -421 839 -769 838 -773 0 -5 -409 -315 -909 -689 l-908 -679 -210 6
c-141 5 -212 11 -217 18 -12 19 -9 186 4 210 6 12 31 45 56 72 69 77 179 248
238 370 214 449 277 1058 162 1595 -29 138 -111 380 -167 495 -281 574 -746
828 -1215 666 -276 -96 -563 -412 -705 -776 -186 -474 -226 -1009 -115 -1514
78 -348 237 -669 434 -875 l81 -84 -3 -59 -3 -58 -180 3 c-99 1 -213 5 -253 8
l-72 6 -238 187 c-954 752 -1422 1124 -1422 1131 0 4 354 346 788 758 465 443
800 770 818 799 59 90 82 194 65 288 -41 223 -237 366 -459 335z m1113 -1029
c56 -25 121 -91 148 -150 31 -66 30 -178 -1 -246 -82 -180 -320 -232 -468
-102 -178 156 -113 450 114 514 59 16 150 9 207 -16z m1112 -17 c146 -70 211
-252 140 -397 -69 -140 -231 -203 -381 -146 -75 28 -150 109 -172 187 -73 251
177 467 413 356z m-487 -841 c41 -13 100 -40 131 -59 73 -44 175 -153 217
-231 60 -113 69 -174 77 -514 4 -176 4 -309 -1 -312 -5 -3 -48 5 -96 18 -129
35 -364 66 -538 72 -118 4 -204 0 -357 -16 -112 -12 -210 -21 -218 -21 -22 0
-22 512 0 615 73 349 443 561 785 448z"/>
</g>
</svg>
