<?xml version="1.0" standalone="no"?>
<!DOCTYPE svg PUBLIC "-//W3C//DTD SVG 20010904//EN"
 "http://www.w3.org/TR/2001/REC-SVG-20010904/DTD/svg10.dtd">
<svg version="1.0" xmlns="http://www.w3.org/2000/svg"
 width="1024.000000pt" height="1024.000000pt" viewBox="0 0 1024.000000 1024.000000"
 preserveAspectRatio="xMidYMid meet">

<g transform="translate(0.000000,1024.000000) scale(0.100000,-0.100000)"
fill="#000000" stroke="none">
<path d="M5075 9821 c-25 -11 -78 -64 -93 -94 -6 -12 -34 -84 -62 -160 -217
-588 -992 -2139 -2254 -4509 -69 -131 -126 -243 -126 -250 0 -7 -31 -78 -69
-158 -380 -797 -398 -1662 -51 -2477 88 -207 251 -476 409 -673 100 -124 310
-334 439 -437 811 -652 1902 -828 2875 -467 397 148 751 376 1052 678 334 336
572 722 713 1158 106 326 146 577 146 928 0 318 -41 595 -131 873 -90 280
-154 420 -318 692 -158 264 -510 938 -1008 1935 -561 1120 -967 1991 -1283
2750 -36 85 -73 163 -82 173 -38 42 -106 58 -157 38z m407 -3920 c161 -28 275
-62 415 -121 244 -103 406 -209 589 -384 260 -248 427 -546 497 -890 33 -164
32 -453 -2 -616 -81 -390 -280 -712 -615 -995 -59 -49 -109 -99 -111 -110 -83
-373 -154 -619 -257 -883 l-60 -152 -48 -25 c-114 -58 -220 -94 -335 -114
-168 -28 -356 -44 -445 -36 -102 9 -339 49 -441 75 -92 23 -288 86 -304 98 -6
4 -30 50 -54 102 -24 52 -59 122 -77 155 -18 33 -39 83 -47 110 -9 28 -45 129
-82 225 -59 157 -100 300 -119 415 -11 66 -14 69 -95 134 -44 34 -128 113
-188 174 -385 398 -543 935 -432 1469 29 138 61 233 124 363 103 213 228 379
419 552 116 105 215 173 367 252 251 131 404 177 734 225 17 2 125 3 240 1
159 -2 238 -8 327 -24z"/>
<path d="M4060 4070 c-8 -6 -31 -14 -50 -20 -19 -5 -49 -23 -67 -40 -45 -42
-56 -107 -51 -299 5 -172 18 -225 81 -319 18 -26 44 -67 59 -92 34 -59 110
-130 169 -158 70 -34 172 -52 296 -52 98 0 121 3 176 25 83 34 128 79 134 137
7 65 -39 235 -98 356 -47 98 -57 110 -194 247 -79 79 -156 150 -172 158 -30
16 -225 67 -252 67 -9 0 -23 -5 -31 -10z"/>
<path d="M5995 4025 c-27 -8 -54 -14 -58 -15 -5 0 -65 -55 -134 -122 -133
-130 -211 -230 -230 -294 -101 -338 -99 -390 15 -448 125 -63 286 -81 422 -47
47 11 114 36 149 54 63 32 64 33 103 122 64 144 89 255 95 430 4 99 1 164 -6
193 -14 51 -64 110 -108 128 -42 18 -183 17 -248 -1z"/>
<path d="M5249 2841 c-35 -36 -36 -50 -5 -183 27 -114 32 -150 46 -320 6 -64
15 -128 21 -141 17 -38 50 -47 170 -47 108 0 111 1 139 28 19 20 31 44 35 75
14 89 -35 271 -93 346 -90 119 -244 271 -274 271 -5 0 -23 -13 -39 -29z"/>
<path d="M4923 2821 c-26 -21 -102 -94 -169 -162 -118 -121 -121 -126 -153
-214 -41 -115 -49 -171 -27 -213 24 -47 64 -62 180 -69 89 -5 108 -3 149 15
53 24 51 19 67 186 7 65 21 151 31 190 25 88 48 211 49 252 0 66 -55 73 -127
15z"/>
</g>
</svg>
