<svg version="1.1" id="Layer_1" xmlns="http://www.w3.org/2000/svg" xmlns:xlink="http://www.w3.org/1999/xlink" x="0px" y="0px"
	 width="100%" viewBox="0 0 1024 1024" enable-background="new 0 0 1024 1024" xml:space="preserve">
<path fill="#000000" opacity="1.000000" stroke="none" 
	d="
M643.773438,702.213379 
	C618.925171,675.688843 594.395935,649.351318 569.684631,623.185730 
	C562.317261,615.384766 558.492065,606.558716 556.762939,595.817566 
	C551.258118,561.621826 548.798828,527.077637 544.032043,492.809509 
	C542.886353,484.573334 542.143127,476.281799 541.112793,468.028442 
	C540.893005,466.267761 540.932556,464.319824 539.448730,462.925354 
	C537.213318,462.259094 536.052856,463.921265 534.717773,465.060852 
	C505.323242,490.149292 475.981934,515.300476 446.505432,540.292175 
	C443.044952,543.226135 442.027832,546.462097 442.245331,550.762146 
	C443.910522,583.681213 445.501068,616.604309 447.008331,649.530945 
	C447.838287,667.661438 448.489990,685.800293 449.169373,703.937378 
	C449.580811,714.920593 450.127838,725.906189 450.194000,736.893188 
	C450.301544,754.747070 437.359955,768.353210 420.000702,769.052185 
	C404.319275,769.683594 390.124878,756.802124 388.843384,739.859070 
	C387.449951,721.435364 386.721558,702.957947 385.903168,684.495056 
	C384.103943,643.903748 382.600098,603.298523 380.580322,562.718628 
	C380.108246,553.234436 379.973083,543.743958 379.491425,534.262451 
	C378.957672,523.754272 382.372467,514.588623 390.216278,507.311584 
	C407.933716,490.874420 426.680756,475.624268 444.985870,459.864960 
	C454.960754,451.277313 465.073944,442.850037 475.029114,434.239807 
	C480.363922,429.625641 480.377991,429.444916 476.400940,423.843079 
	C458.750092,398.981201 441.075989,374.135529 423.293091,349.368134 
	C420.747406,345.822632 418.861450,341.681030 415.239716,338.790131 
	C413.552979,340.630219 414.165466,342.544861 414.131897,344.284760 
	C413.820190,360.442017 413.761230,376.606873 413.227051,392.756195 
	C412.892059,402.883209 409.603729,412.491394 404.986725,421.308014 
	C400.222107,430.406616 391.806793,435.383453 381.500031,436.207611 
	C360.545227,437.883179 339.529449,436.889771 318.542023,437.202179 
	C291.719330,437.601440 264.895050,437.968811 238.070145,438.119080 
	C222.482697,438.206421 211.033310,430.207123 206.524307,416.682861 
	C201.000366,400.114380 210.375549,382.508636 227.319931,377.732544 
	C231.503433,376.553406 235.802734,376.013550 240.156799,375.965271 
	C274.645294,375.582794 309.133698,375.193054 343.622284,374.819122 
	C350.944244,374.739746 351.632385,374.160645 351.669922,366.855957 
	C351.824829,336.692505 351.885376,306.528503 352.075317,276.365295 
	C352.156097,263.539612 352.322815,250.710892 352.716705,237.891739 
	C353.160553,223.444412 359.515991,211.680054 371.155365,203.509796 
	C384.505432,194.138687 398.386383,185.481445 412.368896,177.065979 
	C425.474487,169.178284 439.997437,171.310852 450.821228,182.079163 
	C453.066010,184.312408 455.479492,185.529495 458.538086,186.201782 
	C505.702087,196.568573 552.820801,207.143082 600.010620,217.390182 
	C612.109375,220.017349 621.392395,227.173691 630.422852,234.754868 
	C635.678894,239.167389 637.863770,245.670792 639.319458,252.296890 
	C644.676514,276.682434 650.083740,301.056946 655.399841,325.451385 
	C659.436951,343.976746 663.923218,362.428619 667.176270,381.093262 
	C670.144897,398.126190 659.285645,412.885712 642.783936,416.179626 
	C626.685974,419.392975 610.833252,409.355103 606.790527,392.764923 
	C602.533936,375.297272 598.852478,357.688965 594.960022,340.133179 
	C590.635864,320.630219 586.288879,301.131775 582.126648,281.594116 
	C581.435181,278.348480 579.920898,276.697113 576.748291,275.994751 
	C550.730408,270.234924 524.730286,264.394592 498.717926,258.609680 
	C498.127258,258.478333 497.455566,258.711273 496.832275,258.773254 
	C495.933807,261.283295 497.619080,262.736206 498.691162,264.274597 
	C525.267456,302.410217 551.841431,340.547607 578.525085,378.608093 
	C583.395752,385.555328 587.296875,393.085724 592.400146,399.920441 
	C598.341064,407.877075 598.001404,417.856903 599.138550,427.229187 
	C603.468689,462.917877 607.707214,498.617706 611.947571,534.317261 
	C613.654663,548.689697 615.581787,563.046814 616.784912,577.462952 
	C617.242554,582.946899 620.347778,586.244812 623.609009,589.720032 
	C641.395813,608.673889 659.299561,627.518188 677.062256,646.494507 
	C699.834595,670.822876 722.618652,695.142151 745.181824,719.663879 
	C755.743042,731.141846 756.833008,746.278503 748.695190,758.832092 
	C737.717834,775.766052 713.575928,776.900330 698.990662,761.245056 
	C680.704834,741.617737 662.348633,722.056091 643.773438,702.213379 
z"/>
<path fill="#000000" opacity="1.000000" stroke="none" 
	d="
M307.951416,57.881172 
	C350.644379,31.815338 410.795837,52.921715 421.131378,108.447952 
	C428.501740,148.044067 398.325073,188.693481 358.375977,194.448410 
	C319.952515,199.983551 277.613647,172.881348 273.995514,127.136543 
	C271.686951,97.949112 282.934631,74.520111 307.951416,57.881172 
z"/>
<path fill="#000000" opacity="1.000000" stroke="none" 
	d="
M586.147339,901.590271 
	C598.072205,908.420044 603.379944,919.552246 600.403870,930.903320 
	C597.106506,943.479858 587.133606,951.034424 572.812378,950.977722 
	C556.494995,950.913147 540.178772,950.338623 523.864075,949.908630 
	C503.389160,949.368958 482.915375,948.780457 462.443268,948.144165 
	C457.789703,947.999512 453.107239,947.848877 448.503418,947.221497 
	C436.111938,945.532654 426.866180,935.134155 426.696808,923.036743 
	C426.506012,909.407288 434.867767,899.071106 447.834839,896.745056 
	C454.980865,895.463074 462.098846,896.296448 469.251068,896.569214 
	C485.558716,897.191101 501.882599,896.938477 518.200439,897.662292 
	C536.663940,898.481201 555.162231,898.523376 573.645813,898.880066 
	C577.866333,898.961548 581.898193,899.855713 586.147339,901.590271 
z"/>
<path fill="#000000" opacity="1.000000" stroke="none" 
	d="
M788.798340,841.729004 
	C793.941406,839.674683 798.621399,837.409302 803.533264,835.897095 
	C816.935364,831.771057 830.070007,838.280640 835.262939,851.307800 
	C840.166931,863.610291 835.216187,877.439575 822.831055,883.438416 
	C810.863770,889.234802 798.449097,894.113892 786.193481,899.307373 
	C768.266724,906.904114 750.294189,914.392822 732.365967,921.986023 
	C724.051331,925.507568 715.747253,927.931152 706.823425,923.958069 
	C697.461670,919.789978 691.989197,912.576416 691.034790,902.568909 
	C690.076538,892.520447 694.043030,884.147949 702.743103,878.781616 
	C712.409424,872.819397 723.281311,869.329834 733.669373,864.870605 
	C751.865906,857.059387 770.177612,849.516724 788.798340,841.729004 
z"/>
<path fill="#000000" opacity="1.000000" stroke="none" 
	d="
M404.644348,825.279724 
	C435.379333,831.724609 463.293335,843.090454 486.257263,864.632690 
	C489.828217,867.982544 493.418579,871.421204 496.045471,876.693481 
	C490.403809,877.701050 485.489410,877.397888 480.623993,877.044312 
	C466.195557,875.995789 451.779602,874.968567 437.465332,878.114441 
	C435.241150,878.603333 433.271515,878.219177 431.195862,877.301025 
	C406.596222,866.419800 380.827026,861.368835 353.951141,862.357727 
	C345.472412,862.669739 337.080566,864.063599 328.833130,866.164978 
	C326.737549,866.698914 324.641846,867.419189 322.802277,865.435852 
	C313.643860,855.561218 301.102539,851.544495 289.353851,846.150452 
	C287.133392,845.131042 284.592194,844.588806 283.063812,842.324646 
	C283.573090,839.772644 285.857666,839.136169 287.629028,838.068176 
	C303.651337,828.407166 321.371796,824.116760 339.702515,821.998169 
	C361.369934,819.494080 382.889343,820.797913 404.644348,825.279724 
z"/>
<path fill="#000000" opacity="1.000000" stroke="none" 
	d="
M257.928131,911.129028 
	C234.969986,900.359375 212.303986,889.852844 189.766159,879.078247 
	C179.261002,874.056091 174.197968,865.467041 174.711212,853.703003 
	C175.367920,838.650330 189.721710,827.334045 204.559052,830.348755 
	C213.825012,832.231384 221.868164,837.173340 230.316147,841.068909 
	C252.394867,851.250183 274.430634,861.524719 296.478638,871.772522 
	C306.395691,876.381958 313.825470,883.159180 315.052490,894.679199 
	C317.034027,913.283203 298.525543,927.710449 280.579681,921.325073 
	C272.922333,918.600464 265.695343,914.666626 257.928131,911.129028 
z"/>
<path fill="#000000" opacity="1.000000" stroke="none" 
	d="
M803.415588,652.023010 
	C814.557495,648.710876 824.085388,651.120789 831.771912,659.081848 
	C852.594421,680.648010 873.365601,702.270508 893.775818,724.225098 
	C903.931763,735.149597 902.940613,750.585571 892.377319,760.523315 
	C882.144287,770.150391 866.614685,769.874695 855.927856,759.175842 
	C843.218445,746.452087 831.010315,733.227600 818.591064,720.214172 
	C810.541748,711.779785 802.306580,703.512390 794.504089,694.855164 
	C781.290405,680.193848 785.314758,660.605530 803.415588,652.023010 
z"/>
<path fill="#000000" opacity="1.000000" stroke="none" 
	d="
M133.922913,721.935791 
	C145.794189,708.858093 157.221497,695.844666 169.161667,683.320251 
	C178.623856,673.395020 191.940018,671.856445 202.325546,678.652527 
	C216.340317,687.823486 218.200912,705.398560 206.486298,719.044983 
	C200.959854,725.482788 195.260498,731.774292 189.562607,738.062378 
	C177.829758,751.010437 166.041229,763.907959 154.283051,776.833069 
	C142.818542,789.435547 125.498108,790.154114 114.662872,778.466797 
	C106.046738,769.173157 105.471649,754.852844 113.832054,744.624084 
	C120.145279,736.900085 127.055603,729.664185 133.922913,721.935791 
z"/>
<path fill="#000000" opacity="1.000000" stroke="none" 
	d="
M857.636841,855.452087 
	C856.676270,850.794189 856.195496,846.417175 854.101807,842.575317 
	C852.204041,839.093018 854.199036,837.893738 856.893982,836.653015 
	C868.170837,831.460876 878.396851,824.637146 887.626343,816.352295 
	C896.617615,808.281433 904.636536,799.408936 909.289490,788.031494 
	C911.940247,781.549927 911.468079,780.673340 904.771057,778.189148 
	C908.452271,772.849426 913.373474,768.553528 916.153992,762.626465 
	C918.882690,756.809814 920.877747,750.979431 920.815369,744.463318 
	C920.770325,739.753845 921.816833,739.231750 926.249878,741.065491 
	C947.425049,749.824829 957.160522,771.402710 950.779114,795.304688 
	C945.939026,813.433472 935.369019,828.100769 922.334717,840.995422 
	C904.480164,858.658569 883.893860,872.279724 859.964172,880.479675 
	C857.949768,881.169983 856.043274,882.317688 852.989563,881.969482 
	C856.187805,873.461243 858.464539,864.908264 857.636841,855.452087 
z"/>
<path fill="#000000" opacity="1.000000" stroke="none" 
	d="
M596.420044,883.666687 
	C589.126160,880.423218 581.970947,878.999084 574.270691,879.121887 
	C566.024231,879.253418 557.760681,878.314880 549.617371,877.849792 
	C548.470947,875.146912 550.338074,873.765686 551.440796,872.271667 
	C560.723267,859.696594 572.562439,850.160828 586.533325,843.263245 
	C614.287231,829.560791 643.615112,824.803894 674.365601,827.542542 
	C690.811035,829.007202 706.488403,833.035767 721.463562,839.891357 
	C723.805908,840.963623 726.539124,841.596558 728.055359,844.668823 
	C721.051880,848.660889 713.445312,851.029480 706.222656,854.215515 
	C698.718079,857.525879 691.286194,861.034729 685.320068,866.707153 
	C681.844299,870.011780 678.344788,870.426208 673.954285,869.801086 
	C650.953735,866.526672 628.844421,869.765320 607.591187,879.175537 
	C604.013794,880.759521 601.151123,884.067017 596.420044,883.666687 
z"/>
<path fill="#000000" opacity="1.000000" stroke="none" 
	d="
M304.223480,941.360107 
	C313.090271,938.118958 320.275421,933.177124 325.623352,925.839600 
	C328.182251,922.328552 330.605316,921.681702 334.838531,923.629089 
	C355.847870,933.293762 378.033752,938.083801 401.169250,937.833557 
	C406.207947,937.779053 408.754456,939.500610 411.246277,943.858337 
	C419.972504,959.119019 433.153656,967.567322 451.088989,967.722717 
	C457.924225,967.781921 457.924744,967.721008 461.093140,969.417725 
	C434.160278,992.294250 306.977478,973.393738 288.724091,943.487244 
	C293.710602,941.800049 299.116394,943.806396 304.223480,941.360107 
z"/>
<path fill="#000000" opacity="1.000000" stroke="none" 
	d="
M693.984985,973.154053 
	C659.328186,982.354248 625.397278,982.158691 591.908447,970.564758 
	C591.886292,968.412964 592.803467,967.982239 593.712646,967.551392 
	C605.516846,961.958252 613.998840,953.166748 618.807251,941.016052 
	C620.317932,937.198792 622.153198,935.856812 626.622131,936.577332 
	C644.245178,939.418823 661.809509,938.607483 679.100281,933.971802 
	C681.993103,933.196289 684.166504,933.716003 686.433960,935.588623 
	C701.946655,948.400146 719.110962,948.658875 737.099609,941.994019 
	C741.278198,940.445862 745.380249,938.690979 750.182800,936.764221 
	C749.634644,940.601929 747.189026,942.391296 745.207092,944.350159 
	C730.873901,958.517395 713.377258,967.125671 693.984985,973.154053 
z"/>
<path fill="#000000" opacity="1.000000" stroke="none" 
	d="
M155.345032,829.735535 
	C158.414780,831.433899 159.925812,833.055664 158.372040,836.683899 
	C152.959457,849.322754 152.455719,862.082581 158.473068,874.761658 
	C158.818710,875.489929 159.213135,876.277344 158.540237,877.153503 
	C157.634354,877.828064 156.661758,877.375427 155.786285,876.981201 
	C117.062714,859.540588 89.332718,831.953308 77.366470,790.444458 
	C72.861862,774.818665 73.630547,759.135376 81.555634,744.369507 
	C86.212585,735.692627 93.447609,728.731689 100.892181,726.017578 
	C101.109039,729.004089 98.615143,730.326233 97.334923,732.134949 
	C87.341904,746.253601 84.112701,761.266296 90.458786,777.857788 
	C96.822289,794.494934 109.129250,803.665344 126.330002,806.555298 
	C129.712997,807.123718 132.122086,808.309814 134.267517,810.950989 
	C140.184921,818.235657 147.217438,824.340515 155.345032,829.735535 
z"/>
<path fill="#000000" opacity="1.000000" stroke="none" 
	d="
M753.859009,597.877686 
	C775.013733,600.371460 794.698547,606.088074 812.926086,616.383911 
	C819.921326,620.335327 826.175476,625.279602 831.815369,630.999939 
	C832.497681,631.692078 833.409851,632.268494 833.085144,633.568176 
	C831.371765,634.336914 829.927734,633.215027 828.425476,632.731812 
	C815.171021,628.468689 802.310852,628.863159 789.847961,635.601624 
	C786.556213,637.381470 783.761536,639.669922 781.318054,642.408081 
	C779.061707,644.936646 776.703064,645.536682 773.338745,644.462341 
	C758.957031,639.869568 744.222961,637.783203 729.099121,639.085083 
	C727.247620,639.244507 725.362915,639.237854 723.963623,637.761658 
	C714.124817,627.382446 704.307068,616.983154 694.508057,606.566345 
	C694.210510,606.250000 694.191711,605.671387 693.765076,604.362427 
	C713.151245,596.796631 733.066650,595.609131 753.859009,597.877686 
z"/>
<path fill="#000000" opacity="1.000000" stroke="none" 
	d="
M202.768066,656.205078 
	C192.256821,652.894592 182.144333,653.687988 171.841003,656.555420 
	C171.328857,654.013184 172.809860,652.537354 173.866730,650.983276 
	C182.998505,637.555359 196.053467,629.189331 210.547287,622.719299 
	C232.806305,612.783020 256.234650,608.743835 280.493286,608.981323 
	C282.785309,609.003723 285.132233,608.979858 287.114838,610.405334 
	C287.263641,612.217590 285.774048,612.589844 284.782257,613.389954 
	C274.212097,621.917908 267.120148,632.310059 267.288086,646.492798 
	C267.325531,649.655518 266.274261,651.516541 262.855621,651.812683 
	C248.281372,653.075562 234.315933,656.534729 221.452881,663.739014 
	C219.297531,664.946167 217.677872,664.092651 215.971146,662.879578 
	C212.020004,660.071167 207.865173,657.642822 202.768066,656.205078 
z"/>
<path fill="#000000" opacity="1.000000" stroke="none" 
	d="
M559.151550,685.325073 
	C537.552429,692.285400 515.803345,693.956482 493.682892,692.200989 
	C490.229584,691.927002 488.675842,690.518860 488.693939,686.889282 
	C488.745270,676.585754 487.776093,666.331360 486.845734,656.076111 
	C486.313110,650.205750 487.377991,649.429321 493.264954,650.085754 
	C506.397339,651.550171 519.530762,651.664368 532.534912,649.020203 
	C536.390198,648.236267 538.988831,649.024109 541.663757,652.065674 
	C549.572632,661.058716 557.838806,669.737549 565.965149,678.539368 
	C566.751892,679.391541 567.659912,680.179382 567.527649,681.679749 
	C565.375549,683.822754 562.251465,684.083191 559.151550,685.325073 
z"/>
<path fill="#000000" opacity="1.000000" stroke="none" 
	d="
M310.099121,695.737915 
	C316.682159,695.849426 322.785889,695.933838 329.122375,693.252075 
	C323.125519,708.971558 251.392502,729.328186 229.981430,721.791809 
	C236.242661,709.021362 236.496765,695.802002 231.713196,681.995422 
	C236.233475,680.248840 240.751099,681.409668 245.026093,681.179688 
	C253.872070,680.704041 262.597504,679.769653 271.117218,677.398315 
	C273.892914,676.625732 275.532410,677.726990 277.198883,679.545105 
	C282.771851,685.625183 289.034912,690.663452 296.998657,693.418701 
	C301.130035,694.848022 305.196045,696.138306 310.099121,695.737915 
z"/>
<path fill="#000000" opacity="1.000000" stroke="none" 
	d="
M292.445557,665.434937 
	C281.606110,648.228088 288.546692,630.041992 307.712006,624.691772 
	C317.335754,622.005249 326.968475,619.343933 336.643066,616.849243 
	C342.022156,615.462097 343.248077,616.436646 343.234192,622.095032 
	C343.198608,636.571594 344.154755,651.006897 344.856781,665.452393 
	C344.956299,667.500732 344.171692,668.736206 342.343811,669.155579 
	C332.793091,671.346497 323.571777,675.090027 313.615570,675.378113 
	C305.050964,675.626038 298.036499,672.441711 292.445557,665.434937 
z"/>
<path fill="#000000" opacity="1.000000" stroke="none" 
	d="
M867.112549,789.742554 
	C854.635559,796.297180 844.017822,804.799255 834.299438,814.471008 
	C832.438049,816.323364 830.727234,817.947937 827.824707,816.904358 
	C813.638733,811.803833 800.034973,813.987122 786.753540,820.223022 
	C784.963013,821.063721 783.148010,821.928894 781.007812,821.819702 
	C779.621094,819.838684 781.187134,818.344971 781.912964,816.836426 
	C792.374268,795.094727 809.056946,778.837830 828.028015,764.590332 
	C830.184448,762.970825 831.910706,763.186707 833.721130,765.017273 
	C836.646729,767.975464 839.820618,770.710144 842.550232,773.835571 
	C848.818726,781.012939 856.903137,784.975586 865.808655,787.624695 
	C866.771423,787.911133 868.536865,787.533630 867.112549,789.742554 
z"/>
<path fill="#000000" opacity="1.000000" stroke="none" 
	d="
M201.177734,755.305054 
	C203.292572,753.678406 204.505508,754.909363 205.705109,756.131714 
	C222.196899,772.936951 234.725616,792.059998 240.134048,815.301331 
	C240.603424,817.318298 241.680969,819.427979 240.278305,821.804871 
	C236.458038,821.476624 233.115753,819.616455 229.758484,817.952942 
	C219.564072,812.901306 209.291336,808.254578 197.476486,809.206726 
	C195.062576,809.401306 193.426941,808.277161 192.220963,806.171936 
	C188.316422,799.356079 183.593491,793.130310 178.113571,787.508911 
	C175.954666,785.294373 176.070404,783.675049 178.023331,781.158936 
	C185.072098,772.077271 193.530579,764.283875 201.177734,755.305054 
z"/>
<path fill="#000000" opacity="1.000000" stroke="none" 
	d="
M508.977661,613.151123 
	C502.143555,613.048340 495.844727,613.652832 489.628571,614.848083 
	C486.407562,615.467346 484.639801,614.569397 484.807098,611.221680 
	C485.356567,600.226746 483.512970,589.323425 483.664154,578.339050 
	C483.715454,574.610535 485.056519,572.972107 488.812195,572.574585 
	C495.259491,571.892090 501.657501,570.798157 508.172546,570.768372 
	C511.368622,570.753723 513.170532,571.859253 513.304382,575.333740 
	C513.707581,585.801453 516.200562,595.996704 517.536255,606.346252 
	C518.410522,613.120789 518.560425,613.101318 511.962067,613.133362 
	C511.129395,613.137390 510.296722,613.143494 508.977661,613.151123 
z"/>
<path fill="#000000" opacity="1.000000" stroke="none" 
	d="
M753.680542,669.373901 
	C757.700989,666.434937 762.869751,667.339294 765.637024,669.352173 
	C769.363586,672.062988 766.753845,677.618652 767.226990,681.928528 
	C766.827942,682.208191 766.428955,682.487793 766.029907,682.767456 
	C761.936157,678.419250 757.842346,674.071106 753.680542,669.373901 
z"/>
</svg>