<svg version="1.1" id="Layer_1" xmlns="http://www.w3.org/2000/svg" xmlns:xlink="http://www.w3.org/1999/xlink" x="0px" y="0px"
	 width="100%" viewBox="0 0 1024 1024" enable-background="new 0 0 1024 1024" xml:space="preserve">
<path fill="#000000" opacity="1.000000" stroke="none" 
	d="
M554.894470,41.776299 
	C608.271606,44.961376 659.651062,55.486332 709.396362,73.761322 
	C728.592590,80.813461 733.338806,102.581703 718.531738,115.162254 
	C710.945251,121.607971 702.208984,122.094841 693.115051,118.974312 
	C672.617493,111.940727 651.907104,105.708336 630.729370,100.991447 
	C593.996643,92.810028 556.882751,88.239288 519.232788,89.401138 
	C465.679199,91.053749 414.371094,102.734634 365.306427,124.458893 
	C351.274414,130.671814 337.001221,136.238266 324.738525,145.737717 
	C323.292633,146.857773 321.879578,148.035934 320.559509,149.300171 
	C313.750336,155.821472 313.750854,157.979996 320.545654,164.822739 
	C324.684723,168.991028 329.617340,172.118484 334.435364,175.408569 
	C336.668274,176.933350 338.738800,176.587891 341.047546,175.759323 
	C374.429504,163.779099 408.866913,156.266129 443.949768,151.473801 
	C483.551208,146.064209 523.317383,145.540741 563.150574,147.580475 
	C607.649414,149.859116 651.642883,156.223221 695.308716,164.849182 
	C716.711731,169.077240 738.070618,173.689194 757.932190,183.265869 
	C764.304626,186.338486 770.083801,190.307007 774.760925,195.605759 
	C788.428284,211.089859 786.181152,231.775314 769.623474,244.749634 
	C758.638855,253.356934 745.796692,258.077026 732.676270,261.930115 
	C699.046753,271.806183 664.709045,278.100159 629.811462,281.378815 
	C585.337036,285.557251 541.076294,283.776611 496.871643,277.543152 
	C442.918915,269.935181 391.023743,255.310440 341.267303,233.174179 
	C336.390198,231.004395 332.448303,231.003540 327.669769,233.253418 
	C304.049805,244.374344 281.748169,257.626129 261.382355,273.965881 
	C252.792557,280.857605 245.223282,288.799622 239.475510,298.402039 
	C233.573608,308.261932 234.527939,317.380035 241.369583,326.217133 
	C249.262360,336.411987 259.491547,343.821259 270.426422,350.343567 
	C287.232880,360.368042 305.201233,367.885895 323.416473,374.893951 
	C326.560791,376.103668 328.313110,374.978210 330.347748,372.891388 
	C359.371765,343.122620 393.417755,321.349854 433.057312,308.479553 
	C453.600067,301.809631 474.653107,298.225372 496.190155,296.618622 
	C523.697144,294.566376 550.805054,296.820679 577.507629,303.207245 
	C615.379456,312.265228 649.322144,329.313324 679.229797,354.448517 
	C692.572876,365.662415 704.800171,377.850464 715.168274,391.821533 
	C717.750916,395.301636 720.119141,395.740143 723.990906,394.521973 
	C758.601929,383.632172 791.647095,369.124054 823.515808,351.858276 
	C832.868774,346.790985 841.944702,341.414764 852.957947,340.092987 
	C867.144287,338.390411 876.743652,346.579224 877.453308,360.826050 
	C878.022949,372.261322 872.225830,379.995026 863.648560,385.172791 
	C836.541443,401.536163 808.694519,416.616211 779.126099,428.171478 
	C770.140930,431.682831 760.818359,434.331757 751.645386,437.360809 
	C744.877563,439.595551 744.851074,439.603943 747.583130,445.889282 
	C758.428528,470.839630 765.187195,496.824585 767.290894,523.974976 
	C767.520935,526.943542 768.417542,528.975098 771.621521,529.778503 
	C794.086548,535.411438 803.286621,555.897522 800.534790,577.507629 
	C797.219727,603.541443 789.427673,628.564087 782.078735,653.641296 
	C776.417664,672.959045 771.639771,692.608826 763.302063,711.032166 
	C759.235901,720.016968 753.533447,728.091858 746.569336,735.114136 
	C741.775330,739.948120 735.813232,743.083191 729.075439,744.155457 
	C724.803772,744.835266 722.422363,746.785278 720.828003,750.844238 
	C707.120178,785.742798 692.228638,820.123169 675.500305,853.698730 
	C659.644226,885.523804 641.827759,916.207275 620.991455,945.003296 
	C612.432739,956.831665 600.473694,965.424805 587.850342,972.731750 
	C581.958923,976.141968 574.972168,975.970215 568.424500,976.930359 
	C555.057068,978.890564 541.585754,979.528870 528.054260,979.460571 
	C502.067596,979.329529 476.043945,980.226868 450.321838,975.227112 
	C447.688690,974.715332 444.954132,974.427979 442.677643,973.042297 
	C429.384674,964.951172 416.564392,956.076172 407.481659,943.210999 
	C372.801575,894.088074 345.998627,840.713257 323.091949,785.276001 
	C318.130768,773.269165 313.056915,761.307861 308.221893,749.250610 
	C307.089203,746.425964 305.397766,745.002686 302.475342,744.530151 
	C291.082794,742.688171 283.127472,736.122925 276.282074,727.002686 
	C267.585083,715.415344 262.410339,702.452332 258.176544,688.862122 
	C248.811920,658.802368 239.465775,628.735840 232.540085,597.997192 
	C229.422638,584.160828 226.623978,570.192810 230.745163,556.031738 
	C234.691696,542.470764 243.541916,533.638489 257.163757,529.919739 
	C260.451782,529.022095 261.732574,527.519348 262.104523,524.211365 
	C263.778656,509.322418 265.902161,494.494873 269.935303,480.021637 
	C275.641876,459.543304 283.756989,440.037415 294.209320,421.545258 
	C296.508514,417.477570 296.067352,415.752991 291.611420,413.947205 
	C271.038147,405.609863 251.062759,396.036926 232.781052,383.290100 
	C221.800201,375.633728 211.459854,367.153931 203.496948,356.291687 
	C181.921356,326.860352 182.084534,293.996704 203.917557,264.659271 
	C219.289291,244.003998 239.475891,228.770599 260.937958,215.085297 
	C267.678925,210.786896 274.653564,206.855408 281.512146,202.740799 
	C286.539032,199.725098 286.635162,199.428375 282.831329,195.023743 
	C273.644775,184.386292 267.383575,172.396332 266.934418,158.130508 
	C266.303009,138.077026 276.645508,123.317726 291.061890,110.892448 
	C307.693024,96.558258 327.362152,87.483658 347.299164,78.869644 
	C373.674805,67.473747 400.797607,58.418041 428.853241,52.194073 
	C450.668427,47.354507 472.726898,44.300209 495.016693,42.591900 
	C514.816345,41.074440 534.600220,41.122059 554.894470,41.776299 
M605.979614,419.602234 
	C599.181091,420.085815 592.383240,420.965942 585.583923,420.977905 
	C565.940735,421.012512 546.309937,421.525055 526.650391,420.353394 
	C491.539673,418.260864 456.911255,413.436371 422.581451,405.694397 
	C391.544281,398.694946 361.066498,389.950806 331.068451,379.457916 
	C327.817322,378.320679 326.003784,378.778442 323.964325,381.550781 
	C316.545044,391.636139 309.904205,402.199219 303.792694,413.109039 
	C303.239960,414.095795 302.500916,415.099396 303.229218,416.656799 
	C303.877747,416.982574 304.721130,417.503784 305.631165,417.849274 
	C343.029633,432.047424 381.302307,443.199341 420.524231,451.138947 
	C460.076874,459.145538 499.985474,464.268555 540.310425,465.557922 
	C566.613892,466.398956 592.895996,465.396881 619.137207,462.899811 
	C648.600647,460.096100 677.752380,455.629974 706.481689,448.514252 
	C716.008423,446.154602 725.495911,443.627686 734.954712,441.008942 
	C737.400330,440.331879 740.770569,439.646393 739.300720,435.796997 
	C734.541687,423.333160 729.578430,410.962646 720.383972,400.871094 
	C718.475159,398.776031 716.582458,398.110291 713.782288,398.954376 
	C708.367554,400.586670 702.880432,402.005157 697.373535,403.300598 
	C677.175598,408.052063 656.694153,411.183319 636.189453,414.283661 
	C626.402344,415.763489 616.998169,419.597321 605.979614,419.602234 
M517.573303,231.805099 
	C581.921082,239.363480 645.448792,235.927048 707.955261,217.640656 
	C637.225220,201.409470 565.914795,191.537552 493.210236,195.311600 
	C465.197754,196.765717 437.424805,200.134567 410.037872,207.184067 
	C444.731476,219.458359 480.305664,227.319504 517.573303,231.805099 
z"/>
</svg>